<svg width="100" height="100" viewBox="0 0 100 100" fill="none" xmlns="http://www.w3.org/2000/svg">
<ellipse cx="50.2325" cy="50.2376" rx="46.0465" ry="45.7385" fill="#471B4F"/>
<path d="M73.4837 71.8076C72.0967 71.8076 70.9676 72.9366 70.9676 74.3237C70.9676 75.7108 72.0967 76.8398 73.4837 76.8398C74.8708 76.8398 75.9999 75.7108 75.9999 74.3237C75.9999 72.9366 74.8708 71.8076 73.4837 71.8076ZM73.4837 75.1624C73.0218 75.1624 72.645 74.7865 72.645 74.3237C72.645 73.8609 73.0218 73.485 73.4837 73.485C73.9457 73.485 74.3225 73.8609 74.3225 74.3237C74.3225 74.7865 73.9457 75.1624 73.4837 75.1624Z" fill="white"/>
<path d="M29.0323 26.5161C29.0323 25.1291 27.9032 24 26.5161 24C25.1291 24 24 25.1291 24 26.5161C24 27.9032 25.1291 29.0323 26.5161 29.0323C27.9032 29.0323 29.0323 27.9032 29.0323 26.5161ZM25.6774 26.5161C25.6774 26.0542 26.0542 25.6774 26.5161 25.6774C26.9781 25.6774 27.3548 26.0542 27.3548 26.5161C27.3548 26.9781 26.9781 27.3548 26.5161 27.3548C26.0542 27.3548 25.6774 26.9781 25.6774 26.5161Z" fill="white"/>
<path d="M69.0568 57.2364L67.4003 53.9237C67.7516 53.2107 68.0526 52.4904 68.3 51.7733L71.8068 50.6041V41.0072L68.3 39.838C68.0534 39.121 67.7516 38.4006 67.4003 37.6876L69.0584 34.3717L62.273 27.5862L58.957 29.2444C58.244 28.893 57.5237 28.5912 56.8066 28.3447L55.6374 24.8379H46.0406L44.8714 28.3447C44.1543 28.5912 43.4339 28.893 42.7209 29.2444L39.405 27.5862L32.6195 34.3717L34.2777 37.6876C33.9263 38.4006 33.6245 39.121 33.378 39.838L29.8712 41.0072V50.6033L33.378 51.7721C33.6229 52.4842 33.9206 53.198 34.2687 53.9053L33.19 55.8702H28.1938V72.6444H34.0648V70.1283H40.4272L42.9433 72.6444H47.4841V73.4831C47.4841 75.3334 48.9887 76.838 50.839 76.838C52.6892 76.838 54.1938 75.3334 54.1938 73.4831V72.6444H60.0656C61.4527 72.6444 62.5818 71.5154 62.5818 70.1283C62.5818 69.4817 62.3295 68.8973 61.9277 68.4509C62.3303 68.0045 62.5818 67.4201 62.5818 66.7735C62.5818 66.1268 62.3295 65.5424 61.9277 65.096C62.248 64.7406 62.4667 64.2966 62.5433 63.8019L69.0568 57.2364ZM35.9613 53.5334C35.4997 52.6472 35.1234 51.7463 34.842 50.8572L34.713 50.4497L31.5486 49.3944V42.2162L34.713 41.1616L34.8412 40.7533C35.1213 39.8651 35.4981 38.9641 35.96 38.0779L36.1574 37.6979L34.6602 34.703L39.7355 29.6277L42.7303 31.1249L43.1104 30.928C43.9974 30.4656 44.8976 30.0893 45.7858 29.8087L46.1941 29.6805L47.2503 26.5153H54.4285L55.483 29.6797L55.8913 29.8079C56.7796 30.088 57.6805 30.4648 58.5668 30.9267L58.9468 31.1241L61.9417 29.6269L67.0169 34.7022L65.5197 37.697L65.7167 38.0771C66.179 38.9641 66.5554 39.8643 66.8359 40.7525L66.9641 41.1608L70.1293 42.217V49.3952L66.9649 50.4497L66.8359 50.8572C66.5546 51.7463 66.1782 52.6472 65.7167 53.5334L65.5197 53.9135L67.0186 56.9104L62.0625 61.9046C62.0199 61.8485 61.9744 61.7932 61.9277 61.7412C62.3303 61.2948 62.5818 60.7104 62.5818 60.0638C62.5818 58.7553 61.5743 57.6901 60.297 57.571C63.855 54.7194 65.9358 50.4403 65.9358 45.8057C65.9358 37.4816 59.163 30.7089 50.839 30.7089C42.5149 30.7089 35.7422 37.4816 35.7422 45.8057C35.7422 50.3842 37.8238 54.6912 41.3572 57.5476H34.1831L36.1681 53.9311L35.9613 53.5334ZM60.9043 66.7735C60.9043 67.2362 60.5276 67.6122 60.0656 67.6122H53.3551C52.8932 67.6122 52.5164 67.2362 52.5164 66.7735C52.5164 66.3107 52.8932 65.9347 53.3551 65.9347H60.0656C60.5276 65.9347 60.9043 66.3107 60.9043 66.7735ZM48.8143 45.8057H52.8637L54.1938 44.4755V40.7734C55.1189 40.7734 55.8712 41.5257 55.8712 42.4508V46.2971L53.0078 49.1605H48.6701L45.8067 46.2971V42.4508C45.8067 41.5257 46.559 40.7734 47.4841 40.7734V44.4755L48.8143 45.8057ZM49.1616 50.8379H52.5164V54.1928H49.1616V50.8379ZM54.1938 50.3465L57.5487 46.9917V42.4508C57.5487 40.6006 56.0441 39.096 54.1938 39.096H52.5164V43.781L52.1691 44.1282H49.5088L49.1616 43.781V39.096H47.4841C45.6339 39.096 44.1293 40.6006 44.1293 42.4508V46.9917L47.4841 50.3465V54.1928H45.4594L45.4066 54.2456C42.5432 52.3978 40.7744 49.2301 40.7744 45.8057C40.7744 40.2558 45.2891 35.7411 50.839 35.7411C56.3889 35.7411 60.9035 40.2558 60.9035 45.8057C60.9035 49.2052 59.2052 52.3184 56.3627 54.1928H54.1938V50.3465ZM62.5809 45.8057C62.5809 39.3306 57.314 34.0637 50.839 34.0637C44.3639 34.0637 39.097 39.3306 39.097 45.8057C39.097 49.6798 41.0243 53.2869 44.1854 55.4668L42.9777 56.6745C39.4947 54.1518 37.4196 50.1143 37.4196 45.8057C37.4196 38.4067 43.4401 32.3863 50.839 32.3863C58.2379 32.3863 64.2584 38.4067 64.2584 45.8057C64.2584 49.9505 62.3848 53.7751 59.186 56.3104C59.0901 55.7158 58.7867 55.1957 58.3505 54.8177C61.0235 52.5985 62.5809 49.3309 62.5809 45.8057V45.8057ZM60.0656 59.2251C60.5276 59.2251 60.9043 59.601 60.9043 60.0638C60.9043 60.5265 60.5276 60.9025 60.0656 60.9025H53.3551C52.8932 60.9025 52.5164 60.5265 52.5164 60.0638C52.5164 59.601 52.8932 59.2251 53.3551 59.2251H60.0656ZM53.3551 64.2573C52.8932 64.2573 52.5164 63.8814 52.5164 63.4186C52.5164 62.9558 52.8932 62.5799 53.3551 62.5799H60.0656C60.5276 62.5799 60.9043 62.9558 60.9043 63.4186C60.9043 63.8814 60.5276 64.2573 60.0656 64.2573H53.3551ZM32.3873 70.967H29.8712V57.5476H32.3873V70.967ZM43.6379 70.967L41.1217 68.4509H34.0648V59.2251H42.7991L46.154 55.8702H56.71C57.1719 55.8702 57.5487 56.2462 57.5487 56.7089C57.5487 57.1717 57.1719 57.5476 56.71 57.5476H47.9756L44.375 61.1482L45.561 62.3342L47.4841 60.411V70.967H43.6379ZM50.839 75.1606C49.9139 75.1606 49.1616 74.4083 49.1616 73.4831V59.2251H50.9934C50.8992 59.4884 50.839 59.7685 50.839 60.0638C50.839 60.7104 51.0912 61.2948 51.493 61.7412C51.0904 62.1876 50.839 62.772 50.839 63.4186C50.839 64.0653 51.0912 64.6496 51.493 65.096C51.0904 65.5424 50.839 66.1268 50.839 66.7735C50.839 67.4201 51.0912 68.0045 51.493 68.4509C51.0904 68.8973 50.839 69.4817 50.839 70.1283C50.839 71.2201 51.5425 72.1428 52.5164 72.49V73.4831C52.5164 74.4083 51.7641 75.1606 50.839 75.1606V75.1606ZM60.0656 70.967H53.3551C52.8932 70.967 52.5164 70.5911 52.5164 70.1283C52.5164 69.6655 52.8932 69.2896 53.3551 69.2896H60.0656C60.5276 69.2896 60.9043 69.6655 60.9043 70.1283C60.9043 70.5911 60.5276 70.967 60.0656 70.967Z" fill="white"/>
<path d="M25.6776 31.5482H27.355V33.2256H25.6776V31.5482Z" fill="white"/>
<path d="M25.6776 35.7427H27.355V37.4201H25.6776V35.7427Z" fill="white"/>
<path d="M25.6776 39.9352H27.355V41.6126H25.6776V39.9352Z" fill="white"/>
<path d="M72.6452 59.225H74.3226V60.9024H72.6452V59.225Z" fill="white"/>
<path d="M72.6452 63.4195H74.3226V65.0969H72.6452V63.4195Z" fill="white"/>
<path d="M72.6452 67.613H74.3226V69.2904H72.6452V67.613Z" fill="white"/>
<path fill-rule="evenodd" clip-rule="evenodd" d="M50.0005 97.9797C23.5021 97.9797 2.02027 76.4979 2.02027 49.9995C2.02027 23.5021 23.5021 2.02027 50.0005 2.02027C76.499 2.02027 97.9797 23.5021 97.9797 49.9995C97.9797 76.4979 76.499 97.9797 50.0005 97.9797ZM50.0005 0C22.3856 0 0 22.3856 0 49.9995C0 77.6144 22.3856 100 50.0005 100C77.6144 100 100 77.6144 100 49.9995C100 22.3856 77.6144 0 50.0005 0Z" fill="#471B4F"/>
</svg>
