<svg width="86" height="86" viewBox="0 0 86 86" fill="none" xmlns="http://www.w3.org/2000/svg">
<path fill-rule="evenodd" clip-rule="evenodd" d="M85 43C85 19.805 65.9723 0.999999 42.4992 0.999998C19.0276 0.999997 -8.2199e-07 19.8049 -1.83588e-06 43C-2.84983e-06 66.1965 19.0276 85 42.4992 85C65.9723 85 85 66.1965 85 43Z" fill="white"/>
<mask id="path-2-inside-1" fill="white">
<path fill-rule="evenodd" clip-rule="evenodd" d="M1.7377 43C1.7377 20.2124 20.2112 1.73914 42.9992 1.73914C65.7887 1.73914 84.2624 20.2124 84.2624 43C84.2624 65.7891 65.7887 84.2608 42.9992 84.2608C20.2112 84.2608 1.7377 65.7891 1.7377 43ZM86 43C86 19.2527 66.7485 -8.41512e-07 42.9992 -1.87962e-06C19.2515 -2.91767e-06 -8.41562e-07 19.2527 -1.87959e-06 43C-2.91768e-06 66.7488 19.2515 86 42.9992 86C66.7485 86 86 66.7488 86 43Z"/>
</mask>
<path fill-rule="evenodd" clip-rule="evenodd" d="M1.7377 43C1.7377 20.2124 20.2112 1.73914 42.9992 1.73914C65.7887 1.73914 84.2624 20.2124 84.2624 43C84.2624 65.7891 65.7887 84.2608 42.9992 84.2608C20.2112 84.2608 1.7377 65.7891 1.7377 43ZM86 43C86 19.2527 66.7485 -8.41512e-07 42.9992 -1.87962e-06C19.2515 -2.91767e-06 -8.41562e-07 19.2527 -1.87959e-06 43C-2.91768e-06 66.7488 19.2515 86 42.9992 86C66.7485 86 86 66.7488 86 43Z" fill="#471B4F"/>
<path d="M3.62005 43C3.62006 21.252 21.2508 3.6215 42.9992 3.6215L42.9992 -0.143209C19.1717 -0.14321 -0.144654 19.1728 -0.144655 43L3.62005 43ZM42.9992 3.6215C64.7492 3.6215 82.38 21.2521 82.38 43L86.1447 43C86.1447 19.1727 66.8282 -0.143208 42.9992 -0.143209L42.9992 3.6215ZM82.38 43C82.38 64.7494 64.7492 82.3785 42.9992 82.3785L42.9992 86.1432C66.8282 86.1432 86.1447 66.8288 86.1447 43L82.38 43ZM42.9992 82.3785C21.2508 82.3785 3.62005 64.7494 3.62005 43L-0.144655 43C-0.144656 66.8287 19.1717 86.1432 42.9992 86.1432L42.9992 82.3785ZM87.8824 43C87.8824 18.2131 67.7881 -1.88235 42.9992 -1.88235L42.9992 1.88235C65.7088 1.88235 84.1176 20.2923 84.1176 43L87.8824 43ZM42.9992 -1.88235C18.2118 -1.88236 -1.88236 18.2131 -1.88236 43L1.88235 43C1.88235 20.2922 20.2911 1.88235 42.9992 1.88235L42.9992 -1.88235ZM-1.88236 43C-1.88236 67.7884 18.2119 87.8824 42.9992 87.8824L42.9992 84.1176C20.2911 84.1176 1.88235 65.7092 1.88235 43L-1.88236 43ZM42.9992 87.8824C67.788 87.8824 87.8824 67.7884 87.8824 43L84.1176 43C84.1176 65.7092 65.7089 84.1176 42.9992 84.1176L42.9992 87.8824Z" fill="#471B4F" mask="url(#path-2-inside-1)"/>
<path d="M42.71 5.76417C63.3783 5.76417 80.1321 22.5153 80.1321 43.1765C80.1321 63.8391 63.3784 80.5889 42.71 80.5889C22.043 80.5889 5.28938 63.8391 5.28938 43.1765C5.28938 22.5153 22.0431 5.76417 42.71 5.76417Z" fill="#471B4F" stroke="#471B4F" stroke-width="1.88235"/>
<path d="M64.1116 51.3764H56.4711V46.1292L64.736 37.8644C64.9025 37.6978 64.9962 37.4718 64.9962 37.2362C64.9962 37.0005 64.9025 36.7745 64.736 36.6079L60.9666 32.8387C60.6197 32.4918 60.0571 32.4919 59.7102 32.8387L56.4711 36.0776V20.8884C56.4711 20.3977 56.0733 20 55.5826 20H22.8884C22.3978 20 22 20.3977 22 20.8884V36.8951C22 37.3858 22.3978 37.7835 22.8884 37.7835C23.3791 37.7835 23.7769 37.3858 23.7769 36.8951V21.7769H54.6942V37.8545L46.858 45.6907H34.8846C34.3939 45.6907 33.9962 46.0885 33.9962 46.5791C33.9962 47.0698 34.3939 47.4676 34.8846 47.4676H45.0811L41.9532 50.5956C41.8745 50.6743 41.8124 50.7663 41.7684 50.8663L39.0432 57.063H29.0093C28.5186 57.063 28.1208 57.4607 28.1208 57.9514C28.1208 58.4421 28.5186 58.8398 29.0093 58.8398H48.8881C49.3788 58.8398 49.7766 58.4421 49.7766 57.9514C49.7766 57.4607 49.3788 57.063 48.8881 57.063H43.8505L46.7079 55.8061C46.8063 55.7629 46.8983 55.7017 46.9788 55.6213L54.6942 47.906V60.3347C54.6942 61.6253 55.1723 62.8057 55.9592 63.7107H27.1529C25.2914 63.7107 23.7769 62.1962 23.7769 60.3347V44.891C23.7769 44.4003 23.3791 44.0025 22.8884 44.0025C22.3978 44.0025 22 44.4003 22 44.891V60.3347C22 63.176 24.3116 65.4876 27.1529 65.4876H59.8471C62.6884 65.4876 65 63.176 65 60.3347V52.2648C65 51.7742 64.6022 51.3764 64.1116 51.3764ZM41.3552 56.2192L42.8717 52.7706L44.8039 54.7028L41.3552 56.2192ZM46.3507 53.7367L45.0943 52.4803L43.8378 51.2238L60.3384 34.7232L62.8513 37.2361L46.3507 53.7367ZM63.2231 60.3347C63.2231 62.1962 61.7086 63.7107 59.8471 63.7107C57.9856 63.7107 56.4711 62.1962 56.4711 60.3347V53.1533H63.2231V60.3347Z" fill="white"/>
<path d="M37.9913 41.7818C42.4003 41.7818 45.9872 38.1948 45.9872 33.7859C45.9872 29.377 42.4003 25.79 37.9913 25.79C33.5824 25.79 29.9955 29.377 29.9955 33.7859C29.9955 38.1948 33.5824 41.7818 37.9913 41.7818ZM37.9913 27.5669C41.4205 27.5669 44.2104 30.3567 44.2104 33.7859C44.2104 37.2151 41.4205 40.0049 37.9913 40.0049C34.5622 40.0049 31.7723 37.2151 31.7723 33.7859C31.7723 30.3567 34.5622 27.5669 37.9913 27.5669Z" fill="white"/>
<path d="M33.7509 39.7113C33.7509 38.3214 34.5848 35.5416 37.9206 35.5416C41.2563 35.5416 42.0902 38.3214 42.0902 39.7113" stroke="white" stroke-width="2"/>
<circle cx="37.9206" cy="31.7508" r="1.51625" stroke="white" stroke-width="2"/>
<path d="M29.009 53.1534H35.2092C35.6999 53.1534 36.0976 52.7557 36.0976 52.265C36.0976 51.7743 35.6999 51.3766 35.2092 51.3766H29.009C28.5184 51.3766 28.1206 51.7743 28.1206 52.265C28.1206 52.7557 28.5184 53.1534 29.009 53.1534Z" fill="white"/>
<path d="M29.009 45.6908C28.5184 45.6908 28.1206 46.0885 28.1206 46.5792C28.1206 47.0699 28.5184 47.4677 29.009 47.4677H29.9092C30.3999 47.4677 30.7976 47.0699 30.7976 46.5792C30.7976 46.0885 30.3999 45.6908 29.9092 45.6908H29.009Z" fill="white"/>
<path d="M22.8884 41.7816C23.1221 41.7816 23.3513 41.6866 23.5165 41.5213C23.6818 41.3561 23.7769 41.1268 23.7769 40.8932C23.7769 40.6595 23.6818 40.4303 23.5165 40.2651C23.3513 40.0998 23.1221 40.0048 22.8884 40.0048C22.6548 40.0048 22.4256 40.0998 22.2603 40.2651C22.0951 40.4303 22 40.6595 22 40.8932C22 41.1268 22.0951 41.3561 22.2603 41.5213C22.4256 41.6866 22.6548 41.7816 22.8884 41.7816Z" fill="white"/>
</svg>
