<svg width="100" height="100" viewBox="0 0 100 100" fill="none" xmlns="http://www.w3.org/2000/svg">
<ellipse cx="50.2325" cy="50.2376" rx="46.0465" ry="45.7385" fill="#471B4F"/>
<path d="M71.7344 42.2812H57.4502C57.4954 41.7802 57.52 41.2728 57.52 40.7598C57.52 31.5184 50.0012 24 40.7598 24C37.8161 24 34.9203 24.7744 32.3857 26.2391C31.9001 26.5196 31.7338 27.1409 32.0143 27.6265C32.2952 28.1125 32.9165 28.2783 33.4021 27.9978C35.6281 26.7112 38.1723 26.0312 40.7598 26.0312C48.8812 26.0312 55.4887 32.6384 55.4887 40.7598C55.4887 48.8812 48.8812 55.4887 40.7598 55.4887C37.3602 55.4887 34.1666 54.3624 31.524 52.232C31.2589 52.0186 30.9078 51.9547 30.5881 52.0527L27.8923 52.7577L28.9484 50.4368C29.1003 50.1035 29.0607 49.7148 28.8452 49.4184C27.0044 46.89 26.0312 43.8959 26.0312 40.7598C26.0312 38.1656 26.7148 35.615 28.0081 33.3842C28.2894 32.8986 28.124 32.2773 27.6388 31.9961C27.1536 31.7148 26.5323 31.8798 26.2506 32.3654C24.7784 34.9053 24 37.8081 24 40.7598C24 44.1276 24.9867 47.3526 26.8592 50.1238L25.1588 53.8598C24.9962 54.2164 25.0537 54.6346 25.306 54.9345C25.5583 55.2344 25.9606 55.3622 26.3399 55.263L30.6591 54.1339C33.5544 56.3211 37.1206 57.52 40.7598 57.52C41.5521 57.52 42.3308 57.4633 43.0938 57.3565V66.25C43.0938 68.6018 45.0072 70.5156 47.359 70.5156H61.7233L68.146 75.7703C68.3308 75.9218 68.559 75.9996 68.7891 75.9996C68.937 75.9996 69.0854 75.9675 69.2239 75.902C69.5786 75.7338 69.8047 75.3767 69.8047 74.984V70.5156H71.7344C74.0866 70.5156 76 68.6018 76 66.25V46.5469C76 44.1947 74.0866 42.2812 71.7344 42.2812V42.2812ZM73.9688 66.25C73.9688 67.4818 72.9666 68.4844 71.7344 68.4844H68.7891C68.2281 68.4844 67.7734 68.939 67.7734 69.5V72.8409L62.7572 68.7367C62.4807 68.4844 62.2387 68.4844 61.6948 68.4844H47.359C46.1271 68.4844 45.125 67.4818 45.125 66.25V56.942C51.1327 55.3197 55.8133 50.4344 57.1395 44.3125H71.7344C72.9666 44.3125 73.9688 45.3146 73.9688 46.5469V66.25Z" fill="white"/>
<path d="M64.6007 59.4051C64.945 59.2428 65.1838 58.8933 65.1838 58.4871C65.1838 57.9265 64.7292 57.4714 64.1682 57.4714H63.7525L60.4771 50.0066C60.3148 49.6372 59.9498 49.3988 59.5467 49.3988C59.1437 49.3988 58.7787 49.6372 58.6168 50.0066L55.3414 57.4714H54.9256C54.3647 57.4714 53.91 57.9265 53.91 58.4871C53.91 58.8933 54.1488 59.2428 54.4932 59.4051L53.2733 62.1854C53.0479 62.6991 53.2816 63.2982 53.795 63.5235C54.3087 63.7489 54.9078 63.5152 55.1331 63.0014L56.6685 59.5027H62.4254L63.9607 63.0014C64.1278 63.3823 64.5003 63.6092 64.8915 63.6092C65.0275 63.6092 65.166 63.5818 65.2989 63.5235C65.8123 63.2982 66.0463 62.6991 65.8206 62.1854L64.6007 59.4051ZM57.5595 57.4714L59.5467 52.9424L61.5339 57.4714H57.5595Z" fill="white"/>
<path d="M29.6267 30.6424C29.8937 30.6424 30.1556 30.5337 30.3448 30.3448C30.5337 30.156 30.6424 29.8942 30.6424 29.6268C30.6424 29.3598 30.5337 29.0979 30.3448 28.9087C30.1556 28.7198 29.8937 28.6111 29.6267 28.6111C29.3586 28.6111 29.0975 28.7198 28.9087 28.9087C28.7198 29.0979 28.6111 29.3598 28.6111 29.6268C28.6111 29.8942 28.7198 30.156 28.9087 30.3448C29.0975 30.5341 29.3593 30.6424 29.6267 30.6424Z" fill="white"/>
<path d="M34.6972 46.9407C34.2053 47.2104 34.0252 47.8278 34.295 48.3197C34.4798 48.6565 34.8278 48.8474 35.1864 48.8474C35.3514 48.8474 35.5189 48.8069 35.674 48.722C37.9389 47.4798 39.6813 45.5478 40.7005 43.2693C41.7201 45.5478 43.4622 47.4798 45.7271 48.722C45.8822 48.8069 46.0496 48.8474 46.2147 48.8474C46.5733 48.8474 46.9212 48.6565 47.1061 48.3197C47.3759 47.8278 47.1958 47.2104 46.7038 46.9407C44.0525 45.4867 42.268 42.8881 41.8249 39.9519H46.3341C46.8951 39.9519 47.3497 39.4973 47.3497 38.9363C47.3497 38.3753 46.8951 37.9207 46.3341 37.9207H41.7162V33.6884C41.7162 33.1274 41.2615 32.6727 40.7005 32.6727C40.1396 32.6727 39.6849 33.1274 39.6849 33.6884V37.9207H36.016C35.455 37.9207 35.0003 38.3753 35.0003 38.9363C35.0003 39.4973 35.455 39.9519 36.016 39.9519H39.5762C39.1331 42.8881 37.3486 45.4871 34.6972 46.9407Z" fill="white"/>
<path fill-rule="evenodd" clip-rule="evenodd" d="M50.0005 97.9797C23.5021 97.9797 2.02027 76.4979 2.02027 49.9995C2.02027 23.5021 23.5021 2.02027 50.0005 2.02027C76.499 2.02027 97.9797 23.5021 97.9797 49.9995C97.9797 76.4979 76.499 97.9797 50.0005 97.9797ZM50.0005 0C22.3856 0 0 22.3856 0 49.9995C0 77.6144 22.3856 100 50.0005 100C77.6144 100 100 77.6144 100 49.9995C100 22.3856 77.6144 0 50.0005 0Z" fill="#471B4F"/>
</svg>
