<svg width="100" height="100" viewBox="0 0 100 100" fill="none" xmlns="http://www.w3.org/2000/svg">
<ellipse cx="50.2325" cy="50.2376" rx="46.0465" ry="45.7385" fill="#471B4F"/>
<path d="M31.8332 29.3335H30.9999C30.5396 29.3335 30.1666 29.7065 30.1666 30.1668C30.1666 30.627 30.5396 31.0002 30.9999 31.0002H31.8332C32.2934 31.0002 32.6665 30.6271 32.6665 30.1669C32.6665 29.7066 32.2934 29.3335 31.8332 29.3335Z" fill="white"/>
<path d="M36 29.3335H35.1667C34.7065 29.3335 34.3334 29.7065 34.3334 30.1668C34.3334 30.627 34.7066 31.0001 35.1667 31.0001H36C36.4603 31.0001 36.8333 30.627 36.8333 30.1668C36.8333 29.7065 36.4603 29.3335 36 29.3335Z" fill="white"/>
<path d="M40.1666 29.3335H39.3333C38.873 29.3335 38.5 29.7065 38.5 30.1668C38.5 30.627 38.873 31.0001 39.3333 31.0001H40.1666C40.6269 31.0001 40.9999 30.627 40.9999 30.1668C40.9999 29.7065 40.6268 29.3335 40.1666 29.3335Z" fill="white"/>
<path d="M65.9999 29.3335H43.4999C43.0396 29.3335 42.6666 29.7065 42.6666 30.1668C42.6666 30.627 43.0396 31.0001 43.4999 31.0001H65.9999C66.4601 31.0001 66.8332 30.627 66.8332 30.1668C66.8332 29.7065 66.4601 29.3335 65.9999 29.3335Z" fill="white"/>
<path d="M74.3333 56H73.5V51.8333C73.4993 49.5 72.6047 47.2556 71 45.5616V30.1667C70.9973 27.8666 69.1334 26.0027 66.8333 26H30.1667C27.8666 26.0027 26.0027 27.8666 26 30.1667V63.5C26.0027 65.8 27.8666 67.6639 30.1667 67.6667H52.6667V70.1667C52.6704 73.3868 55.2799 75.9964 58.5 76H70.1667C73.3868 75.9963 75.9964 73.3868 76 70.1667V57.6667C76 56.7462 75.2538 56 74.3333 56ZM71.8333 51.8333V56H56.8333V51.8333C56.8333 47.6912 60.1912 44.3333 64.3333 44.3333C68.4754 44.3333 71.8333 47.6912 71.8333 51.8333ZM27.6667 30.1667C27.6667 28.786 28.786 27.6667 30.1667 27.6667H66.8334C68.2141 27.6667 69.3334 28.786 69.3334 30.1667V32.6667H27.6667V30.1667ZM52.6667 57.6667V66H30.1667C28.786 66 27.6667 64.8807 27.6667 63.5V34.3333H69.3334V44.16C66.5181 42.3184 62.9195 42.1691 59.9614 43.7714C57.0033 45.3736 55.1623 48.4691 55.1667 51.8333V56H54.3334C53.4129 56 52.6667 56.7462 52.6667 57.6667ZM74.3333 59.3333H71.8333C71.373 59.3333 71 59.7063 71 60.1666C71 60.6269 71.373 60.9999 71.8333 60.9999H74.3333V62.6666H71.8333C71.373 62.6666 71 63.0396 71 63.4999C71 63.9602 71.373 64.3332 71.8333 64.3332H74.3333V66H71.8333C71.373 66 71 66.373 71 66.8333C71 67.2936 71.373 67.6666 71.8333 67.6666H74.3333V69.3333H71.8333C71.373 69.3333 71 69.7064 71 70.1666C71 70.6269 71.373 70.9999 71.8333 70.9999H74.25C73.8513 72.9386 72.1459 74.3308 70.1667 74.3332H58.5C56.5208 74.3307 54.8153 72.9386 54.4167 70.9999H56.8334C57.2937 70.9999 57.6667 70.6268 57.6667 70.1666C57.6667 69.7063 57.2937 69.3333 56.8334 69.3333H54.3334V67.6666H56.8334C57.2937 67.6666 57.6667 67.2936 57.6667 66.8333C57.6667 66.373 57.2937 66 56.8334 66H54.3334V64.3333H56.8334C57.2937 64.3333 57.6667 63.9603 57.6667 63.5C57.6667 63.0397 57.2937 62.6667 56.8334 62.6667H54.3334V61H56.8334C57.2937 61 57.6667 60.627 57.6667 60.1667C57.6667 59.7064 57.2937 59.3334 56.8334 59.3334H54.3334V57.6667H74.3334V59.3333H74.3333Z" fill="white"/>
<path d="M63.5 66.68V68.5C63.5 68.9602 63.8731 69.3333 64.3333 69.3333C64.7936 69.3333 65.1666 68.9602 65.1666 68.5V66.68C66.3138 66.276 67.0022 65.1034 66.7961 63.9048C66.59 62.7061 65.5495 61.8309 64.3333 61.8333C63.1171 61.8309 62.0766 62.7062 61.8705 63.9048C61.6645 65.1034 62.3528 66.276 63.5 66.68ZM64.3333 63.5C64.7936 63.5 65.1666 63.8731 65.1666 64.3333C65.1666 64.7935 64.7935 65.1666 64.3333 65.1666C63.873 65.1666 63.5 64.7934 63.5 64.3333C63.5 63.8731 63.8731 63.5 64.3333 63.5Z" fill="white"/>
<path d="M40.1667 42.6671C39.7064 42.6671 39.3334 43.0402 39.3334 43.5004V46.0004H32.6667V39.3337H36C36.4602 39.3337 36.8333 38.9607 36.8333 38.5004C36.8333 38.0402 36.4602 37.6671 36 37.6671H32.6667C31.7461 37.6671 31 38.4133 31 39.3338V46.0004C31 46.9209 31.7461 47.6671 32.6667 47.6671H39.3334C40.2539 47.6671 41.0001 46.9209 41.0001 46.0004V43.5004C41 43.0402 40.6268 42.6671 40.1667 42.6671Z" fill="white"/>
<path d="M34.9224 41.2442C34.5954 40.9284 34.0756 40.9328 33.7542 41.2543C33.4328 41.5758 33.4283 42.0955 33.7441 42.4225L35.4108 44.0892C35.567 44.2454 35.7789 44.3333 35.9999 44.3333H36.0374C36.2712 44.3229 36.4899 44.2147 36.64 44.035L40.8067 39.035C40.9975 38.8064 41.0519 38.4933 40.9493 38.2136C40.8466 37.934 40.6027 37.7304 40.3092 37.6794C40.0158 37.6285 39.7174 37.7379 39.5266 37.9666L35.9433 42.2666L34.9224 41.2442Z" fill="white"/>
<path d="M40.1667 56.8337C39.7064 56.8337 39.3334 57.2068 39.3334 57.667V60.167H32.6667V53.5004H36C36.4602 53.5004 36.8333 53.1273 36.8333 52.6671C36.8333 52.2069 36.4602 51.8338 36 51.8338H32.6667C31.7461 51.8338 31 52.58 31 53.5005V60.1672C31 61.0877 31.7461 61.8339 32.6667 61.8339H39.3334C40.2539 61.8339 41.0001 61.0877 41.0001 60.1672V57.6672C41 57.2069 40.6268 56.8337 40.1667 56.8337Z" fill="white"/>
<path d="M34.9224 55.4108C34.5954 55.095 34.0756 55.0995 33.7542 55.421C33.4328 55.7424 33.4283 56.2622 33.7441 56.5891L35.4108 58.2558C35.567 58.4121 35.7789 58.5 35.9999 58.5H36.0374C36.2712 58.4895 36.4899 58.3813 36.64 58.2016L40.8067 53.2016C40.9975 52.973 41.0519 52.6599 40.9493 52.3803C40.8466 52.1007 40.6027 51.8971 40.3092 51.8461C40.0158 51.7952 39.7174 51.9046 39.5266 52.1334L35.9433 56.4334L34.9224 55.4108Z" fill="white"/>
<path d="M44.3333 40.1667H51C51.4602 40.1667 51.8333 39.7937 51.8333 39.3334C51.8333 38.8731 51.4602 38.5 51 38.5H44.3333C43.873 38.5 43.5 38.873 43.5 39.3333C43.5 39.7936 43.8731 40.1667 44.3333 40.1667Z" fill="white"/>
<path d="M56 43.4997C56 43.0394 55.6269 42.6664 55.1667 42.6664H44.3333C43.873 42.6664 43.5 43.0394 43.5 43.4997C43.5 43.9599 43.873 44.333 44.3333 44.333H55.1666C55.6269 44.333 56 43.9599 56 43.4997Z" fill="white"/>
<path d="M51 52.6667H44.3333C43.873 52.6667 43.5 53.0399 43.5 53.5C43.5 53.9602 43.873 54.3333 44.3333 54.3333H51C51.4602 54.3333 51.8333 53.9603 51.8333 53.5C51.8333 53.0398 51.4602 52.6667 51 52.6667Z" fill="white"/>
<path d="M50.1668 56.8331H44.3335C43.8732 56.8331 43.5002 57.2061 43.5002 57.6664C43.5002 58.1266 43.8732 58.4997 44.3335 58.4997H50.1668C50.627 58.4997 51.0001 58.1266 51.0001 57.6664C51.0001 57.2061 50.627 56.8331 50.1668 56.8331Z" fill="white"/>
<path fill-rule="evenodd" clip-rule="evenodd" d="M50.0005 97.9797C23.5021 97.9797 2.02027 76.4979 2.02027 49.9995C2.02027 23.5021 23.5021 2.02027 50.0005 2.02027C76.499 2.02027 97.9797 23.5021 97.9797 49.9995C97.9797 76.4979 76.499 97.9797 50.0005 97.9797ZM50.0005 0C22.3856 0 0 22.3856 0 49.9995C0 77.6144 22.3856 100 50.0005 100C77.6144 100 100 77.6144 100 49.9995C100 22.3856 77.6144 0 50.0005 0Z" fill="#471B4F"/>
</svg>
