<svg width="86" height="86" viewBox="0 0 86 86" fill="none" xmlns="http://www.w3.org/2000/svg">
<path fill-rule="evenodd" clip-rule="evenodd" d="M85 43C85 19.805 65.9723 0.999999 42.4992 0.999998C19.0276 0.999997 -8.2199e-07 19.8049 -1.83588e-06 43C-2.84983e-06 66.1965 19.0276 85 42.4992 85C65.9723 85 85 66.1965 85 43Z" fill="white"/>
<mask id="path-2-inside-1" fill="white">
<path fill-rule="evenodd" clip-rule="evenodd" d="M1.7377 43C1.7377 20.2124 20.2112 1.73914 42.9992 1.73914C65.7887 1.73914 84.2624 20.2124 84.2624 43C84.2624 65.7891 65.7887 84.2608 42.9992 84.2608C20.2112 84.2608 1.7377 65.7891 1.7377 43ZM86 43C86 19.2527 66.7485 -8.41512e-07 42.9992 -1.87962e-06C19.2515 -2.91767e-06 -8.41562e-07 19.2527 -1.87959e-06 43C-2.91768e-06 66.7488 19.2515 86 42.9992 86C66.7485 86 86 66.7488 86 43Z"/>
</mask>
<path fill-rule="evenodd" clip-rule="evenodd" d="M1.7377 43C1.7377 20.2124 20.2112 1.73914 42.9992 1.73914C65.7887 1.73914 84.2624 20.2124 84.2624 43C84.2624 65.7891 65.7887 84.2608 42.9992 84.2608C20.2112 84.2608 1.7377 65.7891 1.7377 43ZM86 43C86 19.2527 66.7485 -8.41512e-07 42.9992 -1.87962e-06C19.2515 -2.91767e-06 -8.41562e-07 19.2527 -1.87959e-06 43C-2.91768e-06 66.7488 19.2515 86 42.9992 86C66.7485 86 86 66.7488 86 43Z" fill="#471B4F"/>
<path d="M3.62005 43C3.62006 21.252 21.2508 3.6215 42.9992 3.6215L42.9992 -0.143209C19.1717 -0.14321 -0.144654 19.1728 -0.144655 43L3.62005 43ZM42.9992 3.6215C64.7492 3.6215 82.38 21.2521 82.38 43L86.1447 43C86.1447 19.1727 66.8282 -0.143208 42.9992 -0.143209L42.9992 3.6215ZM82.38 43C82.38 64.7494 64.7492 82.3785 42.9992 82.3785L42.9992 86.1432C66.8282 86.1432 86.1447 66.8288 86.1447 43L82.38 43ZM42.9992 82.3785C21.2508 82.3785 3.62005 64.7494 3.62005 43L-0.144655 43C-0.144656 66.8287 19.1717 86.1432 42.9992 86.1432L42.9992 82.3785ZM87.8824 43C87.8824 18.2131 67.7881 -1.88235 42.9992 -1.88235L42.9992 1.88235C65.7088 1.88235 84.1176 20.2923 84.1176 43L87.8824 43ZM42.9992 -1.88235C18.2118 -1.88236 -1.88236 18.2131 -1.88236 43L1.88235 43C1.88235 20.2922 20.2911 1.88235 42.9992 1.88235L42.9992 -1.88235ZM-1.88236 43C-1.88236 67.7884 18.2119 87.8824 42.9992 87.8824L42.9992 84.1176C20.2911 84.1176 1.88235 65.7092 1.88235 43L-1.88236 43ZM42.9992 87.8824C67.788 87.8824 87.8824 67.7884 87.8824 43L84.1176 43C84.1176 65.7092 65.7089 84.1176 42.9992 84.1176L42.9992 87.8824Z" fill="#471B4F" mask="url(#path-2-inside-1)"/>
<path d="M42.71 5.76417C63.3783 5.76417 80.1321 22.5153 80.1321 43.1765C80.1321 63.8391 63.3784 80.5889 42.71 80.5889C22.043 80.5889 5.28938 63.8391 5.28938 43.1765C5.28938 22.5153 22.0431 5.76417 42.71 5.76417Z" fill="#471B4F" stroke="#471B4F" stroke-width="1.88235"/>
<path d="M63.3408 50.7803L58.75 46.1894V21H36.6895L27.25 30.4395V46.1894L22.6592 50.7803C22.2359 51.201 21.9982 51.7738 22 52.3711V66H23.5V52.3711C23.5 52.1722 23.5791 51.9814 23.7197 51.8408L27.25 48.3105V50.9443L24.5972 53.5972L25.6577 54.6577L29.6802 50.6356L30.2112 51.1674C30.5038 51.46 30.5038 51.9349 30.2112 52.2279L28.4329 54.0059C28.015 54.4241 27.7839 54.9935 27.7924 55.5846C27.8004 56.1757 28.0472 56.7382 28.4764 57.1446L28.4981 57.1652C29.3378 57.9694 29.4209 59.283 28.6892 60.1868L27.4144 61.7812L28.5859 62.7187L29.8607 61.1235C30.1262 60.7866 30.3306 60.4058 30.4653 59.9985H32.5509C32.5114 60.0593 32.4843 60.126 32.4385 60.1831L31 61.9867V66H32.5V62.5133L33.6093 61.125C33.8788 60.7888 34.0872 60.408 34.2249 60H51.7751C51.9121 60.4061 52.1194 60.7855 52.3871 61.1206L53.5 62.5133V66H55V61.9867L53.5593 60.1831C53.5143 60.1267 53.4843 60.0601 53.4476 60H55.5339C55.6683 60.4072 55.873 60.7881 56.1385 61.125L57.4133 62.7195L58.5848 61.782L57.3101 60.1882C56.582 59.2881 56.6608 57.9811 57.4913 57.1747L57.5228 57.1454C57.952 56.7389 58.1988 56.1764 58.2069 55.5853C58.2153 54.9943 57.9842 54.4248 57.5664 54.0066L55.7881 52.2286C55.4955 51.9357 55.4955 51.4607 55.7881 51.1681L56.3202 50.6363L60.3423 54.6584L61.4028 53.5979L58.75 50.9443V48.3105L62.2803 51.8408C62.4209 51.9814 62.5 52.1722 62.5 52.3711V66H64V52.3711C64.0015 51.7742 63.7642 51.2014 63.3408 50.7803ZM36.25 23.5605V30H29.8106L36.25 23.5605ZM55.2596 49.5751L54.7272 50.1068C53.8486 50.9853 53.8486 52.4095 54.7272 53.2881L56.5051 55.0664C56.7728 55.3363 56.7728 55.7717 56.5051 56.0416L56.4842 56.0603C55.8123 56.7026 55.4036 57.5724 55.3376 58.5H30.6624C30.5961 57.5709 30.1856 56.6997 29.5114 56.0574L29.4949 56.0431C29.2272 55.7732 29.2272 55.3378 29.4949 55.0679L31.2728 53.2899C32.1514 52.411 32.1514 50.9868 31.2728 50.1083L30.7404 49.5758C30.2002 49.0404 29.3447 48.9946 28.75 49.4685V31.5H37.75V22.5H57.25V49.4685C56.6553 48.9943 55.8002 49.04 55.2596 49.5751Z" fill="white"/>
<path d="M40.7499 27.0002H42.2499V28.5002H40.7499V27.0002Z" fill="white"/>
<path d="M43.7498 27.0002H54.2498V28.5002H43.7498V27.0002Z" fill="white"/>
<path d="M40.7499 30.0002H42.2499V31.5002H40.7499V30.0002Z" fill="white"/>
<path d="M43.7498 30.0002H54.2498V31.5002H43.7498V30.0002Z" fill="white"/>
<path d="M42.2499 51.0005H51.2499V52.5005H42.2499V51.0005Z" fill="white"/>
<path d="M42.2499 54.0002H51.2499V55.5002H42.2499V54.0002Z" fill="white"/>
<path d="M31.7502 42.0002H54.2502V33.0002H31.7502V42.0002ZM33.2502 34.5002H52.7502V40.5002H33.2502V34.5002Z" fill="white"/>
<path d="M31.7502 45.0002H33.2502V46.5002H31.7502V45.0002Z" fill="white"/>
<path d="M34.7501 45.0002H54.2501V46.5002H34.7501V45.0002Z" fill="white"/>
<path d="M31.7502 48.0005H33.2502V49.5005H31.7502V48.0005Z" fill="white"/>
<path d="M34.7501 48.0005H54.2501V49.5005H34.7501V48.0005Z" fill="white"/>
</svg>
