<svg width="86" height="86" viewBox="0 0 86 86" fill="none" xmlns="http://www.w3.org/2000/svg">
<path fill-rule="evenodd" clip-rule="evenodd" d="M85 43C85 19.805 65.9723 0.999999 42.4992 0.999998C19.0276 0.999997 -8.2199e-07 19.8049 -1.83588e-06 43C-2.84983e-06 66.1965 19.0276 85 42.4992 85C65.9723 85 85 66.1965 85 43Z" fill="white"/>
<mask id="path-2-inside-1" fill="white">
<path fill-rule="evenodd" clip-rule="evenodd" d="M1.7377 43C1.7377 20.2124 20.2112 1.73914 42.9992 1.73914C65.7887 1.73914 84.2624 20.2124 84.2624 43C84.2624 65.7891 65.7887 84.2608 42.9992 84.2608C20.2112 84.2608 1.7377 65.7891 1.7377 43ZM86 43C86 19.2527 66.7485 -8.41512e-07 42.9992 -1.87962e-06C19.2515 -2.91767e-06 -8.41562e-07 19.2527 -1.87959e-06 43C-2.91768e-06 66.7488 19.2515 86 42.9992 86C66.7485 86 86 66.7488 86 43Z"/>
</mask>
<path fill-rule="evenodd" clip-rule="evenodd" d="M1.7377 43C1.7377 20.2124 20.2112 1.73914 42.9992 1.73914C65.7887 1.73914 84.2624 20.2124 84.2624 43C84.2624 65.7891 65.7887 84.2608 42.9992 84.2608C20.2112 84.2608 1.7377 65.7891 1.7377 43ZM86 43C86 19.2527 66.7485 -8.41512e-07 42.9992 -1.87962e-06C19.2515 -2.91767e-06 -8.41562e-07 19.2527 -1.87959e-06 43C-2.91768e-06 66.7488 19.2515 86 42.9992 86C66.7485 86 86 66.7488 86 43Z" fill="#471B4F"/>
<path d="M3.62005 43C3.62006 21.252 21.2508 3.6215 42.9992 3.6215L42.9992 -0.143209C19.1717 -0.14321 -0.144654 19.1728 -0.144655 43L3.62005 43ZM42.9992 3.6215C64.7492 3.6215 82.38 21.2521 82.38 43L86.1447 43C86.1447 19.1727 66.8282 -0.143208 42.9992 -0.143209L42.9992 3.6215ZM82.38 43C82.38 64.7494 64.7492 82.3785 42.9992 82.3785L42.9992 86.1432C66.8282 86.1432 86.1447 66.8288 86.1447 43L82.38 43ZM42.9992 82.3785C21.2508 82.3785 3.62005 64.7494 3.62005 43L-0.144655 43C-0.144656 66.8287 19.1717 86.1432 42.9992 86.1432L42.9992 82.3785ZM87.8824 43C87.8824 18.2131 67.7881 -1.88235 42.9992 -1.88235L42.9992 1.88235C65.7088 1.88235 84.1176 20.2923 84.1176 43L87.8824 43ZM42.9992 -1.88235C18.2118 -1.88236 -1.88236 18.2131 -1.88236 43L1.88235 43C1.88235 20.2922 20.2911 1.88235 42.9992 1.88235L42.9992 -1.88235ZM-1.88236 43C-1.88236 67.7884 18.2119 87.8824 42.9992 87.8824L42.9992 84.1176C20.2911 84.1176 1.88235 65.7092 1.88235 43L-1.88236 43ZM42.9992 87.8824C67.788 87.8824 87.8824 67.7884 87.8824 43L84.1176 43C84.1176 65.7092 65.7089 84.1176 42.9992 84.1176L42.9992 87.8824Z" fill="#471B4F" mask="url(#path-2-inside-1)"/>
<path d="M42.71 5.76417C63.3783 5.76417 80.1321 22.5153 80.1321 43.1765C80.1321 63.8391 63.3784 80.5889 42.71 80.5889C22.043 80.5889 5.28938 63.8391 5.28938 43.1765C5.28938 22.5153 22.0431 5.76417 42.71 5.76417Z" fill="#471B4F" stroke="#471B4F" stroke-width="1.88235"/>
<path d="M26.8996 24.7998H26.1996C25.813 24.7998 25.4996 25.1132 25.4996 25.4998C25.4996 25.8864 25.813 26.1998 26.1996 26.1998H26.8996C27.2862 26.1998 27.5996 25.8865 27.5996 25.4999C27.5996 25.1132 27.2862 24.7998 26.8996 24.7998Z" fill="white"/>
<path d="M30.3997 24.7998H29.6997C29.3131 24.7998 28.9998 25.1132 28.9998 25.4998C28.9998 25.8864 29.3132 26.1998 29.6997 26.1998H30.3997C30.7863 26.1998 31.0997 25.8864 31.0997 25.4998C31.0997 25.1132 30.7863 24.7998 30.3997 24.7998Z" fill="white"/>
<path d="M33.8995 24.7998H33.1995C32.8129 24.7998 32.4995 25.1132 32.4995 25.4998C32.4995 25.8864 32.8129 26.1998 33.1995 26.1998H33.8995C34.2861 26.1998 34.5994 25.8864 34.5994 25.4998C34.5994 25.1132 34.286 24.7998 33.8995 24.7998Z" fill="white"/>
<path d="M55.6 24.7998H36.7C36.3134 24.7998 36 25.1132 36 25.4998C36 25.8864 36.3134 26.1998 36.7 26.1998H55.6C55.9866 26.1998 56.2999 25.8864 56.2999 25.4998C56.2999 25.1132 55.9866 24.7998 55.6 24.7998Z" fill="white"/>
<path d="M62.6 47.2H61.9V43.7C61.8994 41.74 61.1479 39.8547 59.8 38.4318V25.5C59.7977 23.5679 58.2321 22.0023 56.3 22H25.5C23.5679 22.0023 22.0023 23.5679 22 25.5V53.5C22.0023 55.432 23.5679 56.9976 25.5 57H44.4V59.1C44.4031 61.8049 46.5951 63.997 49.3 64H59.1C61.8049 63.9969 63.997 61.8049 64 59.1V48.6C64 47.8268 63.3732 47.2 62.6 47.2ZM60.5 43.7V47.2H47.9V43.7C47.9 40.2206 50.7206 37.4 54.2 37.4C57.6793 37.4 60.5 40.2206 60.5 43.7ZM23.4 25.5C23.4 24.3403 24.3403 23.4 25.5 23.4H56.3001C57.4598 23.4 58.4001 24.3403 58.4001 25.5V27.6H23.4V25.5ZM44.4 48.6V55.6H25.5C24.3403 55.6 23.4 54.6598 23.4 53.5V29H58.4001V37.2544C56.0352 35.7074 53.0124 35.5821 50.5276 36.928C48.0428 38.2739 46.4963 40.8741 46.5 43.7V47.2H45.8001C45.0268 47.2 44.4 47.8268 44.4 48.6ZM62.6 50H60.5C60.1134 50 59.8 50.3133 59.8 50.6999C59.8 51.0866 60.1134 51.3999 60.5 51.3999H62.6V52.7999H60.5C60.1134 52.7999 59.8 53.1133 59.8 53.4999C59.8 53.8865 60.1134 54.1999 60.5 54.1999H62.6V55.6H60.5C60.1134 55.6 59.8 55.9134 59.8 56.3C59.8 56.6866 60.1134 56.9999 60.5 56.9999H62.6V58.4H60.5C60.1134 58.4 59.8 58.7134 59.8 59.0999C59.8 59.4866 60.1134 59.7999 60.5 59.7999H62.53C62.1951 61.4284 60.7626 62.5978 59.1 62.5999H49.3C47.6375 62.5978 46.2049 61.4284 45.87 59.7999H47.9001C48.2867 59.7999 48.6 59.4865 48.6 59.0999C48.6 58.7133 48.2867 58.4 47.9001 58.4H45.8001V56.9999H47.9001C48.2867 56.9999 48.6 56.6866 48.6 56.3C48.6 55.9134 48.2867 55.6 47.9001 55.6H45.8001V54.2H47.9001C48.2867 54.2 48.6 53.8866 48.6 53.5C48.6 53.1134 48.2867 52.8 47.9001 52.8H45.8001V51.4H47.9001C48.2867 51.4 48.6 51.0866 48.6 50.7C48.6 50.3134 48.2867 50.0001 47.9001 50.0001H45.8001V48.6H62.6001V50H62.6Z" fill="white"/>
<path d="M53.5 56.1706V57.6994C53.5 58.086 53.8134 58.3994 54.1999 58.3994C54.5866 58.3994 54.8999 58.086 54.8999 57.6994V56.1706C55.8635 55.8312 56.4418 54.8463 56.2687 53.8394C56.0956 52.8326 55.2216 52.0974 54.1999 52.0994C53.1783 52.0974 52.3043 52.8326 52.1312 53.8394C51.9581 54.8463 52.5364 55.8312 53.5 56.1706ZM54.1999 53.4994C54.5866 53.4994 54.8999 53.8128 54.8999 54.1994C54.8999 54.586 54.5865 54.8993 54.1999 54.8993C53.8133 54.8993 53.5 54.5859 53.5 54.1994C53.5 53.8128 53.8134 53.4994 54.1999 53.4994Z" fill="white"/>
<path d="M33.8996 36.0001C33.513 36.0001 33.1996 36.3134 33.1996 36.7V38.8H27.5996V33.2H30.3996C30.7862 33.2 31.0996 32.8866 31.0996 32.5C31.0996 32.1134 30.7862 31.8 30.3996 31.8H27.5996C26.8264 31.8 26.1996 32.4268 26.1996 33.2001V38.8C26.1996 39.5733 26.8264 40.2001 27.5996 40.2001H33.1996C33.9729 40.2001 34.5997 39.5733 34.5997 38.8V36.7C34.5996 36.3134 34.2861 36.0001 33.8996 36.0001Z" fill="white"/>
<path d="M29.4949 34.8048C29.2203 34.5395 28.7836 34.5433 28.5136 34.8133C28.2436 35.0834 28.2398 35.5199 28.5051 35.7946L29.9051 37.1946C30.0364 37.3258 30.2144 37.3997 30.4 37.3997H30.4315C30.6279 37.3909 30.8116 37.3 30.9377 37.1491L34.4377 32.9491C34.598 32.757 34.6437 32.494 34.5575 32.2591C34.4712 32.0243 34.2663 31.8532 34.0198 31.8104C33.7733 31.7676 33.5227 31.8595 33.3624 32.0516L30.3524 35.6636L29.4949 34.8048Z" fill="white"/>
<path d="M33.8996 47.9001C33.513 47.9001 33.1996 48.2135 33.1996 48.6001V50.7001H27.5996V45.1001H30.3996C30.7862 45.1001 31.0996 44.7867 31.0996 44.4002C31.0996 44.0136 30.7862 43.7002 30.3996 43.7002H27.5996C26.8264 43.7002 26.1996 44.327 26.1996 45.1002V50.7003C26.1996 51.4735 26.8264 52.1003 27.5996 52.1003H33.1996C33.9729 52.1003 34.5997 51.4735 34.5997 50.7003V48.6002C34.5996 48.2136 34.2861 47.9001 33.8996 47.9001Z" fill="white"/>
<path d="M29.4949 46.7048C29.2203 46.4396 28.7836 46.4433 28.5136 46.7134C28.2436 46.9834 28.2398 47.42 28.5051 47.6946L29.9051 49.0947C30.0364 49.2259 30.2144 49.2997 30.4 49.2997H30.4315C30.6279 49.291 30.8116 49.2001 30.9377 49.0491L34.4377 44.8491C34.598 44.6571 34.6437 44.3941 34.5575 44.1593C34.4712 43.9244 34.2663 43.7534 34.0198 43.7105C33.7733 43.6677 33.5227 43.7597 33.3624 43.9518L30.3524 47.5638L29.4949 46.7048Z" fill="white"/>
<path d="M37.3998 33.8998H42.9998C43.3864 33.8998 43.6998 33.5864 43.6998 33.1998C43.6998 32.8132 43.3864 32.4998 42.9998 32.4998H37.3998C37.0132 32.4998 36.6998 32.8131 36.6998 33.1997C36.6998 33.5863 37.0133 33.8998 37.3998 33.8998Z" fill="white"/>
<path d="M47.1998 36.6995C47.1998 36.3129 46.8865 35.9995 46.4999 35.9995H37.3998C37.0132 35.9995 36.6998 36.3129 36.6998 36.6995C36.6998 37.0861 37.0132 37.3995 37.3998 37.3995H46.4998C46.8865 37.3995 47.1998 37.0861 47.1998 36.6995Z" fill="white"/>
<path d="M42.9998 44.3999H37.3998C37.0132 44.3999 36.6998 44.7133 36.6998 45.0999C36.6998 45.4864 37.0132 45.7998 37.3998 45.7998H42.9998C43.3864 45.7998 43.6998 45.4865 43.6998 45.0999C43.6998 44.7133 43.3864 44.3999 42.9998 44.3999Z" fill="white"/>
<path d="M42.3 47.8997H37.4C37.0134 47.8997 36.7001 48.213 36.7001 48.5996C36.7001 48.9862 37.0134 49.2996 37.4 49.2996H42.3C42.6866 49.2996 43 48.9862 43 48.5996C43 48.213 42.6866 47.8997 42.3 47.8997Z" fill="white"/>
</svg>
