<svg width="86" height="86" viewBox="0 0 86 86" fill="none" xmlns="http://www.w3.org/2000/svg">
<mask id="path-1-inside-1" fill="white">
<path fill-rule="evenodd" clip-rule="evenodd" d="M1.7377 43C1.7377 20.2124 20.2112 1.73914 42.9992 1.73914C65.7887 1.73914 84.2624 20.2124 84.2624 43C84.2624 65.7891 65.7887 84.2608 42.9992 84.2608C20.2112 84.2608 1.7377 65.7891 1.7377 43ZM86 43C86 19.2527 66.7485 -8.41512e-07 42.9992 -1.87962e-06C19.2515 -2.91767e-06 -8.41562e-07 19.2527 -1.87959e-06 43C-2.91768e-06 66.7488 19.2515 86 42.9992 86C66.7485 86 86 66.7488 86 43Z"/>
</mask>
<path fill-rule="evenodd" clip-rule="evenodd" d="M1.7377 43C1.7377 20.2124 20.2112 1.73914 42.9992 1.73914C65.7887 1.73914 84.2624 20.2124 84.2624 43C84.2624 65.7891 65.7887 84.2608 42.9992 84.2608C20.2112 84.2608 1.7377 65.7891 1.7377 43ZM86 43C86 19.2527 66.7485 -8.41512e-07 42.9992 -1.87962e-06C19.2515 -2.91767e-06 -8.41562e-07 19.2527 -1.87959e-06 43C-2.91768e-06 66.7488 19.2515 86 42.9992 86C66.7485 86 86 66.7488 86 43Z" fill="#471B4F"/>
<path d="M3.62005 43C3.62006 21.252 21.2508 3.6215 42.9992 3.6215L42.9992 -0.143209C19.1717 -0.14321 -0.144654 19.1728 -0.144655 43L3.62005 43ZM42.9992 3.6215C64.7492 3.6215 82.38 21.2521 82.38 43L86.1447 43C86.1447 19.1727 66.8282 -0.143208 42.9992 -0.143209L42.9992 3.6215ZM82.38 43C82.38 64.7494 64.7492 82.3785 42.9992 82.3785L42.9992 86.1432C66.8282 86.1432 86.1447 66.8288 86.1447 43L82.38 43ZM42.9992 82.3785C21.2508 82.3785 3.62005 64.7494 3.62005 43L-0.144655 43C-0.144656 66.8287 19.1717 86.1432 42.9992 86.1432L42.9992 82.3785ZM87.8824 43C87.8824 18.2131 67.7881 -1.88235 42.9992 -1.88235L42.9992 1.88235C65.7088 1.88235 84.1176 20.2923 84.1176 43L87.8824 43ZM42.9992 -1.88235C18.2118 -1.88236 -1.88236 18.2131 -1.88236 43L1.88235 43C1.88235 20.2922 20.2911 1.88235 42.9992 1.88235L42.9992 -1.88235ZM-1.88236 43C-1.88236 67.7884 18.2119 87.8824 42.9992 87.8824L42.9992 84.1176C20.2911 84.1176 1.88235 65.7092 1.88235 43L-1.88236 43ZM42.9992 87.8824C67.788 87.8824 87.8824 67.7884 87.8824 43L84.1176 43C84.1176 65.7092 65.7089 84.1176 42.9992 84.1176L42.9992 87.8824Z" fill="#471B4F" mask="url(#path-1-inside-1)"/>
<path d="M42.71 5.76429C63.3783 5.7643 80.1321 22.5154 80.1321 43.1767C80.1321 63.8392 63.3784 80.589 42.71 80.589C22.043 80.589 5.28938 63.8392 5.28938 43.1767C5.28938 22.5154 22.0431 5.76429 42.71 5.76429Z" fill="#471B4F" stroke="#471B4F" stroke-width="1.88235"/>
<path d="M24.8 63.9998H58.4001C59.9464 63.9998 61.2001 62.7462 61.2001 61.1998V59.0998C61.2001 58.7131 60.8868 58.3998 60.5001 58.3998H59.1001V47.1998H57.7001V58.3998H56.3001V47.1998H54.9001V58.3998H45.9652C45.2199 58.3972 44.5379 58.8187 44.2071 59.487C44.1117 59.6797 43.9149 59.8016 43.7 59.7998H39.6652C39.4506 59.8011 39.2539 59.6795 39.1592 59.487C38.828 58.8187 38.146 58.3972 37.4 58.3998H28.3V40.8998C28.3 40.513 28.6133 40.1998 29 40.1998H41.6V38.7998H29C27.8404 38.7998 26.9 39.7402 26.9 40.8998V58.3998H25.5V39.4998C25.5 38.3402 26.4404 37.3998 27.6 37.3998H41.6V35.9998H27.6C25.668 36.0022 24.1024 37.5678 24.1 39.4998V58.3998H22.7C22.3133 58.3998 22 58.7131 22 59.0998V61.1998C22 62.7462 23.2537 63.9998 24.8 63.9998ZM23.4 59.7998H37.4C37.6146 59.7987 37.8113 59.9199 37.9071 60.1117C38.2374 60.7802 38.9199 61.2024 39.6652 61.1998H43.7C44.446 61.2024 45.1285 60.7802 45.4592 60.1117C45.554 59.9197 45.7508 59.7985 45.9652 59.7998H59.8001V61.1998C59.8001 61.9731 59.1734 62.5998 58.4001 62.5998H24.8C24.0267 62.5998 23.4 61.9731 23.4 61.1998V59.7998Z" fill="white"/>
<path d="M31.1 47.8996V53.4996C31.1 53.8863 31.4132 54.1996 31.8 54.1996H51.4C51.7868 54.1996 52.1 53.8863 52.1 53.4996V47.8996C52.1 47.5128 51.7868 47.1996 51.4 47.1996H31.8C31.4132 47.1996 31.1 47.5128 31.1 47.8996ZM32.5 48.5996H50.7V52.7996H32.5V48.5996Z" fill="white"/>
<path d="M33.8999 49.9996H35.2999V51.3996H33.8999V49.9996Z" fill="white"/>
<path d="M36.7 49.9996H38.1V51.3996H36.7V49.9996Z" fill="white"/>
<path d="M39.5001 49.9996H40.9001V51.3996H39.5001V49.9996Z" fill="white"/>
<path d="M42.3 49.9996H43.7001V51.3996H42.3V49.9996Z" fill="white"/>
<path d="M61.9 32.5261V30.4C61.9 25.7608 58.1393 22 53.5 22C48.8608 22 45.1 25.7608 45.1 30.4V32.5261C43.9089 32.6529 43.0042 33.6555 43 34.8533V43.4467C43.0018 44.7459 44.0548 45.799 45.354 45.8001H61.6461C62.9452 45.799 63.9983 44.7459 64 43.4467V34.8533C63.9959 33.6555 63.0911 32.6529 61.9 32.5261ZM46.5 30.4C46.5 26.5338 49.6338 23.4 53.5 23.4C57.3662 23.4 60.5 26.5338 60.5 30.4V32.5H59.1V30.4C59.1 27.3071 56.5929 24.8 53.5 24.8C50.4071 24.8 47.9 27.3071 47.9 30.4V32.5H46.5V30.4ZM49.3 32.5V30.4C49.3 28.0808 51.1808 26.2 53.5 26.2C55.8192 26.2 57.7 28.0808 57.7 30.4V32.5H49.3ZM62.6 43.4467C62.5996 43.9733 62.1724 44.3998 61.6461 44.4H45.354C44.8277 44.3998 44.4004 43.9733 44.4 43.4467V34.8533C44.4004 34.3268 44.8277 33.9002 45.354 33.9H61.6461C62.1724 33.9002 62.5996 34.3268 62.6 34.8533V43.4467Z" fill="white"/>
<path d="M53.5 36.7C52.4785 36.6978 51.6046 37.433 51.4311 38.4401C51.2581 39.447 51.8364 40.4318 52.8 40.7711V42.3H54.2V40.7711C55.1636 40.4318 55.742 39.447 55.569 38.4401C55.3955 37.433 54.5216 36.6978 53.5 36.7ZM53.5 39.5C53.1133 39.5 52.8 39.1867 52.8 38.8C52.8 38.4132 53.1133 38.1 53.5 38.1C53.8868 38.1 54.2 38.4132 54.2 38.8C54.2 39.1867 53.8868 39.5 53.5 39.5Z" fill="white"/>
<path d="M34.5999 33.2H35.9999V34.6H34.5999V33.2Z" fill="white"/>
<path d="M34.5999 30.4001H35.9999V31.8001H34.5999V30.4001Z" fill="white"/>
<path d="M34.5999 27.6001H35.9999V29.0001H34.5999V27.6001Z" fill="white"/>
<path d="M34.5999 24.8H35.9999V26.2001H34.5999V24.8Z" fill="white"/>
<path d="M37.3999 24.8H38.7999V26.2001H37.3999V24.8Z" fill="white"/>
<path d="M40.1998 24.8H41.5998V26.2001H40.1998V24.8Z" fill="white"/>
<path d="M43 24.8H44.4V26.2001H43V24.8Z" fill="white"/>
</svg>
