<svg width="86" height="86" viewBox="0 0 86 86" fill="none" xmlns="http://www.w3.org/2000/svg">
<path fill-rule="evenodd" clip-rule="evenodd" d="M85 43C85 19.805 65.9723 0.999999 42.4992 0.999998C19.0276 0.999997 -8.2199e-07 19.8049 -1.83588e-06 43C-2.84983e-06 66.1965 19.0276 85 42.4992 85C65.9723 85 85 66.1965 85 43Z" fill="white"/>
<mask id="path-2-inside-1" fill="white">
<path fill-rule="evenodd" clip-rule="evenodd" d="M1.7377 43C1.7377 20.2124 20.2112 1.73914 42.9992 1.73914C65.7887 1.73914 84.2624 20.2124 84.2624 43C84.2624 65.7891 65.7887 84.2608 42.9992 84.2608C20.2112 84.2608 1.7377 65.7891 1.7377 43ZM86 43C86 19.2527 66.7485 -8.41512e-07 42.9992 -1.87962e-06C19.2515 -2.91767e-06 -8.41562e-07 19.2527 -1.87959e-06 43C-2.91768e-06 66.7488 19.2515 86 42.9992 86C66.7485 86 86 66.7488 86 43Z"/>
</mask>
<path fill-rule="evenodd" clip-rule="evenodd" d="M1.7377 43C1.7377 20.2124 20.2112 1.73914 42.9992 1.73914C65.7887 1.73914 84.2624 20.2124 84.2624 43C84.2624 65.7891 65.7887 84.2608 42.9992 84.2608C20.2112 84.2608 1.7377 65.7891 1.7377 43ZM86 43C86 19.2527 66.7485 -8.41512e-07 42.9992 -1.87962e-06C19.2515 -2.91767e-06 -8.41562e-07 19.2527 -1.87959e-06 43C-2.91768e-06 66.7488 19.2515 86 42.9992 86C66.7485 86 86 66.7488 86 43Z" fill="#471B4F"/>
<path d="M3.62005 43C3.62006 21.252 21.2508 3.6215 42.9992 3.6215L42.9992 -0.143209C19.1717 -0.14321 -0.144654 19.1728 -0.144655 43L3.62005 43ZM42.9992 3.6215C64.7492 3.6215 82.38 21.2521 82.38 43L86.1447 43C86.1447 19.1727 66.8282 -0.143208 42.9992 -0.143209L42.9992 3.6215ZM82.38 43C82.38 64.7494 64.7492 82.3785 42.9992 82.3785L42.9992 86.1432C66.8282 86.1432 86.1447 66.8288 86.1447 43L82.38 43ZM42.9992 82.3785C21.2508 82.3785 3.62005 64.7494 3.62005 43L-0.144655 43C-0.144656 66.8287 19.1717 86.1432 42.9992 86.1432L42.9992 82.3785ZM87.8824 43C87.8824 18.2131 67.7881 -1.88235 42.9992 -1.88235L42.9992 1.88235C65.7088 1.88235 84.1176 20.2923 84.1176 43L87.8824 43ZM42.9992 -1.88235C18.2118 -1.88236 -1.88236 18.2131 -1.88236 43L1.88235 43C1.88235 20.2922 20.2911 1.88235 42.9992 1.88235L42.9992 -1.88235ZM-1.88236 43C-1.88236 67.7884 18.2119 87.8824 42.9992 87.8824L42.9992 84.1176C20.2911 84.1176 1.88235 65.7092 1.88235 43L-1.88236 43ZM42.9992 87.8824C67.788 87.8824 87.8824 67.7884 87.8824 43L84.1176 43C84.1176 65.7092 65.7089 84.1176 42.9992 84.1176L42.9992 87.8824Z" fill="#471B4F" mask="url(#path-2-inside-1)"/>
<path d="M42.71 5.76417C63.3783 5.76417 80.1321 22.5153 80.1321 43.1765C80.1321 63.8391 63.3784 80.5889 42.71 80.5889C22.043 80.5889 5.28938 63.8391 5.28938 43.1765C5.28938 22.5153 22.0431 5.76417 42.71 5.76417Z" fill="#471B4F" stroke="#471B4F" stroke-width="1.88235"/>
<path d="M53.5 26.3748C49.634 26.3748 46.5 29.5088 46.5 33.3747C46.5 37.2407 49.634 40.3748 53.5 40.3748C57.3641 40.3704 60.4956 37.239 60.5 33.3748C60.5 29.5088 57.3659 26.3748 53.5 26.3748ZM53.5 38.6248C50.6005 38.6248 48.25 36.2743 48.25 33.3748C48.25 30.4753 50.6005 28.1248 53.5 28.1248C56.3983 28.1277 58.7471 30.4765 58.75 33.3748C58.75 36.2743 56.3995 38.6248 53.5 38.6248Z" fill="white"/>
<path d="M55.5066 31.0063L52.6252 33.8877L51.4939 32.7563L50.2566 33.9936L52.0066 35.7436C52.1706 35.9077 52.3932 35.9999 52.6252 35.9999C52.8572 35.9998 53.0797 35.9076 53.2438 35.7436L56.7438 32.2435L55.5066 31.0063Z" fill="white"/>
<path d="M51.75 44.7495H39.5V46.4995H51.75V44.7495Z" fill="white"/>
<path d="M41.25 32.4998H31.6249C28.2437 32.5036 25.5037 35.2436 25.4999 38.6248H27.2499C27.2528 36.2097 29.2099 34.2527 31.6249 34.2498H41.2499C42.2164 34.2498 42.9999 35.0333 42.9999 35.9998C42.9999 36.9663 42.2164 37.7498 41.2499 37.7498H31.6249V39.4997H41.2499C43.1829 39.4997 44.7499 37.9328 44.7499 35.9997C44.7499 34.0666 43.1829 32.4998 41.25 32.4998Z" fill="white"/>
<path d="M22.875 35.9995C22.3918 35.9995 22 36.3912 22 36.8745V37.7495H26.375V35.9995H22.875Z" fill="white"/>
<path d="M62.2501 47.3745V59.6245C62.2501 61.0742 61.0748 62.2495 59.6251 62.2495H38.6251C37.1754 62.2495 36.0001 61.0742 36.0001 59.6245V38.6245H34.2501V59.6245C34.253 62.0396 36.2101 63.9966 38.6251 63.9995H59.6251C62.0402 63.9966 63.9972 62.0395 64.0001 59.6245V47.3745H62.2501Z" fill="white"/>
<path d="M59.625 22H42.1249C41.8929 22.0001 41.6704 22.0923 41.5063 22.2563L34.5063 29.2563L35.7436 30.4936L42.4873 23.75H59.625C61.0747 23.75 62.25 24.9252 62.25 26.375V38.6249H63.9999V26.375C63.9971 23.96 62.04 22.0029 59.625 22Z" fill="white"/>
<path d="M42.7439 22.2564C42.4022 21.9146 41.8482 21.9145 41.5064 22.2562L34.5065 29.2562C34.3423 29.4202 34.2501 29.6428 34.2501 29.8748V33.3748H36.0001V30.237L41.2501 24.987V28.1248C41.2501 28.608 40.8583 28.9998 40.3751 28.9998H38.6251V30.7498H40.3751C41.8248 30.7498 43.0001 29.5745 43.0001 28.1248V22.8748C43 22.6428 42.9079 22.4203 42.7439 22.2564Z" fill="white"/>
<path d="M27.2499 45.625H25.4999C25.5037 49.0062 28.2437 51.7462 31.6249 51.75V50.0001C29.2098 49.9971 27.2527 48.0401 27.2499 45.625Z" fill="white"/>
<path d="M35.1249 49.9998H31.6249V51.7497H35.1249V49.9998Z" fill="white"/>
<path d="M22 46.4998V47.3748C22 47.8579 22.3918 48.2497 22.875 48.2497H26.3751V46.4998H22Z" fill="white"/>
<path d="M63.2404 41.1345C62.2146 40.1557 60.6008 40.1557 59.575 41.1345L47.4344 53.2751C47.0928 53.6168 47.0928 54.1707 47.4344 54.5124L49.8625 56.9405C50.0266 57.1047 50.2491 57.1969 50.4811 57.1969C50.7132 57.1968 50.9357 57.1046 51.0997 56.9405L63.2404 44.7999C63.2408 44.7995 63.2413 44.799 63.2417 44.7986C64.2532 43.7863 64.2526 42.1459 63.2404 41.1345ZM62.0032 43.5626L50.4812 55.0846L49.2904 53.8937L60.8124 42.3717C61.1455 42.0533 61.6701 42.0533 62.0032 42.3717C62.0034 42.3718 62.0036 42.372 62.0037 42.3722C62.3323 42.701 62.3321 43.234 62.0032 43.5626Z" fill="white"/>
<path d="M50.0877 55.5391L47.5817 56.7913L48.8365 54.2827L47.2711 53.4995L44.842 58.3584C44.7813 58.48 44.7497 58.614 44.7498 58.7499C44.75 59.2332 45.1419 59.6247 45.6252 59.6245C45.7605 59.6257 45.8943 59.5957 46.0163 59.537L50.8752 57.1045L50.0877 55.5391Z" fill="white"/>
<path d="M57.7784 44.1719L56.5408 45.4092L58.9683 47.8374L60.2058 46.6001L57.7784 44.1719Z" fill="white"/>
<path d="M45.625 57.875H39.5V59.625H45.625V57.875Z" fill="white"/>
<path d="M44.75 53.4995H39.5V55.2495H44.75V53.4995Z" fill="white"/>
<path d="M47.375 49.125H39.5V50.875H47.375V49.125Z" fill="white"/>
<path d="M58.7501 57.875H50.8751V59.625H58.7501V57.875Z" fill="white"/>
<path d="M58.7498 53.4995H55.2498V55.2495H58.7498V53.4995Z" fill="white"/>
</svg>
