<svg width="86" height="86" viewBox="0 0 86 86" fill="none" xmlns="http://www.w3.org/2000/svg">
<path fill-rule="evenodd" clip-rule="evenodd" d="M85 43C85 19.805 66.1962 0.999999 42.9992 0.999998C19.8038 0.999997 0.999999 19.8049 0.999998 43C0.999997 66.1965 19.8038 85 42.9992 85C66.1962 85 85 66.1965 85 43Z" fill="white"/>
<mask id="path-2-inside-1" fill="white">
<path fill-rule="evenodd" clip-rule="evenodd" d="M1.7377 43C1.7377 20.2124 20.2112 1.73914 42.9992 1.73914C65.7887 1.73914 84.2624 20.2124 84.2624 43C84.2624 65.7891 65.7887 84.2608 42.9992 84.2608C20.2112 84.2608 1.7377 65.7891 1.7377 43ZM86 43C86 19.2527 66.7485 -8.41512e-07 42.9992 -1.87962e-06C19.2515 -2.91767e-06 -8.41562e-07 19.2527 -1.87959e-06 43C-2.91768e-06 66.7488 19.2515 86 42.9992 86C66.7485 86 86 66.7488 86 43Z"/>
</mask>
<path fill-rule="evenodd" clip-rule="evenodd" d="M1.7377 43C1.7377 20.2124 20.2112 1.73914 42.9992 1.73914C65.7887 1.73914 84.2624 20.2124 84.2624 43C84.2624 65.7891 65.7887 84.2608 42.9992 84.2608C20.2112 84.2608 1.7377 65.7891 1.7377 43ZM86 43C86 19.2527 66.7485 -8.41512e-07 42.9992 -1.87962e-06C19.2515 -2.91767e-06 -8.41562e-07 19.2527 -1.87959e-06 43C-2.91768e-06 66.7488 19.2515 86 42.9992 86C66.7485 86 86 66.7488 86 43Z" fill="#471B4F"/>
<path d="M3.62005 43C3.62006 21.252 21.2508 3.6215 42.9992 3.6215L42.9992 -0.143209C19.1717 -0.14321 -0.144654 19.1728 -0.144655 43L3.62005 43ZM42.9992 3.6215C64.7492 3.6215 82.38 21.2521 82.38 43L86.1447 43C86.1447 19.1727 66.8282 -0.143208 42.9992 -0.143209L42.9992 3.6215ZM82.38 43C82.38 64.7494 64.7492 82.3785 42.9992 82.3785L42.9992 86.1432C66.8282 86.1432 86.1447 66.8288 86.1447 43L82.38 43ZM42.9992 82.3785C21.2508 82.3785 3.62005 64.7494 3.62005 43L-0.144655 43C-0.144656 66.8287 19.1717 86.1432 42.9992 86.1432L42.9992 82.3785ZM87.8824 43C87.8824 18.2131 67.7881 -1.88235 42.9992 -1.88235L42.9992 1.88235C65.7088 1.88235 84.1176 20.2923 84.1176 43L87.8824 43ZM42.9992 -1.88235C18.2118 -1.88236 -1.88236 18.2131 -1.88236 43L1.88235 43C1.88235 20.2922 20.2911 1.88235 42.9992 1.88235L42.9992 -1.88235ZM-1.88236 43C-1.88236 67.7884 18.2119 87.8824 42.9992 87.8824L42.9992 84.1176C20.2911 84.1176 1.88235 65.7092 1.88235 43L-1.88236 43ZM42.9992 87.8824C67.788 87.8824 87.8824 67.7884 87.8824 43L84.1176 43C84.1176 65.7092 65.7089 84.1176 42.9992 84.1176L42.9992 87.8824Z" fill="#471B4F" mask="url(#path-2-inside-1)"/>
<path d="M42.71 5.76417C63.3783 5.76417 80.1321 22.5153 80.1321 43.1765C80.1321 63.8391 63.3784 80.5889 42.71 80.5889C22.043 80.5889 5.28938 63.8391 5.28938 43.1765C5.28938 22.5153 22.0431 5.76417 42.71 5.76417Z" fill="#471B4F" stroke="#471B4F" stroke-width="1.88235"/>
<path d="M25.7501 26C25.3359 26 25.0001 26.3358 25.0001 26.75V28.25C25.0001 28.6642 25.3359 29 25.7501 29C26.1643 29 26.5001 28.6642 26.5001 28.25V26.75C26.5001 26.3358 26.1643 26 25.7501 26Z" fill="white"/>
<path d="M25.7501 31.2495C25.3359 31.2495 25.0001 31.5853 25.0001 31.9995V45.4995C25.0001 45.9137 25.3359 46.2495 25.7501 46.2495C26.1643 46.2495 26.5001 45.9137 26.5001 45.4995V31.9995C26.5001 31.5853 26.1643 31.2495 25.7501 31.2495Z" fill="white"/>
<path d="M46 65H59.5C61.9843 64.9975 63.9975 62.9843 64 60.5V47.75C64 46.5074 62.9926 45.5 61.75 45.5V42.5C61.7446 37.5317 57.7183 33.5054 52.75 33.5V23C52.75 21.3431 51.4069 20 49.75 20H22.75C22.3358 20 22 20.3358 22 20.75V57.5C22.0005 57.7674 22.1434 58.0143 22.375 58.148L33.7458 64.7608C34.4428 65.1084 35.2701 65.0708 35.9327 64.6614C36.5953 64.252 36.9991 63.5289 37 62.75V58.25H41.5V60.5C41.5025 62.9843 43.5157 64.9975 46 65ZM62.5 47.75V60.5C62.5 62.1569 61.1569 63.5 59.5 63.5H46C44.3431 63.5 43 62.1569 43 60.5V47.75C43 47.3358 43.3358 47 43.75 47H61.75C62.1642 47 62.5 47.3358 62.5 47.75ZM57.25 45.5H48.25V42.5C48.25 40.0147 50.2647 38 52.75 38C55.2353 38 57.25 40.0147 57.25 42.5V45.5ZM60.25 42.5V45.5H58.75V42.5C58.75 39.1863 56.0637 36.5 52.75 36.5C49.4363 36.5 46.75 39.1863 46.75 42.5V45.5H45.25V42.5C45.25 38.3579 48.6079 35 52.75 35C56.8921 35 60.25 38.3579 60.25 42.5ZM35.8442 52.985C35.6189 53.3447 35.4996 53.7606 35.5 54.185V62.75C35.5022 63.0107 35.3668 63.2533 35.1437 63.3883C34.9389 63.5227 34.6797 63.5436 34.456 63.4438L23.5 57.0688V22.0895L36.9722 30.35C37.4508 30.6129 37.7487 31.115 37.75 31.661V49.736C37.7502 49.8774 37.7104 50.016 37.6353 50.1358L35.8442 52.985ZM37 56.75V54.182C36.9999 54.0409 37.0397 53.9026 37.1147 53.783L38.9058 50.933C39.1306 50.5748 39.2499 50.1604 39.25 49.7375V31.6625C39.2529 30.5799 38.6695 29.5806 37.7252 29.051L25.4088 21.5H49.75C50.5784 21.5 51.25 22.1716 51.25 23V33.6358C46.9248 34.3696 43.7576 38.113 43.75 42.5V45.5C42.5074 45.5 41.5 46.5074 41.5 47.75V56.75H37Z" fill="white"/>
<path d="M54.6799 50.7029C53.4948 49.7271 51.7643 49.8034 50.6696 50.8797C49.575 51.956 49.4695 53.685 50.4252 54.8864L50.0502 57.1304C49.9414 57.783 50.1254 58.4504 50.5533 58.955C50.9811 59.4597 51.6093 59.7505 52.2709 59.7501H53.2294C53.891 59.7503 54.5192 59.4593 54.9469 58.9545C55.3746 58.4497 55.5584 57.7822 55.4494 57.1296L55.0744 54.8879C55.5131 54.3568 55.7522 53.689 55.7502 53.0001C55.7509 52.1137 55.359 51.2726 54.6799 50.7029ZM53.5347 54.7694L53.9697 57.3764C54.0061 57.594 53.9448 57.8166 53.8022 57.9849C53.6596 58.1533 53.45 58.2503 53.2294 58.2501H52.2709C52.0504 58.2502 51.8411 58.1533 51.6985 57.9852C51.5559 57.817 51.4945 57.5946 51.5307 57.3771L51.9657 54.7694C52.0076 54.5199 51.9211 54.2661 51.7354 54.0944C51.3544 53.7473 51.1802 53.2277 51.2749 52.7211C51.3946 52.1148 51.8686 51.6408 52.4749 51.5211C52.5659 51.5065 52.658 51.4995 52.7502 51.5001C53.1025 51.4985 53.4438 51.623 53.7124 51.8511C54.0528 52.1357 54.2497 52.5564 54.2502 53.0001C54.2502 53.4175 54.0739 53.8154 53.7649 54.0959C53.5797 54.2673 53.4932 54.5204 53.5347 54.7694Z" fill="white"/>
</svg>
