<svg width="86" height="86" viewBox="0 0 86 86" fill="none" xmlns="http://www.w3.org/2000/svg">
<path fill-rule="evenodd" clip-rule="evenodd" d="M85 43C85 19.805 65.9723 0.999999 42.4992 0.999998C19.0276 0.999997 -8.2199e-07 19.8049 -1.83588e-06 43C-2.84983e-06 66.1965 19.0276 85 42.4992 85C65.9723 85 85 66.1965 85 43Z" fill="white"/>
<mask id="path-2-inside-1" fill="white">
<path fill-rule="evenodd" clip-rule="evenodd" d="M1.7377 43C1.7377 20.2124 20.2112 1.73914 42.9992 1.73914C65.7887 1.73914 84.2624 20.2124 84.2624 43C84.2624 65.7891 65.7887 84.2608 42.9992 84.2608C20.2112 84.2608 1.7377 65.7891 1.7377 43ZM86 43C86 19.2527 66.7485 -8.41512e-07 42.9992 -1.87962e-06C19.2515 -2.91767e-06 -8.41562e-07 19.2527 -1.87959e-06 43C-2.91768e-06 66.7488 19.2515 86 42.9992 86C66.7485 86 86 66.7488 86 43Z"/>
</mask>
<path fill-rule="evenodd" clip-rule="evenodd" d="M1.7377 43C1.7377 20.2124 20.2112 1.73914 42.9992 1.73914C65.7887 1.73914 84.2624 20.2124 84.2624 43C84.2624 65.7891 65.7887 84.2608 42.9992 84.2608C20.2112 84.2608 1.7377 65.7891 1.7377 43ZM86 43C86 19.2527 66.7485 -8.41512e-07 42.9992 -1.87962e-06C19.2515 -2.91767e-06 -8.41562e-07 19.2527 -1.87959e-06 43C-2.91768e-06 66.7488 19.2515 86 42.9992 86C66.7485 86 86 66.7488 86 43Z" fill="#471B4F"/>
<path d="M3.62005 43C3.62006 21.252 21.2508 3.6215 42.9992 3.6215L42.9992 -0.143209C19.1717 -0.14321 -0.144654 19.1728 -0.144655 43L3.62005 43ZM42.9992 3.6215C64.7492 3.6215 82.38 21.2521 82.38 43L86.1447 43C86.1447 19.1727 66.8282 -0.143208 42.9992 -0.143209L42.9992 3.6215ZM82.38 43C82.38 64.7494 64.7492 82.3785 42.9992 82.3785L42.9992 86.1432C66.8282 86.1432 86.1447 66.8288 86.1447 43L82.38 43ZM42.9992 82.3785C21.2508 82.3785 3.62005 64.7494 3.62005 43L-0.144655 43C-0.144656 66.8287 19.1717 86.1432 42.9992 86.1432L42.9992 82.3785ZM87.8824 43C87.8824 18.2131 67.7881 -1.88235 42.9992 -1.88235L42.9992 1.88235C65.7088 1.88235 84.1176 20.2923 84.1176 43L87.8824 43ZM42.9992 -1.88235C18.2118 -1.88236 -1.88236 18.2131 -1.88236 43L1.88235 43C1.88235 20.2922 20.2911 1.88235 42.9992 1.88235L42.9992 -1.88235ZM-1.88236 43C-1.88236 67.7884 18.2119 87.8824 42.9992 87.8824L42.9992 84.1176C20.2911 84.1176 1.88235 65.7092 1.88235 43L-1.88236 43ZM42.9992 87.8824C67.788 87.8824 87.8824 67.7884 87.8824 43L84.1176 43C84.1176 65.7092 65.7089 84.1176 42.9992 84.1176L42.9992 87.8824Z" fill="#471B4F" mask="url(#path-2-inside-1)"/>
<path d="M42.71 5.76417C63.3783 5.76417 80.1321 22.5153 80.1321 43.1765C80.1321 63.8391 63.3784 80.5889 42.71 80.5889C22.043 80.5889 5.28938 63.8391 5.28938 43.1765C5.28938 22.5153 22.0431 5.76417 42.71 5.76417Z" fill="#471B4F" stroke="#471B4F" stroke-width="1.88235"/>
<path d="M62.9211 31.1865C62.9238 31.1282 62.9252 31.0699 62.9252 31.0117C62.9252 28.9984 61.3504 27.3459 59.3675 27.2199C58.051 24.3242 55.1279 22.418 51.9129 22.418C48.2762 22.418 45.0773 24.8468 44.0622 28.2823C41.5147 28.4947 39.5063 30.6349 39.5063 33.2351C39.5063 33.6988 39.8824 34.0749 40.3462 34.0749C40.81 34.0749 41.186 33.6988 41.186 33.2351C41.186 31.4207 42.6633 29.9446 44.4791 29.9446C44.5356 29.9446 44.5985 29.9467 44.6711 29.9509C45.0881 29.9772 45.458 29.6902 45.5421 29.2818C46.161 26.2778 48.8403 24.0976 51.9128 24.0976C54.6294 24.0976 57.0839 25.8101 58.0204 28.3588C58.1532 28.7202 58.5148 28.9438 58.8974 28.9043C58.9758 28.8959 59.0519 28.8917 59.1237 28.8917C60.2937 28.8917 61.2454 29.8427 61.2454 31.0116C61.2454 31.1669 61.2278 31.3239 61.1931 31.4785C61.1031 31.8793 61.3162 32.2865 61.6969 32.4409C62.5019 32.7673 63.0219 33.5384 63.0219 34.4056C63.0219 35.5745 62.0701 36.5255 60.9001 36.5255H52.104C51.6402 36.5255 51.2642 36.9016 51.2642 37.3653C51.2642 37.8291 51.6402 38.2052 52.104 38.2052H60.9002C62.9963 38.2052 64.7017 36.5007 64.7017 34.4056C64.7017 33.0762 64.0203 31.8728 62.9211 31.1865Z" fill="white"/>
<path d="M56.9131 30.9743C56.7569 30.8182 56.5411 30.7283 56.3193 30.7283C56.0985 30.7283 55.8818 30.8181 55.7257 30.9743C55.5694 31.1306 55.4795 31.3472 55.4795 31.5681C55.4795 31.7898 55.5694 32.0057 55.7257 32.1619C55.8818 32.318 56.0985 32.408 56.3193 32.408C56.5402 32.408 56.7568 32.318 56.9131 32.1619C57.0702 32.0057 57.1592 31.7897 57.1592 31.5681C57.1592 31.3472 57.0702 31.1306 56.9131 30.9743Z" fill="white"/>
<path d="M52.6967 30.9743C52.5397 30.8182 52.3239 30.7283 52.103 30.7283C51.8812 30.7283 51.6655 30.8181 51.5084 30.9743C51.3522 31.1306 51.2632 31.3472 51.2632 31.5681C51.2632 31.7898 51.3522 32.0057 51.5084 32.1619C51.6655 32.318 51.8821 32.408 52.103 32.408C52.3239 32.408 52.5397 32.3181 52.6967 32.1619C52.8529 32.0057 52.9419 31.7897 52.9419 31.5681C52.9419 31.3472 52.8529 31.1306 52.6967 30.9743Z" fill="white"/>
<path d="M48.4802 30.9743C48.324 30.8182 48.1074 30.7283 47.8865 30.7283C47.6655 30.7283 47.4488 30.8181 47.2919 30.9743C47.1357 31.1306 47.0466 31.3472 47.0466 31.5681C47.0466 31.7898 47.1357 32.0057 47.2919 32.1619C47.4488 32.318 47.6655 32.408 47.8865 32.408C48.1073 32.408 48.3239 32.318 48.4802 32.1619C48.6364 32.0057 48.7263 31.789 48.7263 31.5681C48.7263 31.3472 48.6365 31.1306 48.4802 30.9743Z" fill="white"/>
<path d="M50.1365 49.8278L47.1929 48.8524V48.5676C48.8726 47.3357 49.9658 45.3491 49.9658 43.1113V35.6416C49.9658 35.1778 49.5897 34.8018 49.1259 34.8018H41.3052C38.6212 34.8018 36.4377 36.9853 36.4377 39.6692V43.1113C36.4377 45.3491 37.5308 47.3357 39.2104 48.5676V48.8523L36.2668 49.8277C32.9227 50.9358 30.6759 54.0475 30.6759 57.5704V62.7421C30.6759 63.2059 31.052 63.5819 31.5157 63.5819H54.8878C55.3515 63.5819 55.7276 63.2059 55.7276 62.7421V57.5704C55.7276 54.0475 53.4808 50.9359 50.1365 49.8278ZM38.1174 39.6692C38.1173 37.9114 39.5474 36.4814 41.3052 36.4814H48.2861V40.7199C47.6879 40.9702 47.0405 41.1031 46.3875 41.1031C44.8546 41.1031 43.4366 40.4054 42.4973 39.1889C42.3382 38.9829 42.0928 38.8622 41.8326 38.8622C41.5724 38.8622 41.3269 38.9829 41.1678 39.1888C40.4029 40.1794 39.3206 40.8258 38.1174 41.0318V39.6692ZM38.1173 43.1113V42.7284C39.5197 42.5512 40.814 41.9343 41.8325 40.9563C43.0515 42.127 44.6652 42.7828 46.3874 42.7828C47.0317 42.7828 47.6724 42.687 48.286 42.503V43.1113C48.286 45.9148 46.0052 48.1956 43.2016 48.1956C40.398 48.1956 38.1173 45.9148 38.1173 43.1113ZM45.4526 49.4888V50.6951C45.4526 51.9362 44.443 52.9459 43.2018 52.9459C41.9607 52.9459 40.9511 51.9363 40.9511 50.6951V49.4889C41.6556 49.7382 42.4128 49.8754 43.2017 49.8754C43.9907 49.8754 44.748 49.7382 45.4526 49.4888ZM51.7682 61.9023V57.2921C51.7682 56.8283 51.3922 56.4523 50.9284 56.4523C50.4646 56.4523 50.0886 56.8283 50.0886 57.2921V61.9023H36.3151V57.2921C36.3151 56.8283 35.939 56.4523 35.4753 56.4523C35.0115 56.4523 34.6354 56.8283 34.6354 57.2921V61.9023H32.3556V57.5705C32.3556 54.7729 34.1398 52.3022 36.7952 51.4222L39.2714 50.6016V50.695C39.2714 52.8623 41.0345 54.6254 43.2018 54.6254C45.3691 54.6254 47.1323 52.8623 47.1323 50.695V50.6017L49.6082 51.4221C52.2637 52.3021 54.0478 54.7728 54.0478 57.5704V61.9023H51.7682Z" fill="white"/>
<path d="M39.6768 27.7151C39.2841 27.5595 38.8808 27.4245 38.4718 27.3114V25.96C38.4718 25.4963 38.096 25.1203 37.6323 25.1202L32.9913 25.1184C32.9911 25.1184 32.991 25.1184 32.9909 25.1184C32.7683 25.1184 32.5547 25.2068 32.3972 25.3643C32.2396 25.5218 32.1511 25.7355 32.1511 25.9583V27.3109C31.2162 27.5687 30.3217 27.939 29.479 28.4172L28.5199 27.458C28.192 27.1303 27.6605 27.1303 27.3325 27.4577L24.0489 30.7376C23.8913 30.8951 23.8027 31.1088 23.8026 31.3316C23.8025 31.5544 23.8911 31.7681 24.0486 31.9257L25.0096 32.8866C24.5314 33.7292 24.1611 34.6238 23.9032 35.5588H22.543C22.0793 35.5588 21.7033 35.9346 21.7032 36.3983L21.7014 41.0392C21.7013 41.262 21.7898 41.4757 21.9473 41.6333C22.1048 41.7909 22.3185 41.8794 22.5413 41.8794H23.9033C24.1612 42.8143 24.5315 43.709 25.0096 44.5516L24.0449 45.5164C23.717 45.8443 23.717 46.3761 24.0449 46.7041L27.3266 49.9858C27.4841 50.1434 27.6976 50.2318 27.9205 50.2318C28.1432 50.2318 28.3568 50.1433 28.5143 49.9858L29.479 49.021C30.519 49.6112 31.6381 50.0372 32.8146 50.2899C32.8741 50.3026 32.9334 50.3088 32.9919 50.3088C33.3792 50.3088 33.7275 50.0393 33.8121 49.6453C33.9096 49.1919 33.621 48.7451 33.1675 48.6477C31.9669 48.3898 30.8361 47.9216 29.8066 47.2563C29.4742 47.0413 29.0367 47.0878 28.7569 47.3677L27.9204 48.2043L25.8264 46.1103L26.6629 45.2738C26.9428 44.9939 26.9892 44.5566 26.7743 44.2241C26.109 43.1944 25.6408 42.0637 25.383 40.8631C25.2998 40.4761 24.9577 40.1997 24.5618 40.1997H23.3814L23.3825 37.2384H24.5619C24.9577 37.2384 25.2998 36.9621 25.383 36.5751C25.641 35.3744 26.1092 34.2436 26.7745 33.2142C26.9894 32.8818 26.943 32.4444 26.663 32.1644L25.8307 31.3321L27.9257 29.2393L28.7569 30.0705C29.037 30.3505 29.4743 30.3969 29.8067 30.182C30.8362 29.5167 31.9669 29.0485 33.1675 28.7905C33.5545 28.7075 33.8309 28.3653 33.8309 27.9695V26.7985L36.7922 26.7996V27.9697C36.7922 28.3655 37.0686 28.7076 37.4555 28.7907C38.0012 28.908 38.5404 29.0716 39.058 29.2767C39.4891 29.4474 39.9773 29.2366 40.1482 28.8054C40.319 28.3741 40.108 27.886 39.6768 27.7151Z" fill="white"/>
<path d="M35.3069 43.2738C32.7975 43.2738 30.756 41.2322 30.756 38.7228C30.756 37.0765 31.6493 35.5537 33.0876 34.7485C33.4923 34.5219 33.6367 34.0102 33.4101 33.6055C33.1835 33.2008 32.6715 33.0564 32.2671 33.2829C30.2989 34.3848 29.0763 36.4692 29.0763 38.7228C29.0763 42.1584 31.8714 44.9535 35.3069 44.9535C35.7707 44.9535 36.1468 44.5774 36.1468 44.1136C36.1468 43.6499 35.7707 43.2738 35.3069 43.2738Z" fill="white"/>
<path d="M35.2993 32.4929C34.8355 32.4929 34.4595 32.869 34.4595 33.3328C34.4595 33.7965 34.8356 34.1726 35.2993 34.1726H35.3072C35.771 34.1726 36.1431 33.7965 36.1431 33.3328C36.1431 32.869 35.7632 32.4929 35.2993 32.4929Z" fill="white"/>
<path d="M60.1664 44.1143C59.7026 44.1143 59.3266 44.4903 59.3266 44.9541V57.3681H57.6189C57.1551 57.3681 56.7791 57.7442 56.7791 58.2079C56.7791 58.6717 57.1551 59.0478 57.6189 59.0478H60.1664C60.6302 59.0478 61.0062 58.6717 61.0062 58.2079V44.9541C61.0062 44.4903 60.6302 44.1143 60.1664 44.1143Z" fill="white"/>
<path d="M60.7602 41.0216C60.6041 40.8654 60.3874 40.7764 60.1665 40.7764C59.9456 40.7764 59.7289 40.8654 59.5727 41.0216C59.4165 41.1777 59.3267 41.3944 59.3267 41.6162C59.3267 41.8371 59.4164 42.0528 59.5727 42.2099C59.7289 42.3661 59.9456 42.4561 60.1665 42.4561C60.3874 42.4561 60.6041 42.3662 60.7602 42.2099C60.9164 42.0528 61.0063 41.8371 61.0063 41.6162C61.0063 41.3944 60.9165 41.1777 60.7602 41.0216Z" fill="white"/>
<path d="M28.6722 57.3678H27.0625V51.6211C27.0625 51.1573 26.6864 50.7812 26.2227 50.7812C25.7589 50.7812 25.3828 51.1573 25.3828 51.6211V58.2077C25.3828 58.6714 25.7589 59.0475 26.2227 59.0475H28.6722C29.136 59.0475 29.5121 58.6714 29.5121 58.2077C29.5121 57.7439 29.136 57.3678 28.6722 57.3678Z" fill="white"/>
</svg>
