<svg width="108" height="46" viewBox="0 0 108 46" fill="none" xmlns="http://www.w3.org/2000/svg">
<path fill-rule="evenodd" clip-rule="evenodd" d="M9.7981 22.3904C9.7981 15.3126 15.7305 9.55151 23.0197 9.55151C30.309 9.55151 36.2403 15.3126 36.2403 22.3904C36.2394 25.6949 34.9364 28.8675 32.6085 31.229C32.0746 31.7621 31.5105 32.2653 30.919 32.7359C30.4868 33.0637 30.0818 33.4255 29.7087 33.8176L29.3251 34.2586H16.7012L16.3183 33.8176C15.9496 33.4277 15.5518 33.0671 15.1266 32.739C14.536 32.2693 13.9728 31.7662 13.4398 31.2321C11.1075 28.8721 9.79994 25.6974 9.7981 22.3904Z" fill="#F1AF2A"/>
<path fill-rule="evenodd" clip-rule="evenodd" d="M22.8761 45.9998C24.2897 46.0119 25.6566 45.4974 26.7077 44.5577C27.7579 43.6182 28.4166 42.3216 28.5518 40.9239L17.8164 42.9925C18.3053 43.9027 19.0348 44.6636 19.9258 45.1934C20.8171 45.7232 21.8373 46.002 22.8761 45.9998Z" fill="#471B4F"/>
<path fill-rule="evenodd" clip-rule="evenodd" d="M17.2994 37.0764V38.6626L28.7502 36.4799C28.7828 36.1015 28.8668 35.7291 28.9995 35.3727H17.0183C17.2172 35.9182 17.3127 36.4961 17.2994 37.0764Z" fill="#471B4F"/>
<path fill-rule="evenodd" clip-rule="evenodd" d="M17.5132 41.9341L28.6924 39.7799V37.5974L17.2957 39.7959C17.285 40.5146 17.3584 41.2319 17.5132 41.9341Z" fill="#471B4F"/>
<path fill-rule="evenodd" clip-rule="evenodd" d="M36.2727 15.038C36.8837 16.0885 37.3603 17.2108 37.6909 18.3788C38.6589 18.29 39.6084 18.0579 40.5076 17.6902C43.0634 16.6655 44.7176 14.9206 44.2358 13.7882C43.753 12.6556 41.3006 12.5668 38.758 13.5882C37.8598 13.9439 37.0225 14.4327 36.2727 15.038Z" fill="#F1AF2A"/>
<path fill-rule="evenodd" clip-rule="evenodd" d="M10.9791 13.221C11.7491 12.266 12.6323 11.4074 13.6111 10.664C13.1531 9.82335 12.567 9.05823 11.8729 8.39564C9.928 6.50804 7.62832 5.67995 6.73726 6.54615C5.84602 7.41217 6.69825 9.64551 8.65314 11.5364C9.33739 12.213 10.1216 12.7811 10.9791 13.221Z" fill="#F1AF2A"/>
<path fill-rule="evenodd" clip-rule="evenodd" d="M7.85781 24.143C7.70473 22.9423 7.70473 21.7272 7.85781 20.5265C6.9259 20.245 5.95702 20.106 4.98353 20.1141C2.22958 20.1141 0 21.107 0 22.3347C0 23.5625 2.23584 24.5554 4.98353 24.5554C5.95702 24.5635 6.9259 24.4243 7.85781 24.143Z" fill="#F1AF2A"/>
<path fill-rule="evenodd" clip-rule="evenodd" d="M5.48115 17.6902C6.38288 18.0588 7.33594 18.2908 8.30759 18.3788C8.64006 17.2099 9.12009 16.0874 9.73535 15.038C8.98302 14.432 8.14145 13.943 7.24045 13.5882C4.68558 12.5668 2.24552 12.6556 1.76273 13.7882C1.27994 14.9206 2.9386 16.6655 5.48115 17.6902Z" fill="#F1AF2A"/>
<path fill-rule="evenodd" clip-rule="evenodd" d="M15.4827 9.43985C16.5675 8.84133 17.7213 8.37684 18.92 8.05669C18.8307 7.11206 18.5886 6.1875 18.2039 5.31891C17.1599 2.85397 15.3616 1.22963 14.1955 1.69909C13.0294 2.16874 12.9366 4.55433 13.9878 7.01615C14.3556 7.89671 14.8602 8.71449 15.4827 9.43985Z" fill="#F1AF2A"/>
<path fill-rule="evenodd" clip-rule="evenodd" d="M35.0204 13.221C35.8807 12.7811 36.6684 12.213 37.3552 11.5364C39.3013 9.63299 40.1535 7.41217 39.272 6.54615C38.3905 5.67995 36.0778 6.50804 34.1354 8.39564C33.4423 9.05823 32.8561 9.82335 32.3982 10.664C33.3733 11.4079 34.2539 12.2666 35.0204 13.221Z" fill="#F1AF2A"/>
<path fill-rule="evenodd" clip-rule="evenodd" d="M22.9979 7.51873C23.6204 7.52002 24.2419 7.55813 24.8599 7.63287C25.1489 6.7293 25.2904 5.78596 25.2816 4.83802C25.2816 2.16688 24.2754 0 22.9979 0C21.7205 0 20.7135 2.16688 20.7135 4.83802C20.7047 5.78596 20.8469 6.7293 21.1352 7.63287C21.7531 7.55794 22.3755 7.51983 22.9979 7.51873Z" fill="#F1AF2A"/>
<path fill-rule="evenodd" clip-rule="evenodd" d="M30.5139 9.43985C31.1363 8.71449 31.641 7.89671 32.0088 7.01615C33.0592 4.54807 32.9672 2.16874 31.8011 1.69909C30.635 1.22963 28.8367 2.85397 27.7927 5.31891C27.4124 6.18861 27.1738 7.1128 27.0862 8.05669C28.2816 8.37758 29.4326 8.84207 30.5139 9.43985Z" fill="#F1AF2A"/>
<path fill-rule="evenodd" clip-rule="evenodd" d="M10.9789 31.451C10.1169 31.888 9.32904 32.4564 8.64405 33.1355C6.69891 35.0391 5.84226 37.2598 6.72725 38.1258C7.61224 38.992 9.92148 38.1639 11.8639 36.2732C12.5588 35.6119 13.1448 34.8464 13.6011 34.0049C12.6259 33.2629 11.7454 32.4052 10.9789 31.451Z" fill="#F1AF2A"/>
<path fill-rule="evenodd" clip-rule="evenodd" d="M35.0189 31.451C34.2489 32.4002 33.3649 33.2524 32.387 33.989C32.8442 34.8302 33.4302 35.5955 34.1251 36.2573C36.0701 38.1608 38.3697 38.976 39.2608 38.11C40.152 37.2439 39.2998 35.0106 37.3449 33.1197C36.6607 32.4475 35.8765 31.8845 35.0189 31.451Z" fill="#F1AF2A"/>
<path fill-rule="evenodd" clip-rule="evenodd" d="M40.5213 26.9697C39.6196 26.6024 38.6665 26.3747 37.6948 26.2939C37.3624 27.4627 36.8823 28.5852 36.2671 29.6346C37.022 30.2449 37.8663 30.7372 38.7708 31.0938C41.3266 32.1154 43.7667 32.0266 44.2495 30.894C44.7313 29.7614 43.0638 28.004 40.5213 26.9697Z" fill="#F1AF2A"/>
<path fill-rule="evenodd" clip-rule="evenodd" d="M9.72436 29.6346C9.11334 28.5841 8.6368 27.4618 8.30617 26.2939C7.33453 26.3758 6.38146 26.6037 5.47881 26.9697C2.92394 27.9913 1.26896 29.7392 1.75156 30.8718C2.23343 32.0044 4.68674 32.0933 7.22947 31.0717C8.12936 30.7208 8.97111 30.2362 9.72436 29.6346Z" fill="#F1AF2A"/>
<path fill-rule="evenodd" clip-rule="evenodd" d="M41.0176 20.1141C40.0434 20.106 39.0745 20.245 38.1426 20.5265C38.2957 21.7272 38.2957 22.9423 38.1426 24.143C39.0745 24.4232 40.0434 24.5613 41.0176 24.5523C43.7708 24.5523 46.0004 23.5594 46.0004 22.3316C46.0004 21.1038 43.7645 20.1141 41.0176 20.1141Z" fill="#F1AF2A"/>
<path fill-rule="evenodd" clip-rule="evenodd" d="M23.0954 15.1017L23.5228 15.8018L24.3202 15.9922L23.787 16.6154L23.8523 17.433L23.0954 17.1182L22.3382 17.433L22.4036 16.6154L21.8704 15.9922L22.6678 15.8018L23.0954 15.1017Z" fill="white"/>
<path fill-rule="evenodd" clip-rule="evenodd" d="M23.0954 26.4399L23.5228 27.1398L24.3202 27.3304L23.787 27.9534L23.8523 28.7712L23.0954 28.4562L22.3382 28.7712L22.4036 27.9534L21.8704 27.3304L22.6678 27.1398L23.0954 26.4399Z" fill="white"/>
<path fill-rule="evenodd" clip-rule="evenodd" d="M19.8473 16.1022L20.1527 16.6023L20.7223 16.7383L20.3413 17.1835L20.388 17.7674L19.8473 17.5426L19.3065 17.7674L19.3533 17.1835L18.9724 16.7383L19.542 16.6023L19.8473 16.1022Z" fill="white"/>
<path fill-rule="evenodd" clip-rule="evenodd" d="M19.8473 26.2602L20.1527 26.7602L20.7223 26.8963L20.3413 27.3412L20.388 27.9254L19.8473 27.7004L19.3065 27.9254L19.3533 27.3412L18.9724 26.8963L19.542 26.7602L19.8473 26.2602Z" fill="white"/>
<path fill-rule="evenodd" clip-rule="evenodd" d="M26.2716 16.1022L26.577 16.6023L27.1466 16.7383L26.7656 17.1835L26.8123 17.7674L26.2716 17.5426L25.7309 17.7674L25.7776 17.1835L25.3967 16.7383L25.9664 16.6023L26.2716 16.1022Z" fill="white"/>
<path fill-rule="evenodd" clip-rule="evenodd" d="M26.2716 26.2602L26.577 26.7602L27.1466 26.8963L26.7656 27.3412L26.8123 27.9254L26.2716 27.7004L25.7309 27.9254L25.7776 27.3412L25.3967 26.8963L25.9664 26.7602L26.2716 26.2602Z" fill="white"/>
<path d="M18.5411 23.7622V25.0533H13.8018V19.1468H18.4315V20.4377H15.4547V21.4333H18.0773V22.6823H15.4547V23.7622H18.5411Z" fill="white"/>
<path d="M20.062 19.1468H22.8533C23.4998 19.1468 24.0732 19.2677 24.5736 19.5095C25.0739 19.7514 25.4617 20.0945 25.7373 20.539C26.0128 20.9834 26.1504 21.5037 26.1504 22.1C26.1504 22.6963 26.0128 23.2167 25.7373 23.661C25.4617 24.1054 25.0739 24.4486 24.5736 24.6905C24.0732 24.9324 23.4998 25.0533 22.8533 25.0533H20.062V19.1468ZM22.7858 23.7201C23.2918 23.7201 23.698 23.5767 24.0043 23.2898C24.3107 23.0028 24.464 22.6063 24.464 22.1C24.464 21.5937 24.3107 21.1971 24.0043 20.9103C23.698 20.6233 23.2918 20.4799 22.7858 20.4799H21.7317V23.7201H22.7858Z" fill="white"/>
<path d="M30.3187 19.1468C30.8528 19.1468 31.3166 19.2353 31.7102 19.4124C32.1037 19.5897 32.4073 19.8429 32.6209 20.1719C32.8346 20.501 32.9413 20.8878 32.9413 21.3321C32.9413 21.7765 32.8346 22.1618 32.6209 22.4882C32.4073 22.8145 32.1037 23.0661 31.7102 23.2434C31.3166 23.4205 30.8528 23.5091 30.3187 23.5091H29.2898V25.0533H27.6201V19.1468H30.3187ZM30.2175 22.1928C30.5604 22.1928 30.8191 22.1184 30.9934 21.9693C31.1676 21.8201 31.2548 21.6079 31.2548 21.3321C31.2548 21.0565 31.1676 20.8427 30.9934 20.6909C30.8191 20.539 30.5604 20.4631 30.2175 20.4631H29.2898V22.1928H30.2175Z" fill="white"/>
<path d="M15.3367 28.7487C15.2142 28.6027 15.135 28.4414 15.1004 28.2707C15.064 28.0979 15.0748 27.9311 15.1309 27.7683C15.1853 27.6035 15.2851 27.4636 15.4269 27.3445C15.5687 27.2254 15.7258 27.1496 15.8975 27.1245C16.0674 27.0975 16.2314 27.1175 16.3972 27.1816C16.5592 27.2453 16.7022 27.3531 16.8264 27.5011C16.9316 27.6266 17.0039 27.7587 17.0452 27.8957C17.0849 28.0306 17.0936 28.1705 17.0683 28.3074L16.6916 28.2592C16.7236 28.0677 16.6773 27.8997 16.5566 27.7558C16.4824 27.6673 16.3966 27.6027 16.2989 27.5655C16.2012 27.5284 16.1009 27.5216 15.9982 27.5412C15.8956 27.5608 15.7982 27.6075 15.7098 27.6817C15.6214 27.756 15.5585 27.8438 15.5214 27.9416C15.4843 28.0394 15.4737 28.1394 15.4953 28.2404C15.5129 28.3449 15.5617 28.4406 15.6358 28.529C15.7566 28.673 15.9159 28.746 16.11 28.7477L16.0921 29.1273C15.9509 29.1302 15.8147 29.0973 15.6871 29.0328C15.5594 28.9683 15.4419 28.8742 15.3367 28.7487Z" fill="white"/>
<path d="M17.9099 30.4754L17.7058 30.7584L16.5265 29.9069L17.6255 28.3829L18.7765 29.2139L18.5724 29.497L17.7717 28.9188L17.5331 29.2498L18.2402 29.7603L18.0424 30.0347L17.3352 29.5241L17.0809 29.8768L17.9099 30.4754Z" fill="white"/>
<path d="M19.6358 31.6728L19.4916 31.0526L19.1199 30.9053L18.9273 31.3921L18.5231 31.232L19.2146 29.4846L19.9705 29.7841C20.1252 29.8454 20.25 29.9237 20.344 30.0216C20.4355 30.1185 20.4942 30.2255 20.519 30.3451C20.5439 30.4646 20.5294 30.5888 20.478 30.7186C20.4266 30.8484 20.3522 30.9489 20.2533 31.0166C20.1509 31.0857 20.035 31.1235 19.9005 31.128L20.0699 31.8448L19.6358 31.6728ZM20.0689 30.5565C20.1074 30.4592 20.1056 30.3689 20.064 30.2918C20.0223 30.2147 19.9399 30.1531 19.8177 30.1047L19.4884 29.9742L19.2473 30.5833L19.5766 30.7138C19.6989 30.7622 19.802 30.7713 19.8852 30.7436C19.9683 30.7159 20.0303 30.6539 20.0689 30.5565Z" fill="white"/>
<path d="M21.5322 30.5853L20.9375 30.4978L20.989 30.1472L22.6084 30.3853L22.5569 30.7359L21.9622 30.6485L21.7407 32.1573L21.3106 32.0941L21.5322 30.5853Z" fill="white"/>
<path d="M23.5281 30.3444L23.0935 30.3606L23.1635 32.2387L23.5981 32.2225L23.5281 30.3444Z" fill="white"/>
<path d="M24.6978 30.544L24.8121 31.0274L25.6581 30.8272L25.7383 31.1669L24.8923 31.3671L25.0498 32.0333L24.6267 32.1334L24.1946 30.3044L25.5759 29.9776L25.6562 30.3173L24.6978 30.544Z" fill="white"/>
<path d="M26.4796 29.5793L26.0813 29.7542L26.8359 31.4754L27.2342 31.3005L26.4796 29.5793Z" fill="white"/>
<path d="M29.1548 29.7248L29.3549 30.0107L28.163 30.8444L27.0857 29.3049L28.249 28.4912L28.4491 28.7771L27.6398 29.3432L27.8737 29.6775L28.5885 29.1775L28.7824 29.4547L28.0677 29.9546L28.317 30.3109L29.1548 29.7248Z" fill="white"/>
<path d="M28.6357 28.1807L29.1874 27.5294C29.3193 27.3738 29.4642 27.2609 29.6259 27.1904C29.7879 27.1237 29.9479 27.1009 30.1136 27.1253C30.2776 27.1518 30.4302 27.2249 30.5735 27.3465C30.7168 27.468 30.8139 27.6066 30.8668 27.7642C30.9181 27.9238 30.9219 28.0854 30.8806 28.2545C30.8376 28.4257 30.7521 28.589 30.6202 28.7446L30.0685 29.3959L28.6357 28.1807ZM30.3341 28.5301C30.4556 28.3867 30.5118 28.2373 30.5048 28.0836C30.4961 27.9319 30.4261 27.7987 30.289 27.6823C30.1518 27.566 30.0069 27.517 29.856 27.5333C29.7033 27.5516 29.5672 27.6333 29.4458 27.7767L29.189 28.0798L30.0774 28.8332L30.3341 28.5301Z" fill="white"/>
<path d="M16.5987 16.9727C16.4834 17.1244 16.3436 17.2374 16.1848 17.3088C16.0243 17.3825 15.8593 17.4088 15.6882 17.3901C15.5154 17.3735 15.3569 17.307 15.2094 17.195C15.062 17.083 14.9533 16.9465 14.891 16.7846C14.8271 16.6248 14.8104 16.4604 14.8362 16.2845C14.8625 16.1124 14.936 15.9492 15.053 15.7953C15.1521 15.6649 15.2649 15.5652 15.3894 15.4946C15.5122 15.4261 15.6467 15.3867 15.7858 15.3811L15.822 15.7592C15.6281 15.7704 15.4746 15.8526 15.3609 16.0022C15.2911 16.0941 15.247 16.1921 15.2323 16.2956C15.2177 16.3991 15.2332 16.4985 15.275 16.5942C15.3168 16.69 15.3839 16.7747 15.4758 16.8445C15.5677 16.9143 15.6673 16.9563 15.7708 16.9709C15.8744 16.9854 15.9743 16.9737 16.068 16.9303C16.166 16.8901 16.2485 16.8213 16.3184 16.7294C16.4321 16.5799 16.4681 16.4083 16.4268 16.2186L16.8009 16.1522C16.835 16.2893 16.833 16.4293 16.7983 16.5681C16.7636 16.7069 16.6978 16.8423 16.5987 16.9727Z" fill="white"/>
<path d="M18.4021 14.7774L18.6146 15.0542L17.4612 15.9405L16.3169 14.4501L17.4427 13.5851L17.6552 13.8619L16.872 14.4636L17.1205 14.7873L17.8121 14.2558L18.0181 14.5241L17.3265 15.0555L17.5913 15.4004L18.4021 14.7774Z" fill="white"/>
<path d="M20.2475 14.2852L19.7139 13.9382L19.344 14.0899L19.5424 14.5744L19.1402 14.7393L18.428 13.0002L19.1803 12.6918C19.3342 12.6287 19.4784 12.5985 19.614 12.6039C19.7471 12.6102 19.8635 12.6467 19.9642 12.7156C20.065 12.7846 20.1406 12.8841 20.1935 13.0133C20.2464 13.1425 20.2624 13.2665 20.2379 13.3839C20.212 13.5048 20.1546 13.6124 20.0608 13.709L20.6795 14.1081L20.2475 14.2852ZM19.7863 13.1803C19.7466 13.0834 19.6828 13.0196 19.5993 12.9929C19.5159 12.9662 19.4139 12.979 19.2922 13.0289L18.9645 13.1633L19.2127 13.7694L19.5405 13.6351C19.6621 13.5852 19.7428 13.5202 19.7835 13.4426C19.8242 13.3649 19.826 13.2772 19.7863 13.1803Z" fill="white"/>
<path d="M21.3978 12.4229L20.803 12.5087L20.7524 12.158L22.3724 11.9243L22.423 12.2751L21.8281 12.3609L22.0455 13.8703L21.6153 13.9323L21.3978 12.4229Z" fill="white"/>
<path d="M23.6628 11.9523L23.2283 11.9333L23.1464 13.8109L23.581 13.8299L23.6628 11.9523Z" fill="white"/>
<path d="M25.082 12.5007L24.962 12.9827L25.8055 13.1931L25.7212 13.5317L24.8776 13.3214L24.7122 13.9857L24.2904 13.8805L24.7446 12.0569L26.1219 12.4004L26.0375 12.739L25.082 12.5007Z" fill="white"/>
<path d="M27.3636 12.9341L26.968 12.7532L26.1872 14.4627L26.5827 14.6436L27.3636 12.9341Z" fill="white"/>
<path d="M28.6091 15.5342L28.403 15.8158L27.2292 14.9566L28.3389 13.4403L29.4845 14.2788L29.2784 14.5604L28.4815 13.9771L28.2405 14.3064L28.9443 14.8215L28.7446 15.0945L28.0408 14.5793L27.784 14.9302L28.6091 15.5342Z" fill="white"/>
<path d="M30.3542 15.0803L30.8781 15.7542C31.0033 15.9153 31.084 16.0804 31.1198 16.2532C31.1518 16.4255 31.1412 16.5868 31.0833 16.7441C31.0237 16.8993 30.9208 17.0337 30.7726 17.149C30.6243 17.2644 30.4687 17.331 30.3037 17.3505C30.1371 17.3679 29.9782 17.3385 29.8212 17.2633C29.6626 17.1861 29.5205 17.0688 29.3953 16.9078L28.8714 16.2338L30.3542 15.0803ZM29.6638 16.6716C29.7792 16.82 29.9138 16.9057 30.0656 16.9304C30.2157 16.9531 30.3605 16.9119 30.5024 16.8015C30.6443 16.6911 30.722 16.5592 30.7371 16.4081C30.7505 16.2548 30.6985 16.1048 30.5832 15.9565L30.3394 15.6428L29.42 16.358L29.6638 16.6716Z" fill="white"/>
<path d="M59.4889 12.6672V13.8821H52.395V4.10712H59.2934V5.32201H53.7914V8.32433H58.6929V9.51129H53.7914V12.6672H59.4889Z" fill="#471B4F"/>
<path d="M62.9517 7.24497H60.3363V6.4564H66.5135V7.24497H63.898V13.8821H62.9517V7.24497Z" fill="#471B4F"/>
<path d="M67.94 6.4564H68.8863V9.71583H73.3943V6.4564H74.3405V13.8821H73.3943V10.5175H68.8863V13.8821H67.94V6.4564Z" fill="#471B4F"/>
<path d="M77.104 6.4564H78.0503V13.8821H77.104V6.4564Z" fill="#471B4F"/>
<path d="M84.0333 13.961C83.2885 13.961 82.6139 13.7989 82.0093 13.4747C81.4047 13.1417 80.9272 12.6861 80.5767 12.1078C80.235 11.5295 80.0642 10.8812 80.0642 10.1627C80.0642 9.45297 80.235 8.80897 80.5767 8.23069C80.9272 7.6524 81.4047 7.19678 82.0093 6.86383C82.6139 6.53088 83.2885 6.3644 84.0333 6.3644C85.2512 6.3644 86.1931 6.7324 86.859 7.4684L86.2544 8.08612C85.6674 7.49031 84.9358 7.1924 84.0596 7.1924C83.4813 7.1924 82.96 7.32383 82.4956 7.58669C82.0312 7.84078 81.6676 8.19564 81.4047 8.65126C81.1419 9.09812 81.0104 9.60192 81.0104 10.1627C81.0104 10.7234 81.1419 11.2316 81.4047 11.6873C81.6676 12.1341 82.0312 12.489 82.4956 12.7518C82.96 13.0059 83.4813 13.133 84.0596 13.133C84.9533 13.133 85.6849 12.8351 86.2544 12.2393L86.859 12.857C86.1843 13.593 85.2424 13.961 84.0333 13.961Z" fill="#471B4F"/>
<path d="M93.1148 11.9633H88.9485L88.0811 13.8821H87.1348L90.5651 6.4564H91.4982L94.9285 13.8821H93.9822L93.1148 11.9633ZM92.7731 11.201L91.0382 7.35012L89.2902 11.201H92.7731Z" fill="#471B4F"/>
<path d="M96.3434 6.4564H97.2897V13.0935H101.43V13.8821H96.3434V6.4564Z" fill="#471B4F"/>
<path d="M52.395 18.8928H56.5145C57.5478 18.8928 58.4648 19.0976 59.2654 19.5073C60.0661 19.9169 60.6851 20.4941 61.1227 21.2388C61.5696 21.9743 61.793 22.8214 61.793 23.7803C61.793 24.7392 61.5696 25.591 61.1227 26.3358C60.6851 27.0712 60.0661 27.6438 59.2654 28.0534C58.4648 28.463 57.5478 28.6678 56.5145 28.6678H52.395V18.8928ZM56.4307 27.4529C57.222 27.4529 57.9156 27.2993 58.5114 26.9921C59.1165 26.6849 59.582 26.2567 59.9078 25.7074C60.2336 25.1488 60.3966 24.5065 60.3966 23.7803C60.3966 23.0542 60.2336 22.4165 59.9078 21.8672C59.582 21.3086 59.1165 20.8758 58.5114 20.5685C57.9156 20.2613 57.222 20.1077 56.4307 20.1077H53.7914V27.4529H56.4307Z" fill="#471B4F"/>
<path d="M68.472 26.749H64.3057L63.4382 28.6678H62.492L65.9222 21.2421H66.8554L70.2857 28.6678H69.3394L68.472 26.749ZM68.1302 25.9867L66.3954 22.1358L64.6474 25.9867H68.1302Z" fill="#471B4F"/>
<path d="M72.5265 22.0307H69.9111V21.2421H76.0882V22.0307H73.4728V28.6678H72.5265V22.0307Z" fill="#471B4F"/>
<path d="M81.679 26.749H77.5127L76.6453 28.6678H75.699L79.1293 21.2421H80.0624L83.4927 28.6678H82.5464L81.679 26.749ZM81.3373 25.9867L79.6024 22.1358L77.8544 25.9867H81.3373Z" fill="#471B4F"/>
<path d="M56.2073 33.6785C57.4734 33.6785 58.4695 33.9811 59.1956 34.5862C59.9218 35.1913 60.2848 36.0245 60.2848 37.0858C60.2848 38.1471 59.9218 38.9803 59.1956 39.5854C58.4695 40.1905 57.4734 40.4931 56.2073 40.4931H53.7914V43.4535H52.395V33.6785H56.2073ZM56.1654 39.2782C57.0498 39.2782 57.7247 39.092 58.1902 38.7196C58.6557 38.338 58.8884 37.7933 58.8884 37.0858C58.8884 36.3783 58.6557 35.8383 58.1902 35.466C57.7247 35.0843 57.0498 34.8934 56.1654 34.8934H53.7914V39.2782H56.1654Z" fill="#471B4F"/>
<path d="M67.0128 41.5347H62.8465L61.9791 43.4535H61.0328L64.4631 36.0278H65.3962L68.8265 43.4535H67.8802L67.0128 41.5347ZM66.6711 40.7724L64.9362 36.9215L63.1882 40.7724H66.6711Z" fill="#471B4F"/>
<path d="M75.3277 43.4535L73.6454 41.1141C73.4176 41.1316 73.2467 41.1404 73.1328 41.1404H71.1877V43.4535H70.2414V36.0278H73.1328C74.0967 36.0278 74.8546 36.2556 75.4066 36.7113C75.9586 37.1581 76.2346 37.7846 76.2346 38.5907C76.2346 39.1602 76.0856 39.6465 75.7877 40.0495C75.4986 40.4526 75.0824 40.7461 74.5391 40.9301L76.3528 43.4535H75.3277ZM73.0803 40.365C73.79 40.365 74.3332 40.2116 74.71 39.905C75.0955 39.5983 75.2883 39.1602 75.2883 38.5907C75.2883 38.0212 75.0999 37.5831 74.7231 37.2764C74.3464 36.9697 73.7987 36.8164 73.0803 36.8164H71.1877V40.365H73.0803Z" fill="#471B4F"/>
<path d="M79.6025 36.8164H76.9871V36.0278H83.1642V36.8164H80.5488V43.4535H79.6025V36.8164Z" fill="#471B4F"/>
<path d="M90.9913 36.0278V43.4535H90.2027L85.537 37.6575V43.4535H84.5907V36.0278H85.3793L90.045 41.8238V36.0278H90.9913Z" fill="#471B4F"/>
<path d="M99.1565 42.665V43.4535H93.7548V36.0278H98.9988V36.8164H94.7011V39.3004H98.5388V40.0758H94.7011V42.665H99.1565Z" fill="#471B4F"/>
<path d="M106.285 43.4535L104.603 41.1141C104.375 41.1316 104.204 41.1404 104.09 41.1404H102.145V43.4535H101.199V36.0278H104.09C105.054 36.0278 105.812 36.2556 106.364 36.7113C106.916 37.1581 107.192 37.7846 107.192 38.5907C107.192 39.1602 107.043 39.6465 106.745 40.0495C106.456 40.4526 106.04 40.7461 105.497 40.9301L107.31 43.4535H106.285ZM104.038 40.365C104.748 40.365 105.291 40.2116 105.668 39.905C106.053 39.5983 106.246 39.1602 106.246 38.5907C106.246 38.0212 106.057 37.5831 105.681 37.2764C105.304 36.9697 104.756 36.8164 104.038 36.8164H102.145V40.365H104.038Z" fill="#471B4F"/>
</svg>
