<svg width="100" height="100" viewBox="0 0 100 100" fill="none" xmlns="http://www.w3.org/2000/svg">
<ellipse cx="50.2325" cy="50.2376" rx="46.0465" ry="45.7385" fill="#471B4F"/>
<path d="M49.8186 30.6077C50.3835 30.6077 50.8414 30.1497 50.8414 29.5848V25.0228C50.8414 24.4579 50.3835 24 49.8186 24C49.2537 24 48.7957 24.4579 48.7957 25.0228V29.5848C48.7958 30.1497 49.2538 30.6077 49.8186 30.6077Z" fill="white"/>
<path d="M74.8206 59.1388L73.0137 57.337C72.3709 56.695 71.5142 56.3414 70.6013 56.3414C70.0177 56.3414 69.4573 56.4866 68.9608 56.7587L65.5558 53.3578L65.7217 53.1921C67.103 51.808 67.1025 49.5589 65.7216 48.1795C65.2281 47.6851 64.6123 47.3554 63.9411 47.2167C64.0335 46.8977 64.0821 46.5635 64.0821 46.2216C64.0821 45.2715 63.713 44.3806 63.045 43.7152C62.5514 43.2208 61.9357 42.8911 61.2645 42.7524C61.3569 42.4334 61.4055 42.0994 61.4055 41.7573C61.4055 40.8071 61.0365 39.9163 60.3673 39.2499C59.8619 38.7451 59.2406 38.4256 58.5883 38.2896C58.9373 37.0864 58.6391 35.7327 57.6925 34.7845C56.9046 33.9999 55.8354 33.6627 54.8051 33.772L48.0578 32.4949C47.0287 32.2997 45.7437 32.1706 44.9325 32.9105C44.8813 32.9572 44.8291 33.0109 44.7777 33.0707C43.5199 32.6123 42.053 32.8853 41.0458 33.8914C40.3776 34.5587 40.0095 35.4492 40.0095 36.3988C40.0095 36.7409 40.058 37.0749 40.1503 37.3941C39.4798 37.5327 38.8648 37.862 38.373 38.3547C37.7035 39.0215 37.3343 39.911 37.3336 40.8595C37.3333 41.2024 37.3819 41.5375 37.4747 41.8574C36.8039 41.9958 36.1885 42.3244 35.6951 42.8172C35.0256 43.486 34.657 44.377 34.657 45.3261C34.657 46.0531 34.874 46.7456 35.2762 47.3307C34.7684 47.5028 34.3032 47.7893 33.9137 48.1784C32.5315 49.5589 32.531 51.8081 33.9147 53.1943L34.0799 53.3588L30.6745 56.758C29.4089 56.1621 27.8496 56.3854 26.8053 57.4284L24.9972 59.2314C24.3541 59.8736 24.0001 60.7304 24 61.6438C24 62.5572 24.3541 63.4141 24.9972 64.0565L27.2537 66.3102C27.6533 66.7094 28.301 66.709 28.7001 66.3094C29.0994 65.9097 29.099 65.2621 28.6993 64.8629L26.4429 62.6092C26.1867 62.3534 26.0457 62.0105 26.0457 61.6439C26.0457 61.2773 26.1867 60.9346 26.4423 60.6793L28.2504 58.8763C28.7022 58.4251 29.3936 58.3578 29.9187 58.6718C29.9556 58.7273 29.9984 58.7801 30.0473 58.8292C30.135 58.917 30.235 58.9844 30.3413 59.0336L40.7101 69.3872C40.7594 69.4946 40.827 69.5956 40.9153 69.684C41.0012 69.77 41.0992 69.8365 41.2032 69.8855C41.4225 70.1334 41.5436 70.4501 41.5436 70.7879C41.5436 71.1545 41.4026 71.4973 41.1464 71.7531L39.3401 73.5573C38.8064 74.0887 37.9383 74.0886 37.4062 73.5589L35.1498 71.3023C34.7503 70.9028 34.1027 70.9028 33.7033 71.3023C33.3039 71.7017 33.3039 72.3493 33.7033 72.7488L35.9613 75.007C36.626 75.6689 37.4988 75.9997 38.372 75.9997C39.2455 75.9997 40.1193 75.6684 40.7848 75.0059L42.5922 73.2006C43.2353 72.5582 43.5894 71.7014 43.5894 70.7879C43.5894 70.136 43.4081 69.5134 43.071 68.9765L46.9036 65.1486C46.9077 65.1444 46.9117 65.1403 46.9159 65.1361C47.3548 64.6824 48.5769 64.7673 49.7587 64.8494C50.5985 64.9078 51.5347 64.9727 52.4493 64.8673L56.6463 69.0593C56.3744 69.555 56.2293 70.1146 56.2293 70.6974C56.2293 71.6099 56.5834 72.4662 57.2265 73.1086L59.0341 74.9139C59.6767 75.5558 60.5334 75.9095 61.4463 75.9095C62.359 75.9095 63.2157 75.5559 63.8585 74.9139L74.8213 63.9644C75.4644 63.3221 75.8185 62.4653 75.8185 61.5519C75.8184 60.6385 75.4643 59.7817 74.8206 59.1388V59.1388ZM47.6769 34.5048L52.1139 35.3446L49.4581 37.9994C49.0473 37.8019 48.4842 37.4337 47.8665 36.8428C47.021 36.0339 46.4162 35.1001 46.3612 34.5176C46.3611 34.5173 46.3611 34.517 46.3611 34.5167C46.3611 34.5166 46.361 34.5165 46.361 34.5164C46.357 34.4745 46.356 34.4411 46.3565 34.4156C46.4902 34.3831 46.8455 34.3471 47.6769 34.5048ZM42.4913 35.3387C43.0095 34.8211 43.8145 34.7613 44.4 35.1579C44.7318 36.5491 45.9186 37.81 46.4525 38.3208C46.8482 38.6994 48.1178 39.8346 49.3993 40.1466C49.5727 40.3951 49.667 40.6914 49.667 41.004C49.667 41.4067 49.5121 41.7832 49.2299 42.0651C48.9485 42.3471 48.5714 42.5023 48.168 42.5023C47.7645 42.5023 47.3874 42.3471 47.1046 42.0638L47.1045 42.0637L47.104 42.0632L42.4912 37.4588C42.21 37.1779 42.0551 36.8014 42.0551 36.3988C42.0552 35.9961 42.2101 35.6197 42.4913 35.3387V35.3387ZM39.8186 39.8021C40.1 39.5203 40.4767 39.365 40.8795 39.365C41.2828 39.365 41.6607 39.5206 41.944 39.8035L45.6583 43.5105C46.2432 44.0963 46.2432 45.0496 45.6604 45.6333C45.3774 45.9152 44.999 46.0704 44.5949 46.0704C44.1908 46.0704 43.8123 45.9152 43.5306 45.6346L43.5305 45.6345L40.7127 42.8172C40.7083 42.8128 40.7035 42.8088 40.699 42.8043L39.8175 41.9231C39.5346 41.6406 39.3789 41.2634 39.3792 40.861C39.3796 40.4599 39.5348 40.0847 39.8186 39.8021V39.8021ZM37.1408 44.2646C37.4224 43.9833 37.7999 43.8285 38.204 43.8285C38.6046 43.8285 38.9789 43.9811 39.2593 44.2575L42.0858 47.0826C42.3676 47.3634 42.5229 47.7394 42.5229 48.1416C42.5229 48.5437 42.3676 48.9198 42.0847 49.2016C41.8031 49.4828 41.426 49.6376 41.0227 49.6376C40.6188 49.6376 40.2405 49.4824 39.9585 49.2016L38.9339 48.1782C38.9337 48.1779 38.9334 48.1777 38.9332 48.1775L37.1409 46.3873C36.8583 46.1051 36.7028 45.7281 36.7028 45.3259C36.7028 44.9238 36.8583 44.5467 37.1408 44.2646V44.2646ZM35.3594 49.6257C35.6422 49.3431 36.0203 49.1875 36.4238 49.1875C36.8272 49.1875 37.2051 49.343 37.4878 49.6254L38.5139 50.6502C38.7959 50.9309 38.951 51.307 38.951 51.7092C38.951 52.1114 38.7958 52.4874 38.5118 52.7703C38.2304 53.0522 37.8533 53.2075 37.4498 53.2075C37.0463 53.2075 36.6692 53.0523 36.3858 52.7683L36.2573 52.6403C36.2556 52.6386 36.2543 52.6368 36.2526 52.6352C36.2507 52.6333 36.2487 52.6317 36.2467 52.6299L35.3604 51.747C34.7755 51.1609 34.775 50.2093 35.3594 49.6257ZM56.2035 61.2503C55.8043 60.8506 55.1566 60.8503 54.757 61.2494L53.847 62.1583C52.9823 63.023 51.4155 62.9141 49.9003 62.809C48.2549 62.6947 46.5534 62.5766 45.4524 63.707L41.6849 67.4699L32.2637 58.0625L35.5978 54.7344C36.1488 55.0722 36.7847 55.2533 37.4501 55.2533C38.4006 55.2533 39.2919 54.8848 39.9576 54.2178C40.6278 53.5504 40.997 52.6595 40.997 51.7093C40.997 51.7005 40.9964 51.6918 40.9964 51.6829C41.0053 51.683 41.0141 51.6835 41.0229 51.6835C41.9721 51.6835 42.8627 51.3162 43.5294 50.6503C44.1996 49.9829 44.5688 49.092 44.5688 48.1418C44.5688 48.133 44.5682 48.1243 44.5682 48.1154C44.5771 48.1154 44.586 48.116 44.5951 48.116C45.544 48.116 46.4351 47.7491 47.1062 47.0807C47.8029 46.3829 48.1476 45.4641 48.1409 44.5473C48.1501 44.5474 48.1592 44.5479 48.1684 44.5479C49.1189 44.5478 50.0101 44.1795 50.6769 43.5115C51.345 42.8441 51.7131 41.9536 51.7131 41.004C51.7131 40.3399 51.5325 39.705 51.1959 39.1551L54.1181 36.234C54.3359 36.0172 54.6044 35.8811 54.8858 35.8249C54.9163 35.8217 54.9464 35.8168 54.9761 35.8109C55.4277 35.7486 55.9019 35.888 56.2472 36.2319C56.8321 36.8178 56.8321 37.7711 56.2493 38.3548L55.3593 39.2412C55.3564 39.2441 55.3532 39.2468 55.3503 39.2497L54.3252 40.2731C53.9255 40.6722 53.925 41.3199 54.3243 41.7195C54.7236 42.1193 55.3712 42.1196 55.7707 41.7204L56.6643 40.8281C56.6645 40.8279 56.6647 40.8277 56.6649 40.8275L56.8 40.6929C57.3865 40.1118 58.3367 40.113 58.9226 40.6981C59.2046 40.9788 59.3599 41.3549 59.3599 41.7571C59.3599 42.1592 59.2046 42.5353 58.9204 42.8182L58.0253 43.7151C58.0252 43.7152 58.0251 43.7153 58.025 43.7155L57.0001 44.7363C56.5998 45.135 56.5985 45.7826 56.9971 46.1828C57.3957 46.583 58.0433 46.5843 58.4436 46.1857L59.4732 45.1603C59.7546 44.8783 60.1317 44.7231 60.5352 44.7231C60.9387 44.7231 61.3159 44.8783 61.5993 45.1623C61.8813 45.4431 62.0365 45.8192 62.0365 46.2214C62.0365 46.6235 61.8813 46.9996 61.5977 47.2819L59.8132 49.0671C59.4139 49.4666 59.414 50.1142 59.8134 50.5135C60.0132 50.7132 60.2748 50.8129 60.5366 50.8129C60.7984 50.8129 61.0602 50.713 61.2599 50.5132L62.1345 49.6384C62.1394 49.6336 62.1448 49.6294 62.1498 49.6244C62.4312 49.3425 62.8083 49.1873 63.2117 49.1873C63.6152 49.1873 63.9923 49.3425 64.2748 49.6255C64.8591 50.2091 64.8586 51.1608 64.2748 51.7456L63.3856 52.6337C63.3853 52.6341 63.3849 52.6344 63.3846 52.6347C63.3843 52.635 63.384 52.6354 63.3837 52.6357L61.9724 54.0453C61.5727 54.4445 61.5723 55.0922 61.9715 55.4918C62.1712 55.6918 62.4333 55.7918 62.6952 55.7918C62.9567 55.7918 63.2183 55.6921 63.418 55.4927L64.1083 54.8032L67.4169 58.108L57.9965 67.517L54.6212 64.1457C54.8565 63.9943 55.0816 63.8164 55.293 63.6051L56.2025 62.6967C56.6023 62.2976 56.6027 61.65 56.2035 61.2503V61.2503ZM73.3755 62.517L62.4127 73.4665C62.1563 73.7226 61.813 73.8637 61.4462 73.8637C61.0793 73.8637 60.736 73.7226 60.4795 73.4664L58.672 71.6611C58.4158 71.4054 58.2748 71.0631 58.2748 70.6974C58.2748 70.3318 58.4158 69.9895 58.672 69.7337L69.6348 58.7842C69.8913 58.5279 70.2345 58.3869 70.6014 58.3869C70.9683 58.3869 71.3116 58.5279 71.5687 58.7848L73.3756 60.5866C73.6318 60.8425 73.7728 61.1851 73.7728 61.5518C73.7727 61.9185 73.6317 62.2613 73.3755 62.517V62.517Z" fill="white"/>
<path d="M36.2367 29.7459C36.4364 29.9452 36.6978 30.0447 36.9593 30.0447C37.2213 30.0447 37.4834 29.9446 37.6832 29.7444C38.0822 29.3445 38.0816 28.697 37.6818 28.2979L33.9546 24.5782C33.5549 24.1792 32.9072 24.1797 32.5082 24.5796C32.1091 24.9795 32.1097 25.627 32.5096 26.0261L36.2367 29.7459Z" fill="white"/>
<path d="M62.6779 30.0447C62.9394 30.0447 63.201 29.9449 63.4007 29.7456L67.125 26.0257C67.5246 25.6266 67.5251 24.9789 67.1258 24.5793C66.7267 24.1796 66.0791 24.1792 65.6794 24.5785L61.9551 28.2983C61.5554 28.6975 61.555 29.3451 61.9542 29.7448C62.154 29.9447 62.4159 30.0447 62.6779 30.0447Z" fill="white"/>
<path d="M30.2892 67.9969C29.8932 68.3997 29.8987 69.0474 30.3016 69.4434L30.3045 69.4462C30.5033 69.6416 30.7613 69.7389 31.0193 69.7389C31.2841 69.7389 31.5489 69.6365 31.7494 69.4324C32.1454 69.0296 32.1384 68.3805 31.7356 67.9846C31.3329 67.5886 30.6854 67.5941 30.2892 67.9969V67.9969Z" fill="white"/>
<path d="M58.7051 59.7774C58.8607 59.7774 59.0185 59.7419 59.1667 59.6673C59.671 59.4129 59.8737 58.7978 59.6194 58.2934C59.3649 57.7891 58.7498 57.5864 58.2455 57.8408L58.2398 57.8436C57.7355 58.098 57.5357 58.7117 57.79 59.216C57.9696 59.5723 58.3307 59.7774 58.7051 59.7774V59.7774Z" fill="white"/>
<path fill-rule="evenodd" clip-rule="evenodd" d="M50.0005 97.9797C23.5021 97.9797 2.02027 76.4979 2.02027 49.9995C2.02027 23.5021 23.5021 2.02027 50.0005 2.02027C76.499 2.02027 97.9797 23.5021 97.9797 49.9995C97.9797 76.4979 76.499 97.9797 50.0005 97.9797ZM50.0005 0C22.3856 0 0 22.3856 0 49.9995C0 77.6144 22.3856 100 50.0005 100C77.6144 100 100 77.6144 100 49.9995C100 22.3856 77.6144 0 50.0005 0Z" fill="#471B4F"/>
</svg>
