<svg width="120" height="42" viewBox="0 0 120 42" fill="none" xmlns="http://www.w3.org/2000/svg">
<path fill-rule="evenodd" clip-rule="evenodd" d="M25.5014 6.00001C26.725 6.00001 27.9061 6.41973 28.875 7.19126V9H20.625C21.5881 7.21035 23.4129 6.00001 25.5014 6.00001ZM25.505 19.5C27.4465 19.5 29.3124 18.7874 30.759 17.4932L29.2927 15.857C28.2504 16.79 26.9051 17.3038 25.505 17.3038C22.3714 17.3038 19.8227 14.7564 19.8227 11.6249C19.8227 11.4237 19.8327 11.2245 19.8532 11.0289H31.125V6.0842L30.759 5.75705C29.3124 4.46279 27.4465 3.75 25.505 3.75C21.1601 3.75 17.625 7.28279 17.625 11.6249C17.625 15.9672 21.1601 19.5 25.505 19.5Z" fill="#FAFAFA"/>
<path fill-rule="evenodd" clip-rule="evenodd" d="M34.4477 7.09938C35.43 6.35555 36.6289 5.95089 37.87 5.95089C41.0033 5.95089 43.5523 8.5038 43.5523 11.6415V19.125H45.75V11.6415C45.75 7.29026 42.2151 3.75 37.87 3.75C35.9278 3.75 34.062 4.4643 32.6154 5.7613L32.25 6.08913V19.125H34.4477V7.09938Z" fill="#FAFAFA"/>
<path fill-rule="evenodd" clip-rule="evenodd" d="M61.5523 16.2055C60.57 16.937 59.3711 17.335 58.13 17.335C54.9967 17.335 52.4477 14.824 52.4477 11.7371V4.5H50.25V11.7371C50.25 16.0175 53.7849 19.5 58.13 19.5C60.0719 19.5 61.938 18.7976 63.3846 17.5218L63.75 17.1991V4.5H61.5523V16.2055Z" fill="#FAFAFA"/>
<path fill-rule="evenodd" clip-rule="evenodd" d="M69.4215 8.81226H67.737C67.1467 8.81226 67.0584 8.41623 67.0584 8.18035C67.0584 7.73115 67.3783 7.23515 67.9143 6.85337C68.5004 6.43565 69.6272 5.93753 71.6668 5.93753C73.0577 5.93753 74.3942 6.44926 75.4303 7.37872L76.887 5.74908C75.4499 4.45996 73.5962 3.75 71.6668 3.75C69.5968 3.75 67.8612 4.20665 66.6491 5.0706C65.5214 5.87372 64.875 7.00715 64.875 8.18035C64.875 9.78766 66.1056 11 67.737 11H69.4215C72.5344 11 75.0667 12.7804 75.0667 14.9684C75.0667 15.7977 74.6995 16.4632 74.3072 16.9375H65.3429V19.125H75.2319L75.5511 18.8106C76.6469 17.7291 77.25 16.3647 77.25 14.9684C77.25 11.574 73.738 8.81226 69.4215 8.81226Z" fill="#FAFAFA"/>
<path fill-rule="evenodd" clip-rule="evenodd" d="M9.45774 19.5C11.7879 19.5 14.0274 18.6345 15.7633 17.0629L16.125 16.7358V8.84005H9.45774V11.0349H13.9541V15.7344C12.6743 16.7507 11.0953 17.3053 9.45774 17.3053C5.43958 17.3053 2.17064 14.0002 2.17064 9.9375C2.17064 5.87483 5.43958 2.56968 9.45774 2.56968C11.2529 2.56968 12.978 3.23652 14.3155 4.44706L15.7633 2.81209C14.0274 1.2405 11.7879 0.375 9.45774 0.375C4.24293 0.375 0 4.66493 0 9.9375C0 15.2103 4.24293 19.5 9.45774 19.5Z" fill="#FAFAFA"/>
<path fill-rule="evenodd" clip-rule="evenodd" d="M46.875 19.125H49.125V4.5H46.875V19.125Z" fill="#FAFAFA"/>
<path fill-rule="evenodd" clip-rule="evenodd" d="M48 0C47.1714 0 46.5 0.67134 46.5 1.4999C46.5 2.32846 47.1714 3 48 3C48.8286 3 49.5 2.32846 49.5 1.4999C49.5 0.67134 48.8286 0 48 0Z" fill="#FAFAFA"/>
<path fill-rule="evenodd" clip-rule="evenodd" d="M27.3663 33.375H17.25V24.375H22.883C25.9801 24.375 28.5 26.8947 28.5 29.9921C28.5 31.2191 28.1004 32.4038 27.3663 33.375ZM22.8831 22.125H15V40.125H17.1939V35.4237H28.4183L28.7451 35.0633C30.038 33.6385 30.75 31.8003 30.75 29.8875C30.75 25.6074 27.2206 22.125 22.8831 22.125Z" fill="#FAFAFA"/>
<path fill-rule="evenodd" clip-rule="evenodd" d="M31.875 40.125H34.125V22.125H31.875V40.125Z" fill="#FAFAFA"/>
<path fill-rule="evenodd" clip-rule="evenodd" d="M47.25 34.1378C47.25 36.1985 45.6176 37.875 43.6112 37.875H38.2808C38.2603 37.6743 38.25 37.4722 38.25 37.2693C38.25 34.0881 40.7697 31.5 43.867 31.5C45.094 31.5 46.279 31.9102 47.25 32.6643V34.1378ZM43.88 24.375C41.9387 24.375 40.0729 25.0876 38.6263 26.3818L40.0917 28.018C41.1349 27.085 42.4802 26.5712 43.88 26.5712C45.1213 26.5712 46.32 26.9751 47.3023 27.7171V30.2386C46.2439 29.728 45.0764 29.4574 43.88 29.4574C39.5351 29.4574 36 32.9902 36 37.3326C36 37.999 36.0833 38.661 36.2483 39.3007L36.4611 40.125H43.6212C46.8625 40.125 49.5 37.4897 49.5 34.2501V26.7092L49.1339 26.3818C47.6873 25.0876 45.8217 24.375 43.88 24.375Z" fill="#FAFAFA"/>
<path fill-rule="evenodd" clip-rule="evenodd" d="M75 34.1378C75 36.1985 73.3677 37.875 71.3613 37.875H66.0302C66.0104 37.6743 66 37.4722 66 37.2693C66 34.0881 68.5203 31.5 71.6171 31.5C72.8447 31.5 74.029 31.9102 75 32.6643V34.1378ZM71.6301 24.375C69.6888 24.375 67.823 25.0876 66.3764 26.3818L67.8418 28.018C68.8849 27.085 70.2303 26.5712 71.6301 26.5712C72.872 26.5712 74.0701 26.9751 75.0524 27.7171V30.2386C73.994 29.728 72.8265 29.4574 71.6301 29.4574C67.2851 29.4574 63.75 32.9902 63.75 37.3326C63.75 37.999 63.8334 38.661 63.9983 39.3007L64.2105 40.125H71.3713C74.6132 40.125 77.25 37.4897 77.25 34.2501V26.7092L76.8846 26.3818C75.438 25.0876 73.5722 24.375 71.6301 24.375Z" fill="#FAFAFA"/>
<path fill-rule="evenodd" clip-rule="evenodd" d="M50.9363 26.7416L52.3823 28.399C53.6917 27.2296 55.3829 26.5856 57.1433 26.5856C58.0657 26.5856 58.9564 26.7558 59.7865 27.0862C54.9946 29.3069 51.4345 33.5267 50.0609 38.7516C50.0609 38.7516 49.9001 39.2973 49.875 40.125C50.2151 40.125 62.4768 40.1244 62.4768 40.1244V37.9137L52.6103 37.9144C54.2685 33.3477 57.9255 29.8253 62.625 28.3502V26.1673C61.0395 25.0134 59.1123 24.375 57.1433 24.375C54.8499 24.375 52.6457 25.2154 50.9363 26.7416Z" fill="#FAFAFA"/>
<path fill-rule="evenodd" clip-rule="evenodd" d="M106.976 26.5275C106.544 26.9752 106.092 27.3519 105.692 27.6846C105.364 27.958 105.049 28.221 104.764 28.5H102.174V27.0721C102.174 26.3025 102.432 26.0635 102.997 25.5395C103.219 25.3342 103.47 25.1011 103.719 24.8123C104.693 23.6885 105.229 22.2231 105.229 20.6859V20.2477L102.892 18.0256L101.602 19.2513L100.312 18.0258L99.0227 19.2513L97.7332 18.0256L95.396 20.2477V20.6859C95.396 22.2231 95.9319 23.6885 96.9051 24.812C97.1513 25.0965 97.399 25.327 97.628 25.5397C98.1935 26.0637 98.4517 26.3029 98.4517 27.0721V28.5H95.861C95.5762 28.2214 95.261 27.9584 94.9325 27.684C94.554 27.3693 94.0835 26.9779 93.649 26.5277C92.0215 24.8397 91.125 22.6275 91.125 20.2986C91.125 15.3093 95.2465 11.25 100.312 11.25C105.379 11.25 109.5 15.3093 109.5 20.2986C109.5 22.6275 108.604 24.8397 106.976 26.5275ZM98.6215 24.9024C98.402 24.6978 98.1949 24.5043 97.9878 24.2642C97.2072 23.36 96.7694 22.1805 96.75 20.934L97.8598 19.8752L99.1797 21.134L100.5 19.875L101.82 21.134L103.14 19.8752L104.25 20.934C104.23 22.1801 103.792 23.3598 103.011 24.2649C102.801 24.5086 102.582 24.7134 102.369 24.9108C101.729 25.5068 101.123 26.07 101.123 27.4081V28.875H99.8771V27.4081C99.8771 26.0702 99.2715 25.5068 98.6215 24.9024ZM100.312 9C94.0057 9 88.875 14.0702 88.875 20.3022C88.875 23.211 89.9909 25.9741 92.0177 28.0834C92.5379 28.6241 93.0622 29.0614 93.4821 29.412C93.9025 29.7642 94.2656 30.0684 94.5153 30.3618L94.8456 30.75H105.779L106.109 30.362C106.36 30.0675 106.723 29.764 107.143 29.4128C107.565 29.0604 108.091 28.6212 108.608 28.083C110.634 25.9741 111.75 23.211 111.75 20.3022C111.75 14.0702 106.619 9 100.312 9Z" fill="#FAFAFA"/>
<path fill-rule="evenodd" clip-rule="evenodd" d="M100.043 41.25C102.645 41.25 104.784 39.2668 105 36.75L95.6249 38.5886C96.4544 40.167 98.1216 41.25 100.043 41.25Z" fill="#FAFAFA"/>
<path fill-rule="evenodd" clip-rule="evenodd" d="M95.1141 33.4325V34.875L104.789 32.8775C104.824 32.499 104.894 32.1682 105 31.875H94.875C95.0316 32.3036 95.1141 32.8033 95.1141 33.4325Z" fill="#FAFAFA"/>
<path fill-rule="evenodd" clip-rule="evenodd" d="M95.4335 37.5L105 35.6355V33.75L95.25 35.6507C95.25 36.3367 95.3207 37.1047 95.4335 37.5Z" fill="#FAFAFA"/>
<path fill-rule="evenodd" clip-rule="evenodd" d="M111.375 13.9151C111.885 14.8381 112.288 15.83 112.57 16.875C113.284 16.8181 114.1 16.6184 114.931 16.2649C117.061 15.359 118.46 13.8108 118.055 12.8075C117.651 11.8039 115.596 11.7251 113.466 12.6312C112.634 12.9847 111.919 13.4366 111.375 13.9151Z" fill="#FAFAFA"/>
<path fill-rule="evenodd" clip-rule="evenodd" d="M89.9286 12.375C90.6053 11.51 91.385 10.7305 92.25 10.0538C91.9086 9.38087 91.3898 8.66426 90.7197 7.99414C89.0036 6.27804 86.9742 5.52498 86.1871 6.31209C85.4 7.09942 86.1529 9.12876 87.869 10.8446C88.5391 11.515 89.2559 12.0336 89.9286 12.375Z" fill="#FAFAFA"/>
<path fill-rule="evenodd" clip-rule="evenodd" d="M87 21.7768C86.9362 21.2761 86.8995 20.7673 86.8995 20.25C86.8995 19.7327 86.9362 19.2241 87 18.7232C86.3018 18.5053 85.4514 18.375 84.5288 18.375C82.1658 18.375 80.25 19.2145 80.25 20.25C80.25 21.2855 82.1658 22.125 84.5288 22.125C85.4514 22.125 86.3018 21.9949 87 21.7768Z" fill="#FAFAFA"/>
<path fill-rule="evenodd" clip-rule="evenodd" d="M84.9438 16.2649C85.7745 16.6184 86.5911 16.8181 87.3053 16.875C87.5867 15.83 87.9903 14.8381 88.5 13.9151C87.9558 13.4366 87.2406 12.9847 86.4095 12.6312C84.2793 11.7251 82.2245 11.8039 81.8197 12.8075C81.4149 13.8108 82.8136 15.359 84.9438 16.2649Z" fill="#FAFAFA"/>
<path fill-rule="evenodd" clip-rule="evenodd" d="M93.7902 8.625C94.7131 8.11509 95.705 7.71156 96.75 7.43016C96.6931 6.716 96.4934 5.8996 96.1399 5.06869C95.2338 2.93863 93.6858 1.53996 92.6824 1.94473C91.679 2.34951 91.6 4.40429 92.5061 6.53435C92.8596 7.36546 93.3117 8.08087 93.7902 8.625Z" fill="#FAFAFA"/>
<path fill-rule="evenodd" clip-rule="evenodd" d="M110.321 12.375C110.994 12.0336 111.711 11.515 112.381 10.8446C114.097 9.12876 114.85 7.09942 114.063 6.31209C113.276 5.52498 111.246 6.27804 109.53 7.99414C108.86 8.66426 108.341 9.38087 108 10.0538C108.865 10.7305 109.644 11.51 110.321 12.375Z" fill="#FAFAFA"/>
<path fill-rule="evenodd" clip-rule="evenodd" d="M100.125 7.02447C100.642 7.02447 101.151 7.06103 101.652 7.125C101.87 6.4266 102 5.57623 102 4.65361C102 2.29061 101.161 0.375 100.125 0.375C99.0894 0.375 98.25 2.29061 98.25 4.65361C98.25 5.57623 98.3802 6.4266 98.598 7.125C99.0989 7.06103 99.6078 7.02447 100.125 7.02447Z" fill="#FAFAFA"/>
<path fill-rule="evenodd" clip-rule="evenodd" d="M106.46 8.625C106.938 8.08067 107.39 7.36546 107.744 6.53435C108.65 4.40429 108.571 2.34951 107.567 1.94473C106.564 1.53996 105.016 2.93863 104.11 5.06869C103.757 5.8996 103.557 6.716 103.5 7.43016C104.545 7.71156 105.537 8.11509 106.46 8.625Z" fill="#FAFAFA"/>
<path fill-rule="evenodd" clip-rule="evenodd" d="M89.9286 28.5C89.2559 28.8414 88.5391 29.36 87.869 30.0304C86.1529 31.7462 85.4 33.7756 86.1871 34.5629C86.9742 35.35 89.0036 34.597 90.7197 32.8811C91.3898 32.2107 91.9086 31.4941 92.25 30.8212C91.385 30.1445 90.6053 29.365 89.9286 28.5Z" fill="#FAFAFA"/>
<path fill-rule="evenodd" clip-rule="evenodd" d="M110.321 28.5C109.644 29.365 108.865 30.1445 108 30.8212C108.341 31.4941 108.86 32.2107 109.53 32.8811C111.246 34.597 113.276 35.35 114.063 34.5629C114.85 33.7756 114.097 31.7462 112.381 30.0304C111.711 29.36 110.994 28.8414 110.321 28.5Z" fill="#FAFAFA"/>
<path fill-rule="evenodd" clip-rule="evenodd" d="M114.931 24.2351C114.1 23.8816 113.284 23.6819 112.57 23.625C112.288 24.67 111.885 25.6619 111.375 26.5849C111.919 27.0634 112.634 27.5152 113.466 27.869C115.596 28.7749 117.651 28.6961 118.055 27.6926C118.46 26.689 117.061 25.1412 114.931 24.2351Z" fill="#FAFAFA"/>
<path fill-rule="evenodd" clip-rule="evenodd" d="M88.5 26.5849C87.9903 25.6619 87.5867 24.67 87.3053 23.625C86.5911 23.6819 85.7745 23.8816 84.9438 24.2351C82.8136 25.1412 81.4149 26.689 81.8197 27.6926C82.2245 28.6961 84.2793 28.7749 86.4095 27.869C87.2406 27.5152 87.9558 27.0634 88.5 26.5849Z" fill="#FAFAFA"/>
<path fill-rule="evenodd" clip-rule="evenodd" d="M115.721 18.375C114.799 18.375 113.948 18.5053 113.25 18.7232C113.314 19.2241 113.351 19.7327 113.351 20.25C113.351 20.7673 113.314 21.2761 113.25 21.7768C113.948 21.9949 114.799 22.125 115.721 22.125C118.084 22.125 120 21.2855 120 20.25C120 19.2145 118.084 18.375 115.721 18.375Z" fill="#FAFAFA"/>
</svg>
