<svg width="120" height="40" viewBox="0 0 120 40" fill="none" xmlns="http://www.w3.org/2000/svg">
<path fill-rule="evenodd" clip-rule="evenodd" d="M87.5623 19.4702C87.5623 13.3158 92.737 8.30615 99.096 8.30615C105.455 8.30615 110.63 13.3158 110.63 19.4702C110.629 22.3436 109.492 25.1024 107.461 27.1557C106.995 27.6194 106.503 28.0568 105.987 28.4661C105.61 28.7512 105.257 29.0658 104.931 29.4067L104.597 29.7902H93.5841L93.2497 29.4067C92.9286 29.0676 92.5811 28.754 92.2103 28.4688C91.6948 28.0605 91.2035 27.623 90.739 27.1585C88.7041 25.1063 87.5635 22.3459 87.5623 19.4702ZM104.533 26.7778C104.988 26.4177 105.422 26.0327 105.834 25.6247C107.474 23.9677 108.392 21.7403 108.392 19.4206C108.392 14.4551 104.212 10.4055 99.0793 10.4055C93.9463 10.4055 89.7664 14.4496 89.7664 19.4206C89.7662 21.7403 90.6846 23.9677 92.3245 25.6247C92.7377 26.0313 93.172 26.4162 93.6259 26.7778C93.9603 27.0536 94.2779 27.313 94.5678 27.5888H103.591C103.869 27.313 104.184 27.0619 104.51 26.7971L104.533 26.7778Z" fill="#1ABAB1"/>
<path d="M104.966 14.9438C104.56 14.9438 104.231 15.2732 104.231 15.6796V18.496C104.231 18.9014 104.073 19.2826 103.786 19.5693L102.39 20.9656L101.837 20.4124L103.233 19.0161C103.52 18.7293 103.52 18.2627 103.233 17.9759C102.946 17.6891 102.48 17.6891 102.193 17.9759L100.52 19.6484C99.8141 20.3545 99.4175 21.3122 99.4175 22.3107V25.2424H103.399V23.8668L105.702 19.9298V15.6796C105.702 15.2732 105.373 14.9438 104.966 14.9438Z" fill="#1ABAB1"/>
<path d="M96.1642 17.9759C95.8775 17.6891 95.4108 17.6891 95.124 17.9759C94.8372 18.2627 94.8372 18.7293 95.124 19.0161L96.5203 20.4124L95.9672 20.9656L94.5708 19.5693C94.2841 19.2826 94.1263 18.9014 94.1263 18.496V15.6796C94.1263 15.2732 93.7969 14.9438 93.3905 14.9438C92.9842 14.9438 92.6548 15.2732 92.6548 15.6796V19.9298L94.9577 23.8668V25.2424H98.9395V22.3107C98.9395 21.3122 98.5428 20.3545 97.8367 19.6484L96.1642 17.9759Z" fill="#1ABAB1"/>
<path fill-rule="evenodd" clip-rule="evenodd" d="M98.9735 39.9998C100.207 40.0103 101.4 39.5629 102.316 38.7459C103.233 37.9288 103.807 36.8015 103.925 35.5861L94.5596 37.3847C94.9861 38.1762 95.6224 38.8379 96.4 39.2986C97.1776 39.7593 98.0673 40.0017 98.9735 39.9998Z" fill="#5DA8CB"/>
<path fill-rule="evenodd" clip-rule="evenodd" d="M94.1051 32.2426V33.6219L104.095 31.724C104.124 31.3949 104.197 31.0711 104.312 30.7612H93.8599C94.034 31.2356 94.1171 31.738 94.1051 32.2426Z" fill="#5DA8CB"/>
<path fill-rule="evenodd" clip-rule="evenodd" d="M94.2946 36.466L104.048 34.5929V32.6949L94.1051 34.6067C94.096 35.2316 94.1596 35.8554 94.2946 36.466Z" fill="#5DA8CB"/>
<path fill-rule="evenodd" clip-rule="evenodd" d="M110.66 13.0758C111.193 13.9892 111.609 14.965 111.897 15.9806C112.742 15.9034 113.571 15.7016 114.355 15.382C116.584 14.4909 118.028 12.9737 117.607 11.9889C117.186 11.004 115.046 10.9268 112.828 11.8151C112.045 12.1243 111.314 12.5494 110.66 13.0758Z" fill="#1ABAB1"/>
<path fill-rule="evenodd" clip-rule="evenodd" d="M88.5933 11.4923C89.265 10.6619 90.036 9.9153 90.8895 9.2689C90.4899 8.53801 89.9786 7.87268 89.3736 7.2965C87.6766 5.65513 85.6702 4.93513 84.8927 5.68823C84.1153 6.44133 84.8593 8.38339 86.5647 10.0275C87.1611 10.6159 87.8453 11.1099 88.5933 11.4923Z" fill="#1ABAB1"/>
<path fill-rule="evenodd" clip-rule="evenodd" d="M85.8706 20.993C85.7369 19.9489 85.7369 18.8923 85.8706 17.8482C85.0578 17.6035 84.2122 17.4825 83.3627 17.4895C80.9607 17.4895 79.0156 18.353 79.0156 19.4206C79.0156 20.4882 80.9662 21.3516 83.3627 21.3516C84.2122 21.3585 85.0578 21.2376 85.8706 20.993Z" fill="#1ABAB1"/>
<path fill-rule="evenodd" clip-rule="evenodd" d="M83.7949 15.382C84.5821 15.7024 85.4134 15.9042 86.261 15.9806C86.551 14.9642 86.9695 13.9882 87.5066 13.0758C86.85 12.5487 86.1161 12.1236 85.3303 11.8151C83.101 10.9268 80.9721 11.004 80.5513 11.9889C80.1305 12.9737 81.5768 14.4909 83.7949 15.382Z" fill="#1ABAB1"/>
<path fill-rule="evenodd" clip-rule="evenodd" d="M92.5251 8.20961C93.4712 7.68906 94.4782 7.28513 95.5235 7.00686C95.4456 6.18532 95.2348 5.38152 94.8993 4.62618C93.9881 2.48274 92.4192 1.07033 91.4021 1.47861C90.385 1.88688 90.3042 3.96136 91.221 6.10203C91.5419 6.86763 91.982 7.57876 92.5251 8.20961Z" fill="#1ABAB1"/>
<path fill-rule="evenodd" clip-rule="evenodd" d="M109.565 11.4923C110.316 11.1099 111.003 10.6159 111.602 10.0275C113.299 8.37236 114.043 6.44133 113.274 5.68823C112.505 4.93513 110.487 5.65513 108.793 7.2965C108.188 7.87268 107.677 8.53801 107.277 9.2689C108.128 9.91581 108.896 10.6624 109.565 11.4923Z" fill="#1ABAB1"/>
<path fill-rule="evenodd" clip-rule="evenodd" d="M99.0792 6.5379C99.6222 6.53895 100.165 6.57211 100.704 6.63721C100.955 5.85146 101.08 5.03115 101.072 4.20688C101.072 1.88413 100.194 0 99.0792 0C97.9646 0 97.0868 1.88413 97.0868 4.20688C97.0788 5.03115 97.2029 5.85146 97.4546 6.63721C97.9937 6.57202 98.5362 6.53886 99.0792 6.5379Z" fill="#1ABAB1"/>
<path fill-rule="evenodd" clip-rule="evenodd" d="M105.633 8.20961C106.176 7.57876 106.617 6.86763 106.937 6.10203C107.854 3.95584 107.773 1.88688 106.756 1.47861C105.739 1.07033 104.17 2.48274 103.259 4.62618C102.928 5.38238 102.72 6.18599 102.643 7.00686C103.686 7.28577 104.69 7.68968 105.633 8.20961Z" fill="#1ABAB1"/>
<path fill-rule="evenodd" clip-rule="evenodd" d="M88.5931 27.3489C87.841 27.7288 87.1536 28.2231 86.5561 28.8137C84.8591 30.4689 84.1122 32.3999 84.8841 33.153C85.656 33.9061 87.6707 33.1861 89.365 31.542C89.9712 30.9669 90.4827 30.3014 90.8809 29.5696C90.0298 28.9244 89.2615 28.1786 88.5931 27.3489Z" fill="#1ABAB1"/>
<path fill-rule="evenodd" clip-rule="evenodd" d="M109.565 27.3489C108.893 28.1743 108.122 28.9154 107.269 29.5558C107.668 30.2872 108.179 30.9526 108.785 31.5282C110.482 33.1833 112.488 33.8923 113.266 33.1392C114.043 32.3861 113.299 30.444 111.594 28.7999C110.997 28.2154 110.313 27.7259 109.565 27.3489Z" fill="#1ABAB1"/>
<path fill-rule="evenodd" clip-rule="evenodd" d="M114.364 23.4482C113.577 23.1289 112.745 22.9308 111.897 22.8606C111.608 23.8769 111.189 24.8529 110.652 25.7654C111.311 26.2961 112.047 26.7241 112.837 27.0344C115.066 27.9226 117.195 27.8454 117.616 26.8606C118.036 25.8758 116.582 24.3475 114.364 23.4482Z" fill="#1ABAB1"/>
<path fill-rule="evenodd" clip-rule="evenodd" d="M87.4982 25.7654C86.9651 24.852 86.5494 23.8761 86.2609 22.8606C85.4136 22.9318 84.582 23.1299 83.7948 23.4482C81.5655 24.3364 80.1221 25.8564 80.5428 26.8413C80.9636 27.8261 83.1037 27.9033 85.3218 27.0151C86.107 26.71 86.8408 26.2886 87.4982 25.7654Z" fill="#1ABAB1"/>
<path fill-rule="evenodd" clip-rule="evenodd" d="M114.796 17.4895C113.946 17.4825 113.1 17.6035 112.288 17.8482C112.421 18.8923 112.421 19.9489 112.288 20.993C113.101 21.2367 113.946 21.3566 114.796 21.3488C117.198 21.3488 119.143 20.4854 119.143 19.4178C119.143 18.3502 117.192 17.4895 114.796 17.4895Z" fill="#1ABAB1"/>
<path d="M15.2715 26.7367H17.1662V38.3514H24.3472V39.9998H15.2715V26.7367Z" fill="#5DA8CB"/>
<path d="M33.2225 38.9893V39.9998H26.3004V30.484H33.0203V31.4946H27.513V34.6777H32.4309V35.6714H27.513V38.9893H33.2225Z" fill="#5DA8CB"/>
<path d="M41.7682 37.5409H36.4293L35.3177 39.9998H34.1051L38.5008 30.484H39.6966L44.0924 39.9998H42.8798L41.7682 37.5409ZM41.3303 36.564L39.1072 31.6293L36.8672 36.564H41.3303Z" fill="#5DA8CB"/>
<path d="M45.9056 30.484H49.8971C50.9525 30.484 51.8732 30.6862 52.6592 31.0904C53.4452 31.4833 54.0459 32.0391 54.4613 32.7577C54.888 33.4651 55.1013 34.2903 55.1013 35.2335C55.1013 36.1767 54.888 37.0075 54.4613 37.7261C54.0459 38.4447 53.4452 39.0061 52.6592 39.4103C51.8732 39.8033 50.9525 39.9998 49.8971 39.9998H45.9056V30.484ZM49.8466 38.9893C51.1153 38.9893 52.1034 38.6524 52.8108 37.9788C53.5294 37.2938 53.8887 36.3788 53.8887 35.2335C53.8887 34.0995 53.5294 33.1956 52.8108 32.5219C52.1034 31.837 51.1153 31.4946 49.8466 31.4946H47.1182V38.9893H49.8466Z" fill="#5DA8CB"/>
<path d="M64.6039 38.9893V39.9998H57.6818V30.484H64.4018V31.4946H58.8944V34.6777H63.8123V35.6714H58.8944V38.9893H64.6039Z" fill="#5DA8CB"/>
<path d="M73.7391 39.9998L71.5833 37.0019C71.2914 37.0244 71.0724 37.0356 70.9265 37.0356H68.4339V39.9998H67.2212V30.484H70.9265C72.1616 30.484 73.1328 30.776 73.8402 31.3598C74.5475 31.9325 74.9012 32.7353 74.9012 33.7682C74.9012 34.4981 74.7103 35.1212 74.3286 35.6377C73.958 36.1542 73.4247 36.5303 72.7286 36.7661L75.0528 39.9998H73.7391ZM70.8591 36.0419C71.7686 36.0419 72.4647 35.8454 72.9475 35.4524C73.4416 35.0595 73.6886 34.4981 73.6886 33.7682C73.6886 33.0384 73.4472 32.477 72.9644 32.084C72.4816 31.6911 71.7798 31.4946 70.8591 31.4946H68.4339V36.0419H70.8591Z" fill="#5DA8CB"/>
<path fill-rule="evenodd" clip-rule="evenodd" d="M46.281 5.48932C46.5253 5.32764 46.8126 5.24133 47.1064 5.24133C47.4999 5.24133 47.8772 5.39586 48.1557 5.67101C48.4342 5.94615 48.591 6.31943 48.5917 6.70891C48.5923 6.99984 48.5056 7.28438 48.3427 7.52654C48.1799 7.7687 47.9481 7.95758 47.6768 8.06929C47.4054 8.181 47.1067 8.21051 46.8184 8.15409C46.5301 8.09767 46.2652 7.95785 46.0572 7.75233C45.8492 7.54681 45.7075 7.28483 45.6499 6.99954C45.5924 6.71424 45.6216 6.41847 45.734 6.14964C45.8463 5.88081 46.0367 5.65101 46.281 5.48932ZM15.2028 21.9529C13.493 23.4889 11.2668 24.3395 8.958 24.3391L8.96079 24.3447C6.5405 24.2146 4.26261 23.1711 2.59579 21.429C0.928975 19.687 0 17.3787 0 14.9792C0 12.5797 0.928975 10.2714 2.59579 8.52932C4.26261 6.78722 6.5405 5.74379 8.96079 5.61371C11.2686 5.61402 13.4937 6.46463 15.2028 7.99991L13.7677 9.59714C12.4511 8.41345 10.7365 7.7575 8.958 7.75715C7.02464 7.75715 5.17047 8.51746 3.80338 9.87082C2.43629 11.2242 1.66827 13.0597 1.66827 14.9737C1.66827 16.8876 2.43629 18.7232 3.80338 20.0765C5.17047 21.4299 7.02464 22.1902 8.958 22.1902C10.5775 22.1926 12.1498 21.6498 13.4166 20.6509V16.0578H8.958V13.9061H15.5594V21.6302L15.2028 21.9529ZM24.8388 11.1171C26.055 11.1181 27.2346 11.5297 28.1827 12.284V14.0688H20.0124C20.4708 13.1898 21.1621 12.4507 22.0123 11.9307C22.8624 11.4107 23.8395 11.1295 24.8388 11.1171ZM24.8401 24.3391C26.7586 24.3402 28.6098 23.6397 30.0385 22.3722L28.5895 20.7695C27.7812 21.4859 26.7808 21.9555 25.7089 22.1217C24.6371 22.2879 23.5395 22.1436 22.5487 21.7062C21.5578 21.2688 20.7159 20.557 20.1244 19.6566C19.533 18.7562 19.2173 17.7056 19.2154 16.6316C19.2144 16.4362 19.2247 16.241 19.2461 16.0468H30.3924V11.1999L30.0302 10.8799C29.0889 10.0392 27.9548 9.43831 26.7261 9.12911C25.4974 8.81992 24.2112 8.81176 22.9786 9.10534C21.746 9.39893 20.6043 9.98542 19.6521 10.8141C18.7 11.6427 17.9662 12.6885 17.5142 13.8611C17.0622 15.0336 16.9056 16.2975 17.0579 17.5434C17.2103 18.7894 17.667 19.9798 18.3886 21.0117C19.1102 22.0435 20.0749 22.8858 21.1993 23.4656C22.3232 24.0452 23.5729 24.345 24.8401 24.3391ZM33.6946 12.193C34.5298 11.5696 35.524 11.1891 36.5656 11.0943C37.6072 10.9995 38.6548 11.1942 39.5908 11.6565C40.5268 12.1187 41.3139 12.8303 41.8638 13.7111C42.4137 14.592 42.7046 15.6072 42.7037 16.6426V23.9723H44.88V16.6426C44.8797 15.1522 44.4439 13.6937 43.625 12.4429C42.8062 11.1922 41.6393 10.2028 40.2651 9.59386C38.8909 8.98496 37.3681 8.78266 35.8804 9.01134C34.3926 9.24002 33.0035 9.88993 31.8805 10.8827L31.5183 11.2054V23.9723H33.6946V12.193ZM57.1327 22.2151C58.3527 22.2179 59.5411 21.8309 60.5212 21.1116H60.524V9.65512H62.6975V22.0937L62.338 22.4082C60.8991 23.6573 59.0493 24.3439 57.1355 24.3392C55.0832 24.3524 53.1095 23.5595 51.6468 22.1344C50.1842 20.7092 49.3521 18.768 49.333 16.7365V9.65512H51.5093V16.7337C51.5141 17.4594 51.6634 18.1771 51.9487 18.8456C52.2341 19.514 52.6498 20.1202 53.1722 20.6294C53.6946 21.1386 54.3133 21.5407 54.9929 21.8128C55.6725 22.0849 56.3996 22.2216 57.1327 22.2151ZM68.2985 13.8703H66.6377C66.0525 13.8703 65.9662 13.4841 65.9662 13.2524C65.9662 12.8137 66.281 12.3282 66.8021 11.9531C67.3817 11.5448 68.4964 11.0565 70.5139 11.0565C71.8893 11.0561 73.2162 11.5591 74.2395 12.4689L75.683 10.8717C74.2632 9.60958 72.4221 8.91195 70.5139 8.91306C68.4657 8.91306 66.7492 9.35996 65.5482 10.2069C64.4335 10.9931 63.7926 12.1048 63.7926 13.2413C63.7875 13.609 63.8577 13.9738 63.999 14.3138C64.1402 14.6539 64.3496 14.9621 64.6144 15.2199C64.8792 15.4777 65.194 15.6797 65.5398 15.8137C65.8857 15.9478 66.2554 16.0111 66.6266 15.9999H68.2985C71.3805 15.9999 73.8717 17.7434 73.8717 19.8868C73.8592 20.5982 73.5926 21.2823 73.1193 21.8178H64.2719V23.9723H74.0612L74.3761 23.6633C74.8935 23.1777 75.3079 22.5948 75.595 21.9487C75.8821 21.3026 76.0361 20.6063 76.048 19.9006C76.048 16.5903 72.5704 13.8703 68.2985 13.8703ZM45.9946 23.9723H48.2239V9.65512H45.9946V23.9723Z" fill="#1ABAB1"/>
</svg>
