<svg width="226" height="77" viewBox="0 0 226 77" fill="none" xmlns="http://www.w3.org/2000/svg">
<g clip-path="url(#clip0)">
<path d="M183.928 31.3473L182.281 30.9475L188.943 27.5544L197.404 31.8681L195.757 32.2678L188.916 28.7907L183.928 31.3473Z" fill="#1ABAB1"/>
<path d="M172.526 35.9238L173.752 36.5025L180.798 32.615L187.696 35.8344L188.953 35.2032L180.761 31.384L172.526 35.9238Z" fill="#1ABAB1"/>
<path d="M186.454 38.8857L185.254 38.2597L193.673 34.0513L202.776 38.7857L201.129 39.1697L193.657 35.2454L186.454 38.8857Z" fill="#1ABAB1"/>
<path d="M191.679 31.3579H189.627V34.7457L191.679 33.6147V31.3579Z" fill="#1ABAB1"/>
<path d="M188.453 31.3579H186.401V32.8045L188.416 33.6936H188.453V31.3579Z" fill="#1ABAB1"/>
<path d="M178.193 38.3701H180.54V42.7574H178.193V38.3701Z" fill="#1ABAB1"/>
<path d="M181.418 38.3701H183.765V42.7574H181.418V38.3701Z" fill="#1ABAB1"/>
<path d="M189.916 39.8376H192.847V45.0981H189.916V39.8376Z" fill="#1ABAB1"/>
<path d="M194.315 39.8376H197.246V45.0981H194.315V39.8376Z" fill="#1ABAB1"/>
<path fill-rule="evenodd" clip-rule="evenodd" d="M166.096 37.1286C166.096 25.3924 175.867 15.8394 187.875 15.8394C199.882 15.8394 209.653 25.3924 209.653 37.1286C209.651 42.6079 207.504 47.8688 203.67 51.7843C202.79 52.6685 201.86 53.5027 200.887 54.2831C200.175 54.8269 199.508 55.4268 198.893 56.0769L198.261 56.8081H177.467L176.835 56.0769C176.229 55.4302 175.573 54.8322 174.873 54.2883C173.899 53.5097 172.972 52.6753 172.095 51.7896C168.252 47.8762 166.099 42.6123 166.096 37.1286ZM198.14 51.0636C198.999 50.377 199.82 49.6429 200.597 48.8648C203.694 45.705 205.428 41.4575 205.428 37.0339C205.428 27.565 197.535 19.8426 187.843 19.8426C178.151 19.8426 170.258 27.5545 170.258 37.0339C170.258 41.4575 171.992 45.705 175.089 48.8648C175.869 49.6402 176.689 50.3741 177.546 51.0636C178.177 51.5897 178.777 52.0842 179.324 52.6102H196.362C196.888 52.0842 197.482 51.6055 198.098 51.1005L198.14 51.0636Z" fill="#1ABAB1"/>
<path fill-rule="evenodd" clip-rule="evenodd" d="M187.643 76.2771C189.972 76.2971 192.224 75.444 193.955 73.8859C195.685 72.3279 196.769 70.1781 196.993 67.8604L179.308 71.2902C180.114 72.7997 181.315 74.0614 182.784 74.9399C184.252 75.8185 185.932 76.2808 187.643 76.2771Z" fill="#5DA8CB"/>
<path fill-rule="evenodd" clip-rule="evenodd" d="M178.451 61.4848V64.115L197.314 60.4958C197.368 59.8683 197.506 59.2508 197.724 58.6599H177.988C178.317 59.5646 178.474 60.5226 178.451 61.4848Z" fill="#5DA8CB"/>
<path fill-rule="evenodd" clip-rule="evenodd" d="M178.809 69.5385L197.225 65.9666V62.3474L178.451 65.9929C178.434 67.1846 178.554 68.3743 178.809 69.5385Z" fill="#5DA8CB"/>
<path fill-rule="evenodd" clip-rule="evenodd" d="M209.711 24.9349C210.717 26.6768 211.502 28.5376 212.047 30.4742C213.642 30.327 215.206 29.9422 216.688 29.3327C220.897 27.6335 223.623 24.7402 222.828 22.8622C222.034 20.9842 217.993 20.837 213.804 22.5308C212.326 23.1205 210.946 23.9311 209.711 24.9349Z" fill="#1ABAB1"/>
<path fill-rule="evenodd" clip-rule="evenodd" d="M168.043 21.9153C169.311 20.3317 170.767 18.908 172.379 17.6753C171.624 16.2815 170.659 15.0128 169.516 13.9141C166.312 10.7841 162.524 9.41109 161.056 10.8472C159.588 12.2833 160.992 15.9867 164.213 19.122C165.339 20.2439 166.631 21.186 168.043 21.9153Z" fill="#1ABAB1"/>
<path fill-rule="evenodd" clip-rule="evenodd" d="M162.903 40.0325C162.65 38.0414 162.65 36.0265 162.903 34.0355C161.368 33.5688 159.771 33.3383 158.167 33.3516C153.631 33.3516 149.959 34.9982 149.959 37.034C149.959 39.0698 153.642 40.7163 158.167 40.7163C159.771 40.7295 161.368 40.4989 162.903 40.0325Z" fill="#1ABAB1"/>
<path fill-rule="evenodd" clip-rule="evenodd" d="M158.982 29.3327C160.469 29.9438 162.039 30.3286 163.639 30.4742C164.187 28.5361 164.977 26.6749 165.991 24.9349C164.751 23.9297 163.366 23.1191 161.882 22.5308C157.672 20.837 153.652 20.9842 152.858 22.8622C152.063 24.7402 154.794 27.6335 158.982 29.3327Z" fill="#1ABAB1"/>
<path fill-rule="evenodd" clip-rule="evenodd" d="M175.467 15.6552C177.254 14.6625 179.155 13.8923 181.129 13.3616C180.982 11.795 180.584 10.2622 179.95 8.8218C178.23 4.73439 175.267 2.04102 173.347 2.81957C171.426 3.59813 171.274 7.55402 173.005 11.6362C173.611 13.0961 174.442 14.4522 175.467 15.6552Z" fill="#1ABAB1"/>
<path fill-rule="evenodd" clip-rule="evenodd" d="M207.643 21.9153C209.06 21.186 210.357 20.244 211.489 19.122C214.694 15.9657 216.098 12.2833 214.646 10.8472C213.194 9.41109 209.384 10.7841 206.185 13.9141C205.043 15.0128 204.077 16.2815 203.323 17.6753C204.929 18.9089 206.38 20.3327 207.643 21.9153Z" fill="#1ABAB1"/>
<path fill-rule="evenodd" clip-rule="evenodd" d="M187.843 12.4674C188.868 12.4694 189.893 12.5326 190.911 12.6568C191.386 11.1584 191.62 9.59409 191.605 8.02226C191.605 3.59292 189.948 0 187.843 0C185.738 0 184.081 3.59292 184.081 8.02226C184.066 9.59409 184.3 11.1584 184.775 12.6568C185.793 12.5324 186.818 12.4692 187.843 12.4674Z" fill="#1ABAB1"/>
<path fill-rule="evenodd" clip-rule="evenodd" d="M200.219 15.6552C201.244 14.4522 202.075 13.0961 202.681 11.6362C204.412 7.5435 204.26 3.59813 202.339 2.81957C200.418 2.04102 197.456 4.73439 195.736 8.8218C195.11 10.2638 194.717 11.7963 194.573 13.3616C196.541 13.8935 198.437 14.6637 200.219 15.6552Z" fill="#1ABAB1"/>
<path fill-rule="evenodd" clip-rule="evenodd" d="M168.043 52.1526C166.623 52.8771 165.325 53.8196 164.197 54.9459C160.992 58.1022 159.582 61.7846 161.04 63.2207C162.497 64.6568 166.302 63.2838 169.501 60.1485C170.645 59.0519 171.611 57.7828 172.363 56.3873C170.756 55.1569 169.305 53.7348 168.043 52.1526Z" fill="#1ABAB1"/>
<path fill-rule="evenodd" clip-rule="evenodd" d="M207.643 52.1526C206.374 53.7265 204.918 55.1398 203.307 56.361C204.06 57.7558 205.026 59.0248 206.169 60.1222C209.374 63.2785 213.162 64.6305 214.63 63.1944C216.098 61.7583 214.693 58.0549 211.473 54.9196C210.347 53.805 209.055 52.8716 207.643 52.1526Z" fill="#1ABAB1"/>
<path fill-rule="evenodd" clip-rule="evenodd" d="M216.703 44.7142C215.218 44.1054 213.647 43.7275 212.047 43.5938C211.499 45.5319 210.709 47.393 209.695 49.1331C210.938 50.1451 212.33 50.9612 213.82 51.5529C218.029 53.2468 222.049 53.0995 222.844 51.2215C223.638 49.3435 220.892 46.4292 216.703 44.7142Z" fill="#1ABAB1"/>
<path fill-rule="evenodd" clip-rule="evenodd" d="M165.975 49.1331C164.969 47.3912 164.184 45.5303 163.639 43.5938C162.039 43.7295 160.469 44.1073 158.983 44.7142C154.773 46.4081 152.048 49.3067 152.842 51.1846C153.637 53.0626 157.678 53.2099 161.866 51.5161C163.349 50.9343 164.734 50.1308 165.975 49.1331Z" fill="#1ABAB1"/>
<path fill-rule="evenodd" clip-rule="evenodd" d="M217.519 33.3516C215.915 33.3383 214.318 33.5688 212.783 34.0355C213.036 36.0265 213.036 38.0414 212.783 40.0325C214.318 40.4971 215.915 40.726 217.519 40.7111C222.055 40.7111 225.727 39.0645 225.727 37.0287C225.727 34.9929 222.044 33.3516 217.519 33.3516Z" fill="#1ABAB1"/>
<path d="M33.1488 50.5833H36.832L45.0297 71.8199L53.2012 50.5833H56.7844L46.7082 75.6548H43.146L33.1488 50.5833Z" fill="#5DA8CB"/>
<path d="M59.4994 57.6902H61.9356V75.6548H59.4994V57.6902Z" fill="#5DA8CB"/>
<path d="M67.0237 57.6902H69.4546V73.4191H77.2419V75.6548H67.0237V57.6902Z" fill="#5DA8CB"/>
<path d="M80.3568 57.6902H82.793V73.4191H90.5751V75.6548H80.3568V57.6902Z" fill="#5DA8CB"/>
<path d="M107.081 75.6548L105.203 71.2938H95.821L93.9636 75.6548H91.3959L99.2884 57.6902H101.83L109.722 75.6548H107.081ZM96.7839 69.0581H104.261L100.499 60.3362L96.7839 69.0581Z" fill="#5DA8CB"/>
<path d="M124.176 66.891H126.334V73.4824C124.404 74.9791 122.04 75.8081 119.599 75.8444C117.952 75.863 116.33 75.4475 114.895 74.6397C113.481 73.8454 112.308 72.6852 111.498 71.281C110.688 69.8768 110.271 68.2805 110.291 66.6596C110.274 65.043 110.706 63.4533 111.538 62.0671C112.355 60.6773 113.531 59.5326 114.942 58.753C116.406 57.9461 118.053 57.5311 119.725 57.5484C120.959 57.5464 122.183 57.7729 123.334 58.2165C124.464 58.6287 125.507 59.2457 126.413 60.0366L125.013 61.8357C124.299 61.1656 123.461 60.642 122.545 60.2944C121.651 59.9243 120.693 59.7331 119.725 59.7315C118.502 59.7287 117.299 60.0487 116.239 60.6592C115.179 61.2697 114.299 62.149 113.688 63.2084C113.077 64.2678 112.756 65.4696 112.758 66.6926C112.761 67.9156 113.085 69.1163 113.7 70.1736C114.315 71.2247 115.19 72.0998 116.242 72.7144C117.308 73.3289 118.52 73.6467 119.751 73.635C120.519 73.6329 121.283 73.5122 122.014 73.2773C122.78 73.0276 123.507 72.6735 124.176 72.2252V66.891Z" fill="#5DA8CB"/>
<path d="M130.985 57.6902H143.339V59.9259H133.421V65.4652H142.298V67.7009H133.421V73.4191H143.645V75.6548H130.985V57.6902Z" fill="#5DA8CB"/>
<path fill-rule="evenodd" clip-rule="evenodd" d="M47.6605 21.1999C49.9572 21.2017 52.1845 21.9867 53.9746 23.4251V26.8286H38.5473C39.4128 25.1522 40.7182 23.7428 42.3235 22.7513C43.9288 21.7598 45.7737 21.2235 47.6605 21.1999ZM47.6605 46.4134C51.2839 46.4161 54.7805 45.0803 57.4789 42.6627L54.7428 39.6064C53.2165 40.9724 51.3275 41.8679 49.3036 42.1849C47.2797 42.5018 45.2073 42.2266 43.3363 41.3925C41.4653 40.5585 39.8756 39.2011 38.7589 37.4841C37.6421 35.767 37.046 33.7637 37.0424 31.7156C37.0406 31.3431 37.0599 30.9707 37.1003 30.6004H58.1471V21.3577L57.4631 20.7475C55.6857 19.1444 53.5443 17.9985 51.2243 17.4089C48.9043 16.8192 46.4755 16.8037 44.1482 17.3635C41.8208 17.9234 39.6649 19.0418 37.8671 20.622C36.0693 22.2021 34.6836 24.1965 33.8301 26.4324C32.9766 28.6684 32.6809 31.0786 32.9686 33.4545C33.2563 35.8304 34.1187 38.1004 35.4813 40.0681C36.8438 42.0359 38.6654 43.642 40.7885 44.7476C42.9115 45.8532 45.272 46.425 47.6658 46.4134H47.6605Z" fill="#1ABAB1"/>
<path fill-rule="evenodd" clip-rule="evenodd" d="M64.3822 23.2514C65.9592 22.0626 67.8365 21.337 69.8033 21.1562C71.77 20.9755 73.7482 21.3468 75.5155 22.2283C77.2828 23.1098 78.7692 24.4667 79.8075 26.1464C80.8459 27.8261 81.3951 29.762 81.3933 31.7366V45.7137H85.5027V31.7366C85.5022 28.8944 84.6793 26.1131 83.1331 23.728C81.5869 21.343 79.3836 19.4561 76.7888 18.295C74.194 17.1339 71.3186 16.7481 68.5094 17.1842C65.7003 17.6203 63.0773 18.8596 60.9568 20.7527L60.2728 21.3682V45.7137H64.3822V23.2514Z" fill="#1ABAB1"/>
<path fill-rule="evenodd" clip-rule="evenodd" d="M115.037 40.2585C113.186 41.63 110.942 42.368 108.639 42.3627C107.254 42.3751 105.881 42.1145 104.598 41.5956C103.315 41.0768 102.147 40.3099 101.16 39.3389C100.174 38.368 99.3889 37.212 98.8501 35.9372C98.3113 34.6624 98.0293 33.2939 98.0204 31.9101V18.4116H93.911V31.9153C93.9471 35.7894 95.5183 39.4911 98.2801 42.2088C101.042 44.9265 104.769 46.4385 108.644 46.4132C112.257 46.4223 115.75 45.113 118.467 42.7309L119.146 42.1312V18.4116H115.042V40.2585" fill="#1ABAB1"/>
<path fill-rule="evenodd" clip-rule="evenodd" d="M129.743 26.4497H126.586C125.481 26.4497 125.318 25.7132 125.318 25.2713C125.318 24.4349 125.913 23.5091 126.897 22.7937C127.991 22.0151 130.096 21.084 133.905 21.084C136.502 21.0832 139.008 22.0425 140.94 23.7774L143.666 20.7315C140.985 18.3248 137.508 16.9945 133.905 16.9966C130.038 16.9966 126.797 17.8488 124.529 19.4638C122.424 20.963 121.214 23.083 121.214 25.2503C121.204 25.9514 121.337 26.6471 121.604 27.2955C121.87 27.944 122.266 28.5317 122.766 29.0233C123.266 29.5149 123.86 29.9001 124.513 30.1557C125.166 30.4114 125.864 30.5322 126.565 30.5108H129.722C135.542 30.5108 140.246 33.8354 140.246 37.9228C140.222 39.2795 139.719 40.584 138.825 41.6052H122.119V45.7136H140.603L141.198 45.1245C142.175 44.1984 142.957 43.0868 143.499 41.8548C144.042 40.6227 144.332 39.2949 144.355 37.9491C144.355 31.6365 137.788 26.4497 129.722 26.4497" fill="#1ABAB1"/>
<path fill-rule="evenodd" clip-rule="evenodd" d="M17.6741 46.4133C22.0336 46.4141 26.2372 44.7919 29.4656 41.863L30.1391 41.2475V26.5181H17.6741V30.6213H26.0928V39.3801C23.7008 41.2848 20.7321 42.3199 17.6741 42.3154C14.0235 42.3154 10.5224 40.8655 7.94103 38.2848C5.35966 35.704 3.90946 32.2037 3.90946 28.5539C3.90946 24.9042 5.35966 21.4039 7.94103 18.8231C10.5224 16.2423 14.0235 14.7925 17.6741 14.7925C21.0323 14.7931 24.2699 16.044 26.7558 18.3012L29.4656 15.2554C26.2385 12.3277 22.037 10.7057 17.6794 10.7051C13.1093 10.9531 8.80816 12.9429 5.66083 16.265C2.51351 19.587 0.759399 23.9887 0.759399 28.5645C0.759399 33.1402 2.51351 37.5419 5.66083 40.864C8.80816 44.186 13.1093 46.1758 17.6794 46.4239" fill="#1ABAB1"/>
<path fill-rule="evenodd" clip-rule="evenodd" d="M87.6074 45.7136H91.8168V18.4116H87.6074V45.7136Z" fill="#1ABAB1"/>
<path fill-rule="evenodd" clip-rule="evenodd" d="M89.7068 9.99487C89.1519 9.99487 88.6095 10.1595 88.1482 10.4678C87.6869 10.7761 87.3274 11.2143 87.1153 11.727C86.9032 12.2396 86.848 12.8036 86.9566 13.3477C87.0653 13.8917 87.3329 14.3913 87.7256 14.7832C88.1184 15.1751 88.6186 15.4417 89.1629 15.5493C89.7073 15.6569 90.2714 15.6006 90.7837 15.3876C91.2961 15.1746 91.7337 14.8144 92.0413 14.3526C92.3488 13.8908 92.5124 13.3482 92.5113 12.7935C92.5099 12.0507 92.2138 11.3389 91.6881 10.8142C91.1623 10.2896 90.4497 9.99487 89.7068 9.99487Z" fill="#1ABAB1"/>
</g>
<defs>
<clipPath id="clip0">
<rect width="225.727" height="76.2772" fill="white"/>
</clipPath>
</defs>
</svg>
