<svg width="237" height="76" viewBox="0 0 237 76" fill="none" xmlns="http://www.w3.org/2000/svg">
<path fill-rule="evenodd" clip-rule="evenodd" d="M64.2604 16.695C66.3939 16.695 68.4533 17.428 70.1429 18.7753V21.9338H55.7576C57.4368 18.8086 60.6187 16.695 64.2604 16.695ZM64.2666 40.2694C67.6519 40.2694 70.9053 39.0251 73.4277 36.7649L70.871 33.9078C69.0536 35.537 66.7078 36.4342 64.2666 36.4342C58.8026 36.4342 54.3584 31.9859 54.3584 26.5174C54.3584 26.1661 54.3759 25.8182 54.4117 25.4766H74.066V16.8418L73.4277 16.2705C70.9053 14.0104 67.6519 12.7657 64.2666 12.7657C56.6904 12.7657 50.5264 18.9349 50.5264 26.5174C50.5264 34.1002 56.6904 40.2694 64.2666 40.2694Z" fill="#1F81B8"/>
<path fill-rule="evenodd" clip-rule="evenodd" d="M79.8604 18.6146C81.5731 17.3156 83.6637 16.609 85.8277 16.609C91.2913 16.609 95.7359 21.0671 95.7359 26.5464V39.6146H99.5679V26.5464C99.5679 18.9479 93.4042 12.7657 85.8277 12.7657C82.4413 12.7657 79.1878 14.013 76.6654 16.2779L76.0283 16.8504V39.6146H79.8604V18.6146Z" fill="#1F81B8"/>
<path fill-rule="evenodd" clip-rule="evenodd" d="M127.121 34.5166C125.408 35.7939 123.318 36.489 121.154 36.489C115.69 36.489 111.246 32.1041 111.246 26.7135V14.0756H107.414V26.7135C107.414 34.1883 113.577 40.2696 121.154 40.2696C124.54 40.2696 127.794 39.043 130.316 36.8151L130.953 36.2516V14.0756H127.121V34.5166Z" fill="#1F81B8"/>
<path fill-rule="evenodd" clip-rule="evenodd" d="M140.843 21.6057H137.905C136.876 21.6057 136.722 20.9142 136.722 20.5023C136.722 19.7178 137.28 18.8517 138.214 18.185C139.236 17.4555 141.201 16.5857 144.758 16.5857C147.183 16.5857 149.513 17.4793 151.32 19.1024L153.86 16.2566C151.354 14.0054 148.122 12.7657 144.758 12.7657C141.148 12.7657 138.122 13.5631 136.008 15.0718C134.042 16.4742 132.915 18.4535 132.915 20.5023C132.915 23.309 135.061 25.4261 137.905 25.4261H140.843C146.27 25.4261 150.686 28.5352 150.686 32.356C150.686 33.8041 150.046 34.9663 149.362 35.7946H133.731V39.6146H150.974L151.531 39.0656C153.441 37.177 154.493 34.7943 154.493 32.356C154.493 26.4286 148.369 21.6057 140.843 21.6057Z" fill="#1F81B8"/>
<path fill-rule="evenodd" clip-rule="evenodd" d="M36.2856 40.2696C40.3487 40.2696 44.2536 38.7582 47.2804 36.0138L47.9112 35.4426V21.6545H36.2856V25.4873H44.1259V33.6938C41.8943 35.4686 39.141 36.4371 36.2856 36.4371C29.2793 36.4371 23.5793 30.6654 23.5793 23.5709C23.5793 16.4764 29.2793 10.7047 36.2856 10.7047C39.4159 10.7047 42.4239 11.8692 44.7559 13.9831L47.2804 11.128C44.2536 8.38357 40.3487 6.87218 36.2856 6.87218C27.1927 6.87218 19.7944 14.3636 19.7944 23.5709C19.7944 32.7786 27.1927 40.2696 36.2856 40.2696Z" fill="#1F81B8"/>
<path fill-rule="evenodd" clip-rule="evenodd" d="M101.529 39.6148H105.452V14.0756H101.529V39.6148Z" fill="#1F81B8"/>
<path fill-rule="evenodd" clip-rule="evenodd" d="M103.491 6.21709C102.046 6.21709 100.875 7.38944 100.875 8.83632C100.875 10.2832 102.046 11.4559 103.491 11.4559C104.935 11.4559 106.106 10.2832 106.106 8.83632C106.106 7.38944 104.935 6.21709 103.491 6.21709Z" fill="#1F81B8"/>
<path d="M54.7099 47.7084L45.5082 75.0016H42.467L34.4739 51.7244L26.4419 75.0016H23.4397L14.2379 47.7084H17.2012L25.0773 71.1806L33.2263 47.7084H35.9166L43.9486 71.2975L51.9416 47.7084H54.7099ZM68.7676 75.2356C66.5581 75.2356 64.5436 74.7547 62.7241 73.7929C60.9305 72.8052 59.5138 71.4535 58.4741 69.7379C57.4604 68.0223 56.9535 66.0988 56.9535 63.9673C56.9535 61.8619 57.4604 59.9513 58.4741 58.2358C59.5138 56.5202 60.9305 55.1685 62.7241 54.1808C64.5436 53.193 66.5581 52.6991 68.7676 52.6991C71.003 52.6991 73.0175 53.193 74.8111 54.1808C76.6046 55.1425 78.0083 56.4942 79.022 58.2358C80.0618 59.9513 80.5816 61.8619 80.5816 63.9673C80.5816 66.0988 80.0618 68.0223 79.022 69.7379C78.0083 71.4535 76.6046 72.8052 74.8111 73.7929C73.0175 74.7547 71.003 75.2356 68.7676 75.2356ZM68.7676 72.8182C70.4571 72.8182 71.9908 72.4413 73.3684 71.6874C74.7461 70.9076 75.8248 69.8549 76.6046 68.5292C77.3844 67.1776 77.7743 65.6699 77.7743 64.0063C77.7743 62.3168 77.3844 60.8091 76.6046 59.4835C75.8248 58.1318 74.7461 57.0791 73.3684 56.3252C71.9908 55.5454 70.4571 55.1555 68.7676 55.1555C67.078 55.1555 65.5444 55.5454 64.1667 56.3252C62.789 57.0791 61.7103 58.1318 60.9305 59.4835C60.1507 60.8091 59.7608 62.3168 59.7608 64.0063C59.7608 65.6699 60.1507 67.1776 60.9305 68.5292C61.7103 69.8549 62.789 70.9076 64.1667 71.6874C65.5444 72.4413 67.078 72.8182 68.7676 72.8182ZM102.045 75.0016L97.0539 68.0613C96.3781 68.1133 95.8712 68.1393 95.5333 68.1393H89.7627V75.0016H86.9554V52.9721H95.5333C98.3926 52.9721 100.641 53.6479 102.279 54.9996C103.916 56.3252 104.735 58.1838 104.735 60.5752C104.735 62.2648 104.293 63.7074 103.409 64.9031C102.552 66.0988 101.317 66.9696 99.7053 67.5155L105.086 75.0016H102.045ZM95.3773 65.8389C97.4828 65.8389 99.0944 65.384 100.212 64.4742C101.356 63.5644 101.928 62.2648 101.928 60.5752C101.928 58.8856 101.369 57.5859 100.251 56.6762C99.1334 55.7664 97.5088 55.3115 95.3773 55.3115H89.7627V65.8389H95.3773ZM111.689 52.9721H114.496V72.6622H126.778V75.0016H111.689V52.9721ZM131.586 52.9721H140.827C143.271 52.9721 145.402 53.44 147.222 54.3757C149.041 55.2855 150.432 56.5722 151.394 58.2358C152.381 59.8734 152.875 61.7839 152.875 63.9673C152.875 66.1508 152.381 68.0743 151.394 69.7379C150.432 71.4015 149.041 72.7012 147.222 73.637C145.402 74.5467 143.271 75.0016 140.827 75.0016H131.586V52.9721ZM140.71 72.6622C143.647 72.6622 145.935 71.8824 147.572 70.3228C149.236 68.7372 150.068 66.6187 150.068 63.9673C150.068 61.342 149.236 59.2495 147.572 57.6899C145.935 56.1043 143.647 55.3115 140.71 55.3115H134.394V72.6622H140.71Z" fill="#85C56F"/>
<path fill-rule="evenodd" clip-rule="evenodd" d="M198.786 75.0345C201.077 75.0541 203.292 74.2148 204.995 72.6822C206.698 71.1495 207.764 69.0347 207.984 66.7547L190.587 70.1287C191.38 71.6136 192.561 72.8548 194.006 73.719C195.45 74.5833 197.103 75.038 198.786 75.0345Z" fill="#1F81B8"/>
<path fill-rule="evenodd" clip-rule="evenodd" d="M189.744 60.4833V63.0707L208.3 59.5105C208.353 58.8931 208.489 58.2857 208.703 57.7044H189.288C189.611 58.5943 189.766 59.5368 189.744 60.4833Z" fill="#1F81B8"/>
<path fill-rule="evenodd" clip-rule="evenodd" d="M190.095 68.4063L208.211 64.8926V61.3324L189.743 64.9185C189.726 66.0908 189.845 67.2611 190.095 68.4063Z" fill="#1F81B8"/>
<path fill-rule="evenodd" clip-rule="evenodd" d="M220.494 24.5288C221.484 26.2423 222.256 28.0729 222.792 29.9779C224.362 29.8331 225.9 29.4546 227.358 28.8549C231.498 27.1835 234.18 24.3373 233.398 22.4899C232.616 20.6425 228.641 20.4976 224.521 22.1639C223.067 22.744 221.709 23.5414 220.494 24.5288Z" fill="#1F81B8"/>
<path fill-rule="evenodd" clip-rule="evenodd" d="M179.505 21.5584C180.753 20.0006 182.185 18.6001 183.77 17.3875C183.028 16.0164 182.078 14.7683 180.954 13.6875C177.802 10.6085 174.075 9.25786 172.631 10.6706C171.187 12.0833 172.569 15.7264 175.737 18.8106C176.845 19.9142 178.115 20.841 179.505 21.5584Z" fill="#1F81B8"/>
<path fill-rule="evenodd" clip-rule="evenodd" d="M174.448 39.3806C174.199 37.422 174.199 35.4399 174.448 33.4813C172.938 33.0222 171.367 32.7954 169.789 32.8086C165.328 32.8086 161.715 34.4283 161.715 36.4309C161.715 38.4336 165.338 40.0533 169.789 40.0533C171.367 40.0663 172.938 39.8395 174.448 39.3806Z" fill="#1F81B8"/>
<path fill-rule="evenodd" clip-rule="evenodd" d="M170.593 28.8549C172.055 29.4561 173.599 29.8346 175.173 29.9779C175.712 28.0713 176.489 26.2405 177.487 24.5288C176.267 23.54 174.904 22.7426 173.445 22.1639C169.304 20.4976 165.349 20.6425 164.568 22.4899C163.786 24.3373 166.473 27.1835 170.593 28.8549Z" fill="#1F81B8"/>
<path fill-rule="evenodd" clip-rule="evenodd" d="M186.809 15.4005C188.566 14.4241 190.436 13.6663 192.378 13.1443C192.233 11.6032 191.842 10.0954 191.219 8.67845C189.526 4.6576 186.612 2.00809 184.723 2.77396C182.833 3.53984 182.683 7.43131 184.386 11.447C184.982 12.8831 185.8 14.2171 186.809 15.4005Z" fill="#1F81B8"/>
<path fill-rule="evenodd" clip-rule="evenodd" d="M218.46 21.5584C219.854 20.841 221.13 19.9143 222.244 18.8106C225.396 15.7057 226.778 12.0833 225.349 10.6706C223.921 9.25786 220.173 10.6085 217.026 13.6875C215.902 14.7683 214.953 16.0164 214.21 17.3875C215.79 18.601 217.217 20.0016 218.46 21.5584Z" fill="#1F81B8"/>
<path fill-rule="evenodd" clip-rule="evenodd" d="M198.983 12.2643C199.991 12.2663 200.999 12.3285 202 12.4506C202.468 10.9766 202.698 9.43784 202.684 7.89161C202.684 3.5344 201.053 -7.62939e-06 198.983 -7.62939e-06C196.912 -7.62939e-06 195.282 3.5344 195.282 7.89161C195.267 9.43784 195.498 10.9766 195.965 12.4506C196.966 12.3284 197.974 12.2661 198.983 12.2643Z" fill="#1F81B8"/>
<path fill-rule="evenodd" clip-rule="evenodd" d="M211.157 15.4005C212.166 14.2171 212.984 12.8831 213.58 11.447C215.283 7.42096 215.133 3.53984 213.243 2.77396C211.354 2.00809 208.44 4.6576 206.747 8.67845C206.132 10.097 205.745 11.6045 205.604 13.1443C207.54 13.6675 209.405 14.4252 211.157 15.4005Z" fill="#1F81B8"/>
<path fill-rule="evenodd" clip-rule="evenodd" d="M179.504 51.3032C178.107 52.0159 176.831 52.9431 175.721 54.051C172.568 57.1559 171.181 60.7783 172.615 62.191C174.049 63.6037 177.791 62.2531 180.938 59.1689C182.064 58.0902 183.014 56.8417 183.754 55.4689C182.173 54.2586 180.746 52.8596 179.504 51.3032Z" fill="#1F81B8"/>
<path fill-rule="evenodd" clip-rule="evenodd" d="M218.46 51.3032C217.212 52.8515 215.78 54.2417 214.195 55.443C214.935 56.8151 215.885 58.0634 217.011 59.143C220.163 62.2479 223.89 63.5779 225.334 62.1651C226.778 60.7524 225.396 57.1093 222.228 54.0251C221.12 52.9286 219.849 52.0104 218.46 51.3032Z" fill="#1F81B8"/>
<path fill-rule="evenodd" clip-rule="evenodd" d="M227.374 43.9857C225.912 43.3868 224.367 43.0151 222.793 42.8835C222.255 44.79 221.477 46.6209 220.479 48.3326C221.703 49.3282 223.071 50.1309 224.537 50.713C228.678 52.3793 232.633 52.2344 233.414 50.387C234.196 48.5396 231.494 45.6727 227.374 43.9857Z" fill="#1F81B8"/>
<path fill-rule="evenodd" clip-rule="evenodd" d="M177.471 48.3326C176.481 46.6191 175.708 44.7885 175.173 42.8835C173.599 43.017 172.054 43.3887 170.592 43.9857C166.451 45.652 163.77 48.5033 164.551 50.3508C165.333 52.1982 169.308 52.3431 173.428 50.6768C174.887 50.1045 176.25 49.314 177.471 48.3326Z" fill="#1F81B8"/>
<path fill-rule="evenodd" clip-rule="evenodd" d="M228.176 32.8086C226.598 32.7954 225.027 33.0222 223.517 33.4813C223.766 35.4399 223.766 37.422 223.517 39.3806C225.027 39.8377 226.598 40.0628 228.176 40.0481C232.637 40.0481 236.25 38.4284 236.25 36.4258C236.25 34.4231 232.627 32.8086 228.176 32.8086Z" fill="#1F81B8"/>
<path fill-rule="evenodd" clip-rule="evenodd" d="M199.014 15.5816C187.202 15.5816 177.59 24.9791 177.59 36.5241C177.593 41.9185 179.711 47.0967 183.491 50.9464C184.354 51.8177 185.266 52.6384 186.224 53.4044C186.913 53.9394 187.558 54.5277 188.155 55.1639L188.776 55.8832H209.231L209.852 55.1639C210.458 54.5243 211.114 53.9342 211.814 53.3992C212.772 52.6316 213.686 51.811 214.552 50.9412C218.324 47.0894 220.436 41.9142 220.437 36.5241C220.437 24.9791 210.826 15.5816 199.014 15.5816ZM207.884 21.5202C210.57 23.0876 212.696 25.2137 214.263 27.899C215.83 30.5844 216.614 33.5177 216.614 36.6975C216.614 39.8771 215.83 42.81 214.263 45.4959C212.696 48.1812 210.57 50.3079 207.884 51.8749C205.199 53.4421 202.266 54.2257 199.086 54.2257C195.906 54.2257 192.973 53.4421 190.287 51.8749C187.602 50.3073 185.476 48.1806 183.908 45.4959C182.341 42.81 181.557 39.8774 181.557 36.6975C181.557 33.5177 182.341 30.5848 183.908 27.899C185.476 25.2135 187.602 23.0873 190.288 21.5202C192.973 19.9529 195.906 19.1694 199.086 19.1694C202.266 19.1694 205.198 19.9529 207.884 21.5202Z" fill="#1F81B8"/>
<g clip-path="url(#clip0)">
<ellipse cx="199.191" cy="36.7893" rx="12.9706" ry="13.3412" fill="#85C56F"/>
<path d="M212.425 29.061C211.047 26.7406 209.178 24.9035 206.818 23.5491C204.458 22.1949 201.881 21.5179 199.086 21.5179C196.291 21.5179 193.714 22.1949 191.353 23.5491C188.993 24.9033 187.124 26.7404 185.747 29.061C184.369 31.3817 183.681 33.9159 183.681 36.6636C183.681 39.4112 184.369 41.9452 185.747 44.266C187.124 46.5859 188.993 48.4235 191.353 49.778C193.713 51.1322 196.291 51.8092 199.086 51.8092C201.88 51.8092 204.458 51.1322 206.818 49.778C209.178 48.424 211.047 46.5863 212.424 44.266C213.801 41.9452 214.49 39.411 214.49 36.6636C214.49 33.9159 213.801 31.3813 212.425 29.061ZM201.012 44.6324C200.878 44.475 200.832 44.3432 200.872 44.2376C200.859 44.3035 200.812 44.3626 200.732 44.4151C200.665 44.3363 200.544 44.2376 200.371 44.1194C200.196 44.0007 200.076 43.9023 200.009 43.823C199.982 43.7837 199.946 43.7279 199.899 43.6556C199.852 43.5833 199.792 43.488 199.719 43.3696C199.645 43.2514 199.592 43.1493 199.558 43.0636C199.525 42.9781 199.522 42.9289 199.548 42.9162C199.294 43.0216 198.927 42.9492 198.445 42.6991C198.352 42.6466 198.211 42.5085 198.024 42.285C197.837 42.0614 197.643 41.963 197.442 41.989C197.376 42.0022 197.285 42.0252 197.171 42.058C197.058 42.0911 196.961 42.1072 196.881 42.1072C196.8 42.1072 196.693 42.0813 196.56 42.0282C196.453 41.989 196.309 41.9131 196.128 41.8016C195.948 41.69 195.824 41.6205 195.758 41.5948C195.584 41.5026 195.497 41.4567 195.497 41.4567L195.176 41.2993C195.096 41.2601 195.012 41.1976 194.925 41.1121C194.838 41.0265 194.781 40.9377 194.755 40.8457C194.728 40.767 194.695 40.6091 194.654 40.3722C194.614 40.1353 194.561 39.9647 194.494 39.8597C194.414 39.7283 194.3 39.5968 194.153 39.4654C194.006 39.334 193.872 39.2678 193.752 39.2678C193.859 39.2678 193.859 39.1797 193.752 39.0017C193.645 38.8239 193.551 38.6957 193.471 38.6173C193.444 38.5908 193.364 38.5055 193.23 38.3606C193.097 38.2159 192.983 38.0913 192.889 37.9856C192.796 37.8805 192.715 37.759 192.649 37.6207C192.582 37.4826 192.568 37.3678 192.608 37.2756C192.622 37.2626 192.608 37.2427 192.568 37.2165C192.528 37.1905 192.478 37.1638 192.418 37.1376C192.358 37.1115 192.301 37.0884 192.247 37.0685C192.194 37.0491 192.154 37.0392 192.127 37.0392C192.154 37.0922 192.184 37.1872 192.217 37.3252C192.251 37.4635 192.288 37.5655 192.328 37.6312C192.355 37.6837 192.468 37.8746 192.669 38.2027C193.017 38.7549 193.177 39.1629 193.15 39.4257C193.07 39.4517 193.016 39.4389 192.99 39.3865C192.963 39.334 192.943 39.2617 192.929 39.1695C192.916 39.0778 192.903 39.0121 192.889 38.9724C192.849 38.8934 192.745 38.8078 192.578 38.7156C192.411 38.624 192.307 38.5317 192.267 38.4395C192.281 38.4395 192.297 38.4334 192.317 38.4197C192.338 38.4065 192.354 38.4004 192.368 38.4004C192.381 38.2821 192.311 38.1309 192.157 37.9465C192.003 37.7626 191.94 37.6312 191.967 37.5522C191.86 37.4733 191.766 37.3187 191.686 37.0889C191.605 36.8587 191.539 36.7107 191.485 36.6448C191.432 36.5662 191.365 36.4972 191.285 36.4379C191.204 36.3789 191.104 36.3132 190.984 36.2408C190.863 36.1685 190.783 36.1193 190.743 36.0929C190.716 36.08 190.663 36.0211 190.582 35.9158C190.141 35.3898 190.008 35.107 190.181 35.0677C190.008 35.107 189.864 34.979 189.75 34.6829C189.636 34.3872 189.6 34.1602 189.64 34.0025L189.6 33.9829C189.613 33.9302 189.62 33.7759 189.62 33.5193C189.62 33.2628 189.637 33.0294 189.67 32.8192C189.704 32.6088 189.767 32.5035 189.861 32.5035C189.767 32.5166 189.697 32.4343 189.65 32.2571C189.603 32.0795 189.6 31.9578 189.64 31.8921C189.653 31.8526 189.714 31.8792 189.821 31.9711C189.927 32.0628 189.988 32.1224 190.001 32.1485C190.175 32.0562 190.242 31.9381 190.202 31.7933C190.175 31.7408 190.034 31.6028 189.78 31.3791C189.205 31.0112 188.911 30.8336 188.898 30.8466C188.978 30.7021 188.958 30.5772 188.837 30.4719C188.704 30.5508 188.627 30.5705 188.607 30.5312C188.587 30.4917 188.57 30.4197 188.557 30.3143C188.543 30.2093 188.51 30.1501 188.456 30.137C188.39 30.1238 188.309 30.0713 188.216 29.9793C189.406 28.1123 190.977 26.653 192.929 25.601C193.01 25.588 193.157 25.5814 193.371 25.5814C193.477 25.5945 193.578 25.6274 193.671 25.6799C193.765 25.7324 193.862 25.8049 193.962 25.8968C194.063 25.9886 194.139 26.0544 194.193 26.0939C194.22 26.015 194.186 25.8966 194.093 25.7389C194.119 25.6599 194.266 25.581 194.534 25.5021C194.841 25.4627 195.042 25.4691 195.135 25.522C195.055 25.4036 194.922 25.2392 194.734 25.0289L194.634 25.1274C194.527 25.0354 194.247 25.0813 193.792 25.2654C193.765 25.2784 193.698 25.3148 193.591 25.3738C193.484 25.4329 193.397 25.4757 193.33 25.5019C193.25 25.5283 193.17 25.5348 193.09 25.5217C193.731 25.18 194.36 24.91 194.975 24.713C195.015 24.7392 195.082 24.7951 195.176 24.8805C195.269 24.9659 195.343 25.0285 195.396 25.0678C195.356 25.0417 195.329 25.0545 195.316 25.1073C195.263 25.2649 195.263 25.3964 195.316 25.5015C195.383 25.5938 195.473 25.6461 195.587 25.6594C195.701 25.6724 195.838 25.6659 195.998 25.6395C196.159 25.6134 196.266 25.6001 196.319 25.6001L196.52 25.62C196.948 25.6594 197.115 25.62 197.021 25.5015C197.061 25.5544 197.108 25.6627 197.162 25.8271C197.215 25.9915 197.275 26.1066 197.342 26.1724C197.409 26.1195 197.422 26.0276 197.382 25.8961C197.342 25.7647 197.342 25.6724 197.382 25.6199C197.395 25.5938 197.436 25.5672 197.502 25.541C197.569 25.5149 197.646 25.4853 197.733 25.4524C197.82 25.4194 197.877 25.3965 197.904 25.3834C197.984 25.3307 197.93 25.2386 197.743 25.1072C197.717 25.094 197.66 25.0743 197.573 25.048C197.486 25.0221 197.409 24.9954 197.342 24.9692C197.276 24.9431 197.205 24.9069 197.132 24.8609C197.058 24.8148 197.025 24.7623 197.031 24.703C197.038 24.6436 197.075 24.5682 197.142 24.4761C197.222 24.4106 197.352 24.3842 197.533 24.3973C197.713 24.4103 197.85 24.4431 197.944 24.4957C198.305 24.693 198.359 24.8708 198.105 25.0283C198.238 25.0413 198.399 25.0939 198.586 25.1859C198.773 25.278 198.847 25.3766 198.807 25.4819C198.914 25.2847 199.021 25.1859 199.128 25.1859C199.194 25.1992 199.258 25.288 199.318 25.4523C199.378 25.6166 199.415 25.7053 199.428 25.7186C199.535 25.8631 199.642 25.896 199.749 25.8171C199.856 25.7382 199.967 25.6232 200.08 25.472C200.194 25.3209 200.257 25.2519 200.271 25.265C200.137 25.2127 200.123 25.16 200.231 25.1073C200.431 24.989 200.612 24.956 200.772 25.0089C200.812 25.035 200.866 25.0943 200.932 25.1861C201.052 25.4231 201.032 25.5346 200.872 25.5215C200.992 25.6268 201.042 25.7583 201.023 25.9159C201.003 26.0737 200.898 26.1461 200.711 26.1328C200.645 26.1328 200.547 26.0998 200.42 26.0342C200.293 25.9686 200.196 25.9325 200.129 25.9258C200.063 25.919 199.969 25.9553 199.849 26.0342C199.795 26.1001 199.725 26.2119 199.638 26.3695C199.551 26.5276 199.474 26.6391 199.407 26.7047C199.207 26.9019 198.872 26.9744 198.404 26.9216C198.444 26.9216 198.441 26.9611 198.394 27.04C198.347 27.1188 198.284 27.2077 198.203 27.3062C198.123 27.4048 198.076 27.4607 198.063 27.4738C197.943 27.6052 197.863 27.7565 197.822 27.9274C197.822 27.9537 197.816 28.0426 197.802 28.1936C197.789 28.3448 197.762 28.46 197.722 28.5388C197.882 28.4993 198.009 28.5785 198.103 28.7755C198.183 28.9597 198.183 29.0582 198.103 29.0715C198.544 29.006 198.932 29.0321 199.267 29.1504C199.748 29.3213 200.023 29.4922 200.089 29.6632C200.169 29.5447 200.363 29.538 200.671 29.6433C200.791 29.7089 200.898 29.9064 200.992 30.2348C201.045 30.4319 201.136 30.603 201.263 30.7475C201.39 30.8921 201.527 30.9314 201.674 30.8658L201.734 30.8264C201.787 30.8003 201.831 30.7771 201.864 30.7574C201.898 30.7378 201.934 30.7114 201.974 30.6785C202.015 30.6456 202.038 30.6161 202.044 30.5899C202.051 30.5637 202.041 30.5371 202.015 30.511C201.921 30.432 201.851 30.3237 201.804 30.1858C201.758 30.0477 201.768 29.926 201.834 29.8207C201.874 29.7682 201.981 29.6892 202.155 29.5839C202.329 29.4786 202.436 29.3735 202.476 29.2683C202.53 29.0975 202.463 28.9561 202.276 28.8442C202.088 28.7326 201.995 28.6307 201.995 28.5385C201.995 28.4727 202.038 28.3939 202.125 28.3018C202.212 28.2099 202.249 28.1241 202.235 28.0455C202.235 28.0057 202.212 27.9238 202.165 27.7988C202.119 27.6736 202.091 27.5817 202.085 27.5226C202.078 27.4634 202.108 27.3944 202.175 27.3156C202.268 27.2629 202.489 27.2662 202.837 27.3253C203.184 27.3846 203.412 27.4471 203.519 27.5126C203.559 27.5387 203.646 27.5782 203.78 27.631C203.914 27.6832 204.031 27.7391 204.131 27.7985C204.231 27.8576 204.288 27.9133 204.301 27.966H204.201C204.295 28.0451 204.352 28.1368 204.371 28.2422C204.392 28.3477 204.342 28.4264 204.221 28.4792C204.301 28.4658 204.409 28.4857 204.542 28.5382C204.756 28.617 204.763 28.6895 204.562 28.7551C204.602 28.7418 204.659 28.7289 204.732 28.7156C204.806 28.7025 204.863 28.6827 204.903 28.6566C204.929 28.6433 204.963 28.6205 205.003 28.5875C205.043 28.5546 205.073 28.5348 205.093 28.5285C205.114 28.522 205.143 28.5152 205.184 28.5086C205.224 28.5021 205.264 28.5121 205.303 28.5382C205.317 28.5382 205.347 28.5052 205.394 28.4396C205.44 28.374 205.491 28.3082 205.544 28.2426C205.598 28.177 205.644 28.1442 205.685 28.1442C205.724 28.1442 205.761 28.1603 205.794 28.1932C205.828 28.2262 205.854 28.2622 205.875 28.3017C205.895 28.3412 205.915 28.384 205.935 28.4297C205.955 28.4757 205.971 28.5121 205.985 28.5382C206.011 28.6039 206.075 28.6731 206.175 28.7452C206.275 28.8173 206.339 28.8865 206.366 28.9521C206.379 28.9916 206.405 29.0903 206.446 29.2482C206.486 29.406 206.54 29.5144 206.606 29.5734C206.673 29.6328 206.773 29.682 206.907 29.7213C206.934 29.7347 206.994 29.728 207.087 29.7019C207.181 29.6754 207.258 29.6688 207.318 29.682C207.378 29.695 207.408 29.7474 207.408 29.8397C207.488 29.7608 207.528 29.7081 207.528 29.682C207.542 29.8529 207.585 29.9911 207.659 30.0961C207.733 30.2011 207.849 30.2474 208.01 30.2341L207.97 30.6681C207.93 30.7337 207.83 30.7829 207.669 30.8157C207.508 30.8487 207.408 30.8785 207.368 30.9046C207.328 30.9177 207.231 30.9966 207.077 31.1414C206.923 31.2861 206.86 31.3716 206.886 31.3977C206.659 31.1479 206.318 31.0755 205.864 31.1808C205.356 31.2597 205.008 31.3386 204.821 31.4175C204.607 31.5229 204.459 31.6213 204.379 31.7132C204.366 31.7264 204.343 31.7726 204.309 31.8513C204.276 31.9301 204.242 32.0026 204.209 32.0682C204.175 32.1338 204.146 32.1667 204.119 32.1667C204.2 32.1539 204.289 32.0911 204.39 31.9796C204.49 31.8677 204.554 31.8056 204.58 31.7922C204.928 31.5689 205.215 31.4899 205.444 31.5572C205.738 31.6361 205.785 31.7414 205.584 31.8729C205.558 31.899 205.487 31.9088 205.374 31.9024C205.26 31.8959 205.183 31.899 205.143 31.9124C205.264 31.9385 205.363 31.9747 205.444 32.0205C205.524 32.0665 205.544 32.129 205.504 32.2078C205.718 32.3262 205.758 32.4576 205.625 32.6024C205.451 32.7736 205.244 32.8456 205.003 32.8193C205.043 32.8193 205.043 32.8457 205.003 32.8982L204.662 33.1151C204.635 33.128 204.548 33.1608 204.401 33.2137C204.254 33.2659 204.153 33.3255 204.1 33.391C204.06 33.4437 204.04 33.5225 204.04 33.628C204.04 33.7334 204.033 33.8123 204.02 33.8648C204.006 33.9177 203.953 33.9304 203.86 33.9043C203.819 33.9831 203.696 34.0456 203.488 34.0913C203.281 34.1373 203.144 34.2063 203.077 34.2983C203.157 34.4036 203.151 34.5087 203.057 34.6139C202.896 34.7456 202.756 34.7323 202.636 34.5745C202.569 34.6008 202.519 34.6664 202.485 34.7718C202.452 34.877 202.402 34.9494 202.335 34.9887C202.429 35.1333 202.415 35.2388 202.295 35.3042C202.308 35.3042 202.339 35.3175 202.385 35.3437C202.432 35.3699 202.482 35.4028 202.536 35.4423C202.589 35.4818 202.622 35.5016 202.636 35.5016C202.582 35.6196 202.509 35.6788 202.415 35.6788C202.495 35.8892 202.395 36.1195 202.115 36.3691C202.061 36.4216 201.977 36.4741 201.864 36.5269C201.749 36.5794 201.646 36.622 201.552 36.6549C201.458 36.6879 201.405 36.7108 201.392 36.7239C201.258 36.8425 201.158 36.964 201.091 37.0888C201.024 37.2139 201.014 37.3353 201.061 37.4538C201.108 37.5724 201.231 37.6509 201.432 37.6906L201.452 37.8483V38.2031L201.472 38.361C201.485 38.4529 201.496 38.5352 201.502 38.6077C201.509 38.6801 201.509 38.7718 201.502 38.8838C201.496 38.9954 201.465 39.058 201.412 39.0708C201.359 39.0843 201.285 39.0708 201.191 39.0314C201.084 38.9789 200.957 38.6896 200.81 38.1638C200.783 38.0324 200.703 37.8749 200.569 37.6906C200.502 37.7562 200.445 37.7988 200.399 37.8185C200.352 37.8383 200.318 37.8419 200.299 37.8284C200.279 37.8154 200.242 37.7857 200.188 37.7398C200.135 37.6939 200.089 37.6575 200.048 37.6316C199.981 37.5923 199.865 37.5592 199.697 37.5332C199.53 37.507 199.426 37.4739 199.386 37.4346C199.065 37.6717 198.871 37.6121 198.804 37.2576C198.778 37.3231 198.781 37.4117 198.814 37.5238C198.848 37.6356 198.865 37.6978 198.865 37.711C198.771 37.8822 198.624 37.8949 198.423 37.7502C198.343 37.6717 198.159 37.6618 197.872 37.7209C197.584 37.7798 197.393 37.7897 197.3 37.7502C197.314 37.7502 197.34 37.7699 197.38 37.8095C197.42 37.8353 197.447 37.8552 197.461 37.8684C197.447 37.9212 197.427 37.9604 197.4 37.9866C197.373 38.0127 197.347 38.0226 197.32 38.0165C197.293 38.0098 197.263 38.0098 197.23 38.0165C197.196 38.0226 197.166 38.0325 197.139 38.0457C197.086 38.085 197.019 38.154 196.939 38.2525C196.859 38.3512 196.798 38.4136 196.758 38.4395C196.838 38.6499 196.875 38.8111 196.869 38.9227C196.862 39.0347 196.842 39.1991 196.808 39.4158C196.775 39.6326 196.758 39.8071 196.758 39.9387C196.758 40.1486 196.822 40.3925 196.949 40.6682C197.076 40.9443 197.226 41.1348 197.4 41.2402C197.494 41.2927 197.654 41.3253 197.881 41.3384C198.109 41.3518 198.269 41.3384 198.363 41.2991C198.443 41.2602 198.503 41.2138 198.543 41.1613C198.583 41.1088 198.617 41.0327 198.643 40.9344C198.67 40.8361 198.69 40.7671 198.704 40.7278C198.797 40.4777 198.971 40.3463 199.225 40.3331C199.386 40.3199 199.502 40.3369 199.576 40.3822C199.65 40.4283 199.68 40.4907 199.666 40.5697C199.653 40.6484 199.626 40.7306 199.586 40.8162C199.546 40.9017 199.496 40.9968 199.436 41.1023C199.376 41.2079 199.339 41.2866 199.326 41.3394C199.299 41.4445 199.276 41.5923 199.256 41.7833C199.236 41.9738 199.219 42.089 199.205 42.1286C199.232 42.1415 199.332 42.1481 199.506 42.1481C199.506 42.122 199.516 42.079 199.536 42.0199C199.556 41.9609 199.566 41.9247 199.566 41.9117C199.633 42.0171 199.74 42.0757 199.887 42.089C200.035 42.1022 200.142 42.0498 200.209 41.9313C200.236 41.9708 200.316 42.0696 200.45 42.2275C200.583 42.3849 200.657 42.5164 200.67 42.6218C200.684 42.6747 200.71 42.7598 200.75 42.8785C200.791 42.9967 200.804 43.079 200.791 43.1252C200.777 43.1706 200.71 43.194 200.59 43.194C200.537 43.194 200.503 43.2139 200.49 43.2531C200.476 43.2928 200.476 43.3417 200.49 43.4008C200.503 43.4599 200.52 43.516 200.54 43.5685C200.56 43.6207 200.587 43.677 200.62 43.7361C200.654 43.7948 200.67 43.8311 200.67 43.8443C200.911 44.2778 201.239 44.3963 201.653 44.1994C201.653 44.5805 201.56 44.7908 201.372 44.8301C201.266 44.8562 201.146 44.7898 201.012 44.6324ZM201.312 49.0877C201.286 48.9563 201.272 48.8513 201.274 48.7728C201.26 48.6674 201.307 48.526 201.414 48.3487C201.52 48.1715 201.574 48.0364 201.574 47.9445C201.36 47.892 201.28 47.7209 201.333 47.4317C201.36 47.2344 201.553 46.9715 201.915 46.6429C202.169 46.4193 202.249 46.1034 202.155 45.6963C202.115 45.5253 202.081 45.2752 202.055 44.9466C202.028 44.6178 202.001 44.3878 201.975 44.2564C201.975 44.2956 202.038 44.3318 202.165 44.3646C202.292 44.3972 202.369 44.4403 202.396 44.4923C202.423 44.4533 202.456 44.3807 202.496 44.2757C202.536 44.1703 202.577 44.0917 202.616 44.0389C202.643 43.9994 202.7 43.9503 202.787 43.8909C202.874 43.8318 202.931 43.7959 202.957 43.7826C202.983 43.7696 203.044 43.7271 203.137 43.6546C203.231 43.5822 203.308 43.5266 203.368 43.4872C203.429 43.4478 203.508 43.4182 203.609 43.3988C203.71 43.379 203.78 43.4083 203.819 43.4872C203.886 43.5662 203.873 43.6876 203.78 43.8522C203.686 44.0167 203.686 44.1318 203.78 44.1978C203.793 44.158 203.806 44.0723 203.819 43.9408C203.833 43.8094 203.873 43.7108 203.94 43.6446C204.02 43.5661 204.097 43.5198 204.171 43.507C204.244 43.4933 204.311 43.5032 204.371 43.5366C204.431 43.5695 204.501 43.6148 204.581 43.6744C204.662 43.7334 204.735 43.7697 204.802 43.7826C205.003 43.8484 205.243 43.993 205.524 44.2166C205.511 44.2032 205.511 44.1868 205.524 44.167C205.538 44.1476 205.564 44.1278 205.605 44.1079C205.645 44.0886 205.681 44.0687 205.715 44.0488C205.748 44.0292 205.784 44.0134 205.825 43.9999L205.885 43.9801C205.978 43.9801 206.045 43.9737 206.085 43.9602C206.125 43.9472 206.183 43.9602 206.256 43.9999C206.329 44.0392 206.379 44.0687 206.406 44.0886C206.433 44.1079 206.479 44.1441 206.546 44.1968C206.613 44.2493 206.66 44.289 206.686 44.315C206.726 44.3409 206.8 44.3873 206.907 44.4531C207.014 44.5187 207.098 44.5712 207.158 44.6104C207.218 44.6496 207.272 44.7093 207.318 44.7874C207.364 44.8669 207.382 44.9523 207.368 45.0444C207.449 45.0577 207.609 45.1099 207.85 45.2018C207.89 45.2279 207.973 45.2513 208.101 45.2706C208.228 45.2904 208.311 45.3203 208.351 45.3592C206.414 47.372 204.067 48.6144 201.312 49.0877Z" fill="#1F81B8"/>
</g>
<defs>
<clipPath id="clip0">
<rect width="30.8094" height="30.2913" fill="white" transform="translate(183.681 21.5179)"/>
</clipPath>
</defs>
</svg>
