<svg width="163" height="56" viewBox="0 0 163 56" fill="none" xmlns="http://www.w3.org/2000/svg">
<path fill-rule="evenodd" clip-rule="evenodd" d="M34.5685 8.14587C36.2272 8.14587 37.8282 8.71567 39.1417 9.76308V12.2186H27.9584C29.2638 9.789 31.7374 8.14587 34.5685 8.14587ZM34.5738 26.4736C37.2056 26.4736 39.7348 25.5062 41.6958 23.7492L39.7082 21.528C38.2953 22.7946 36.4716 23.4921 34.5738 23.4921C30.326 23.4921 26.8711 20.0339 26.8711 15.7826C26.8711 15.5095 26.8847 15.239 26.9125 14.9735H42.192V8.26065L41.6958 7.81653C39.7348 6.05947 37.2056 5.0918 34.5738 5.0918C28.684 5.0918 23.892 9.88783 23.892 15.7826C23.892 21.6776 28.684 26.4736 34.5738 26.4736Z" fill="#398DBB"/>
<path fill-rule="evenodd" clip-rule="evenodd" d="M46.6956 9.63883C48.0272 8.62903 49.6524 8.07967 51.3347 8.07967C55.5822 8.07967 59.0375 11.5454 59.0375 15.8052V25.9645H62.0165V15.8052C62.0165 9.89797 57.2248 5.0918 51.3347 5.0918C48.7021 5.0918 46.1728 6.06151 44.2119 7.82228L43.7166 8.26734V25.9645H46.6956V9.63883Z" fill="#398DBB"/>
<path fill-rule="evenodd" clip-rule="evenodd" d="M83.4375 22.0005C82.1059 22.9935 80.4807 23.5339 78.7984 23.5339C74.5509 23.5339 71.0957 20.125 71.0957 15.9343V6.10938H68.1166V15.9343C68.1166 21.7453 72.9083 26.473 78.7984 26.473C81.4308 26.473 83.9603 25.5194 85.9213 23.7874L86.4166 23.3493V6.10938H83.4375V22.0005Z" fill="#398DBB"/>
<path fill-rule="evenodd" clip-rule="evenodd" d="M94.1042 11.9642H91.8209C91.0206 11.9642 90.9009 11.4266 90.9009 11.1063C90.9009 10.4965 91.3346 9.82316 92.0611 9.30486C92.8557 8.73777 94.3831 8.06153 97.1479 8.06153C99.0333 8.06153 100.845 8.75625 102.25 10.0181L104.224 7.8057C102.276 6.05562 99.7633 5.0918 97.1479 5.0918C94.3419 5.0918 91.9892 5.71173 90.3461 6.88461C88.8175 7.97491 87.9413 9.51362 87.9413 11.1063C87.9413 13.2884 89.6094 14.9342 91.8209 14.9342H94.1042C98.324 14.9342 101.757 17.3513 101.757 20.3216C101.757 21.4474 101.259 22.3509 100.727 22.9948H88.5755V25.9645H101.981L102.413 25.5378C103.899 24.0695 104.716 22.2172 104.716 20.3216C104.716 15.7135 99.9556 11.9642 94.1042 11.9642Z" fill="#398DBB"/>
<path fill-rule="evenodd" clip-rule="evenodd" d="M12.8205 26.4729C15.9792 26.4729 19.0149 25.2979 21.368 23.1644L21.8583 22.7203V12.0012H12.8205V14.981H18.9156V21.3608C17.1808 22.7406 15.0403 23.4935 12.8205 23.4935C7.37366 23.4935 2.94242 19.0065 2.94242 13.4911C2.94242 7.97571 7.37366 3.48873 12.8205 3.48873C15.254 3.48873 17.5925 4.394 19.4054 6.03741L21.368 3.81781C19.0149 1.68425 15.9792 0.509277 12.8205 0.509277C5.75153 0.509277 0 6.33318 0 13.4911C0 20.6493 5.75153 26.4729 12.8205 26.4729Z" fill="#398DBB"/>
<path fill-rule="evenodd" clip-rule="evenodd" d="M63.5414 25.9639H66.5914V6.10938H63.5414V25.9639Z" fill="#398DBB"/>
<path fill-rule="evenodd" clip-rule="evenodd" d="M65.0667 0.000244141C63.9434 0.000244141 63.0333 0.91164 63.0333 2.03647C63.0333 3.1613 63.9434 4.07297 65.0667 4.07297C66.1899 4.07297 67.1 3.1613 67.1 2.03647C67.1 0.91164 66.1899 0.000244141 65.0667 0.000244141Z" fill="#398DBB"/>
<path fill-rule="evenodd" clip-rule="evenodd" d="M145.012 36.0132C144.427 36.621 143.813 37.1324 143.271 37.5841C142.827 37.9551 142.4 38.3122 142.013 38.691H138.502V36.7525C138.502 35.7077 138.852 35.3833 139.618 34.6719C139.919 34.3931 140.259 34.0767 140.597 33.6846C141.917 32.159 142.644 30.1696 142.644 28.0827V27.4878L139.475 24.4712L137.728 26.1351L135.979 24.4715L134.231 26.1351L132.483 24.4712L129.315 27.4878V28.0827C129.315 30.1696 130.041 32.159 131.36 33.6843C131.694 34.0705 132.03 34.3834 132.34 34.6722C133.107 35.3836 133.457 35.7082 133.457 36.7525V38.691H129.945C129.559 38.3128 129.132 37.9557 128.686 37.5832C128.173 37.156 127.535 36.6247 126.946 36.0135C124.74 33.7219 123.525 30.7186 123.525 27.557C123.525 20.7836 129.112 15.2728 135.979 15.2728C142.846 15.2728 148.433 20.7836 148.433 27.557C148.433 30.7186 147.218 33.7219 145.012 36.0132ZM133.687 33.807C133.389 33.5293 133.109 33.2666 132.828 32.9407C131.77 31.7131 131.176 30.1119 131.15 28.4196L132.654 26.9823L134.444 28.6912L136.233 26.982L138.023 28.6912L139.812 26.9823L141.317 28.4196C141.29 30.1113 140.696 31.7128 139.637 32.9416C139.353 33.2725 139.055 33.5504 138.767 33.8184C137.899 34.6276 137.078 35.3921 137.078 37.2086V39.2002H135.389V37.2086C135.389 35.3924 134.568 34.6276 133.687 33.807ZM135.98 12.2185C127.43 12.2185 120.476 19.1017 120.476 27.5621C120.476 31.5111 121.988 35.2621 124.736 38.1257C125.441 38.8598 126.152 39.4534 126.721 39.9293C127.291 40.4075 127.783 40.8204 128.121 41.2188L128.569 41.7458H143.389L143.837 41.2191C144.177 40.8193 144.669 40.4072 145.238 39.9304C145.811 39.452 146.523 38.8558 147.224 38.1251C149.971 35.2621 151.484 31.5111 151.484 27.5621C151.484 19.1017 144.529 12.2185 135.98 12.2185Z" fill="#F1AF2A"/>
<path fill-rule="evenodd" clip-rule="evenodd" d="M135.614 56.0002C139.141 56.0002 142.04 53.3079 142.334 49.8911L129.625 52.3871C130.75 54.53 133.01 56.0002 135.614 56.0002Z" fill="#398DBB"/>
<path fill-rule="evenodd" clip-rule="evenodd" d="M128.932 45.3871V47.3454L142.047 44.6337C142.094 44.1198 142.189 43.6707 142.333 43.2727H128.608C128.82 43.8546 128.932 44.5329 128.932 45.3871Z" fill="#398DBB"/>
<path fill-rule="evenodd" clip-rule="evenodd" d="M129.365 50.909L142.333 48.3778V45.8181L129.117 48.3984C129.117 49.3298 129.212 50.3724 129.365 50.909Z" fill="#398DBB"/>
<path fill-rule="evenodd" clip-rule="evenodd" d="M150.975 18.8909C151.666 20.1439 152.214 21.4906 152.595 22.9092C153.563 22.832 154.67 22.5608 155.796 22.0809C158.684 20.8511 160.579 18.7493 160.031 17.3873C159.482 16.0247 156.697 15.9178 153.809 17.1479C152.682 17.6278 151.713 18.2413 150.975 18.8909Z" fill="#F1AF2A"/>
<path fill-rule="evenodd" clip-rule="evenodd" d="M121.903 16.8005C122.82 15.6262 123.877 14.568 125.05 13.6494C124.587 12.7358 123.884 11.7629 122.976 10.8532C120.649 8.52345 117.898 7.50111 116.831 8.56968C115.764 9.63854 116.785 12.3935 119.111 14.723C120.02 15.633 120.991 16.3371 121.903 16.8005Z" fill="#F1AF2A"/>
<path fill-rule="evenodd" clip-rule="evenodd" d="M117.933 29.5638C117.847 28.884 117.797 28.1933 117.797 27.491C117.797 26.7887 117.847 26.0982 117.933 25.4183C116.987 25.1225 115.834 24.9456 114.583 24.9456C111.38 24.9456 108.783 26.0853 108.783 27.491C108.783 28.8967 111.38 30.0365 114.583 30.0365C115.834 30.0365 116.987 29.8598 117.933 29.5638Z" fill="#F1AF2A"/>
<path fill-rule="evenodd" clip-rule="evenodd" d="M115.146 22.0809C116.272 22.5608 117.379 22.832 118.347 22.9092C118.728 21.4906 119.275 20.1439 119.966 18.8909C119.229 18.2413 118.259 17.6278 117.133 17.1479C114.245 15.9178 111.46 16.0247 110.911 17.3873C110.362 18.7493 112.258 20.8511 115.146 22.0809Z" fill="#F1AF2A"/>
<path fill-rule="evenodd" clip-rule="evenodd" d="M127.138 11.7098C128.389 11.0175 129.733 10.4697 131.15 10.0877C131.073 9.11816 130.802 8.00984 130.323 6.88182C129.094 3.99011 126.996 2.0913 125.636 2.64081C124.276 3.19033 124.169 5.97985 125.397 8.87156C125.876 9.99986 126.489 10.9711 127.138 11.7098Z" fill="#F1AF2A"/>
<path fill-rule="evenodd" clip-rule="evenodd" d="M149.546 16.8005C150.458 16.3371 151.43 15.633 152.338 14.723C154.664 12.3935 155.685 9.63854 154.618 8.56968C153.551 7.50111 150.8 8.52345 148.474 10.8532C147.565 11.7629 146.862 12.7358 146.399 13.6494C147.572 14.568 148.629 15.6262 149.546 16.8005Z" fill="#F1AF2A"/>
<path fill-rule="evenodd" clip-rule="evenodd" d="M135.726 9.53644C136.427 9.53644 137.116 9.58606 137.795 9.67291C138.091 8.72478 138.267 7.57035 138.267 6.31781C138.267 3.10986 137.129 0.509277 135.726 0.509277C134.322 0.509277 133.184 3.10986 133.184 6.31781C133.184 7.57035 133.36 8.72478 133.655 9.67291C134.334 9.58606 135.024 9.53644 135.726 9.53644Z" fill="#F1AF2A"/>
<path fill-rule="evenodd" clip-rule="evenodd" d="M144.312 11.7098C144.961 10.9708 145.574 9.99986 146.053 8.87156C147.281 5.97985 147.174 3.19033 145.814 2.64081C144.454 2.0913 142.355 3.99011 141.127 6.88182C140.648 8.00984 140.377 9.11816 140.3 10.0877C141.716 10.4697 143.061 11.0175 144.312 11.7098Z" fill="#F1AF2A"/>
<path fill-rule="evenodd" clip-rule="evenodd" d="M121.903 38.6912C120.991 39.1546 120.02 39.8587 119.111 40.7687C116.785 43.0982 115.764 45.8531 116.831 46.922C117.898 47.9906 120.649 46.9682 122.976 44.6388C123.884 43.7288 124.587 42.7559 125.05 41.8423C123.877 40.9237 122.82 39.8655 121.903 38.6912Z" fill="#F1AF2A"/>
<path fill-rule="evenodd" clip-rule="evenodd" d="M149.546 38.6912C148.629 39.8655 147.572 40.9237 146.399 41.8423C146.862 42.7559 147.565 43.7288 148.474 44.6388C150.8 46.9682 153.551 47.9906 154.618 46.922C155.685 45.8531 154.664 43.0982 152.338 40.7687C151.43 39.8587 150.458 39.1546 149.546 38.6912Z" fill="#F1AF2A"/>
<path fill-rule="evenodd" clip-rule="evenodd" d="M155.796 32.9015C154.67 32.4216 153.563 32.1504 152.595 32.0732C152.214 33.4919 151.666 34.8385 150.975 36.0915C151.713 36.7411 152.682 37.3545 153.809 37.8347C156.697 39.0646 159.482 38.9576 160.031 37.5954C160.579 36.2328 158.684 34.1316 155.796 32.9015Z" fill="#F1AF2A"/>
<path fill-rule="evenodd" clip-rule="evenodd" d="M119.966 36.0915C119.275 34.8385 118.728 33.4919 118.347 32.0732C117.379 32.1504 116.272 32.4216 115.146 32.9015C112.258 34.1316 110.362 36.2328 110.911 37.5954C111.46 38.9576 114.245 39.0646 117.133 37.8347C118.259 37.3545 119.229 36.7411 119.966 36.0915Z" fill="#F1AF2A"/>
<path fill-rule="evenodd" clip-rule="evenodd" d="M156.867 24.9456C155.616 24.9456 154.463 25.1225 153.517 25.4183C153.603 26.0982 153.653 26.7887 153.653 27.491C153.653 28.1933 153.603 28.884 153.517 29.5638C154.463 29.8598 155.616 30.0365 156.867 30.0365C160.07 30.0365 162.667 28.8967 162.667 27.491C162.667 26.0853 160.07 24.9456 156.867 24.9456Z" fill="#F1AF2A"/>
<path d="M62.4199 32.6H66.3199V50.3H77.2999V53.6H62.4199V32.6Z" fill="#F1AF2A"/>
<path d="M80.3789 32.6H84.2789V53.6H80.3789V32.6Z" fill="#F1AF2A"/>
<path d="M96.469 53.9C94.849 53.9 93.279 53.67 91.759 53.21C90.259 52.75 89.069 52.14 88.189 51.38L89.539 48.35C90.399 49.03 91.449 49.59 92.689 50.03C93.949 50.45 95.209 50.66 96.469 50.66C98.029 50.66 99.189 50.41 99.949 49.91C100.729 49.41 101.119 48.75 101.119 47.93C101.119 47.33 100.899 46.84 100.459 46.46C100.039 46.06 99.499 45.75 98.839 45.53C98.179 45.31 97.279 45.06 96.139 44.78C94.539 44.4 93.239 44.02 92.239 43.64C91.259 43.26 90.409 42.67 89.689 41.87C88.989 41.05 88.639 39.95 88.639 38.57C88.639 37.41 88.949 36.36 89.569 35.42C90.209 34.46 91.159 33.7 92.419 33.14C93.699 32.58 95.259 32.3 97.099 32.3C98.379 32.3 99.639 32.46 100.879 32.78C102.119 33.1 103.189 33.56 104.089 34.16L102.859 37.19C101.939 36.65 100.979 36.24 99.979 35.96C98.979 35.68 98.009 35.54 97.069 35.54C95.529 35.54 94.379 35.8 93.619 36.32C92.879 36.84 92.509 37.53 92.509 38.39C92.509 38.99 92.719 39.48 93.139 39.86C93.579 40.24 94.129 40.54 94.789 40.76C95.449 40.98 96.349 41.23 97.489 41.51C99.049 41.87 100.329 42.25 101.329 42.65C102.329 43.03 103.179 43.62 103.879 44.42C104.599 45.22 104.959 46.3 104.959 47.66C104.959 48.82 104.639 49.87 103.999 50.81C103.379 51.75 102.429 52.5 101.149 53.06C99.869 53.62 98.309 53.9 96.469 53.9Z" fill="#F1AF2A"/>
</svg>
