<svg width="166" height="56" viewBox="0 0 166 56" fill="none" xmlns="http://www.w3.org/2000/svg">
<path fill-rule="evenodd" clip-rule="evenodd" d="M138.435 55.7859C141.976 55.7859 144.888 53.115 145.182 49.7247L132.423 52.2013C133.551 54.327 135.821 55.7859 138.435 55.7859Z" fill="#945BA4"/>
<path fill-rule="evenodd" clip-rule="evenodd" d="M131.803 45.1065V47.0116L145.393 44.3739C145.443 43.8739 145.542 43.4362 145.69 43.0493H131.467C131.688 43.6156 131.803 44.275 131.803 45.1065Z" fill="#945BA4"/>
<path fill-rule="evenodd" clip-rule="evenodd" d="M132.059 50.9217L145.354 48.3412V45.7314L131.804 48.3617C131.804 49.312 131.903 50.3749 132.059 50.9217Z" fill="#945BA4"/>
<path fill-rule="evenodd" clip-rule="evenodd" d="M154.359 18.7217C155.082 19.968 155.655 21.3085 156.053 22.72C157.066 22.6428 158.224 22.3725 159.403 21.8954C162.424 20.672 164.408 18.5805 163.834 17.2257C163.26 15.8697 160.345 15.7634 157.324 16.9868C156.146 17.4651 155.131 18.0754 154.359 18.7217Z" fill="#FAB216"/>
<path fill-rule="evenodd" clip-rule="evenodd" d="M124.291 16.5421C125.203 15.4015 126.254 14.3752 127.42 13.4827C126.959 12.5964 126.261 11.6512 125.357 10.7684C123.045 8.50725 120.31 7.51468 119.249 8.55239C118.188 9.58953 119.204 12.2638 121.516 14.5255C122.419 15.409 123.385 16.0918 124.291 16.5421Z" fill="#FAB216"/>
<path fill-rule="evenodd" clip-rule="evenodd" d="M120.585 29.6194C120.496 28.9096 120.445 28.1891 120.445 27.4559C120.445 26.7234 120.496 26.0022 120.585 25.2936C119.618 24.9845 118.441 24.7999 117.164 24.7999C113.894 24.7999 111.243 25.9885 111.243 27.4559C111.243 28.9234 113.894 30.1131 117.164 30.1131C118.441 30.1131 119.618 29.9285 120.585 29.6194Z" fill="#FAB216"/>
<path fill-rule="evenodd" clip-rule="evenodd" d="M117.755 21.8959C118.934 22.373 120.092 22.6433 121.105 22.7193C121.503 21.3084 122.076 19.9684 122.799 18.7222C122.027 18.0747 121.012 17.4644 119.834 16.9873C116.813 15.7633 113.898 15.8702 113.324 17.225C112.75 18.581 114.734 20.6713 117.755 21.8959Z" fill="#FAB216"/>
<path fill-rule="evenodd" clip-rule="evenodd" d="M129.648 12.0236C130.923 11.3168 132.292 10.7568 133.736 10.3665C133.657 9.37565 133.381 8.24307 132.894 7.0905C131.642 4.13565 129.504 2.19565 128.118 2.75679C126.732 3.3185 126.623 6.16936 127.874 9.12422C128.363 10.2762 128.987 11.2688 129.648 12.0236Z" fill="#FAB216"/>
<path fill-rule="evenodd" clip-rule="evenodd" d="M152.867 16.5421C153.773 16.0918 154.739 15.409 155.642 14.5255C157.954 12.2638 158.969 9.58953 157.909 8.55239C156.848 7.51468 154.113 8.50725 151.801 10.7684C150.898 11.6512 150.199 12.5964 149.739 13.4827C150.904 14.3752 151.955 15.4015 152.867 16.5421Z" fill="#FAB216"/>
<path fill-rule="evenodd" clip-rule="evenodd" d="M138.579 9.72172C139.328 9.72172 140.065 9.77143 140.791 9.85772C141.106 8.91258 141.295 7.76172 141.295 6.51315C141.295 3.31429 140.079 0.72229 138.579 0.72229C137.079 0.72229 135.863 3.31429 135.863 6.51315C135.863 7.76172 136.052 8.91258 136.367 9.85772C137.093 9.77143 137.83 9.72172 138.579 9.72172Z" fill="#FAB216"/>
<path fill-rule="evenodd" clip-rule="evenodd" d="M147.51 12.0236C148.171 11.2688 148.795 10.2762 149.284 9.12422C150.535 6.16936 150.426 3.3185 149.04 2.75679C147.654 2.19565 145.516 4.13565 144.264 7.0905C143.776 8.24307 143.501 9.37565 143.421 10.3665C144.866 10.7568 146.235 11.3168 147.51 12.0236Z" fill="#FAB216"/>
<path fill-rule="evenodd" clip-rule="evenodd" d="M124.291 38.3701C123.385 38.8204 122.419 39.5038 121.516 40.3867C119.204 42.649 118.188 45.3227 119.249 46.3598C120.31 47.3975 123.045 46.405 125.357 44.1438C126.261 43.261 126.959 42.3158 127.42 41.4295C126.254 40.5381 125.203 39.5107 124.291 38.3701Z" fill="#FAB216"/>
<path fill-rule="evenodd" clip-rule="evenodd" d="M152.867 38.3701C151.955 39.5107 150.904 40.5381 149.739 41.4295C150.199 42.3158 150.898 43.2604 151.801 44.1438C154.113 46.405 156.848 47.3975 157.909 46.3598C158.969 45.3227 157.954 42.649 155.642 40.3867C154.739 39.5038 153.773 38.8204 152.867 38.3701Z" fill="#FAB216"/>
<path fill-rule="evenodd" clip-rule="evenodd" d="M159.403 33.0167C158.225 32.5396 157.066 32.2693 156.053 32.1921C155.655 33.6041 155.082 34.9441 154.359 36.1904C155.131 36.8378 156.146 37.4481 157.324 37.9253C160.345 39.1493 163.26 39.0424 163.834 37.6864C164.408 36.3316 162.425 34.2401 159.403 33.0167Z" fill="#FAB216"/>
<path fill-rule="evenodd" clip-rule="evenodd" d="M122.799 36.1908C122.076 34.9439 121.504 33.6045 121.105 32.1925C120.092 32.2696 118.933 32.5394 117.755 33.0165C114.733 34.2405 112.75 36.3319 113.324 37.6868C113.898 39.0428 116.813 39.1491 119.834 37.9256C121.012 37.4474 122.027 36.8376 122.799 36.1908Z" fill="#FAB216"/>
<mask id="mask0" mask-type="alpha" maskUnits="userSpaceOnUse" x="156" y="24" width="10" height="7">
<path fill-rule="evenodd" clip-rule="evenodd" d="M156.574 24.7999H165.915V30.1125H156.574V24.7999Z" fill="white"/>
</mask>
<g mask="url(#mask0)">
<path fill-rule="evenodd" clip-rule="evenodd" d="M159.994 24.7999C158.717 24.7999 157.539 24.9839 156.574 25.2931C156.662 26.0028 156.714 26.7239 156.714 27.4565C156.714 28.1896 156.662 28.9102 156.574 29.6194C157.539 29.9285 158.717 30.1125 159.994 30.1125C163.265 30.1125 165.915 28.9239 165.915 27.4565C165.915 25.9896 163.265 24.7999 159.994 24.7999Z" fill="#FAB216"/>
</g>
<path fill-rule="evenodd" clip-rule="evenodd" d="M35.0757 26.4363C37.7506 26.4363 40.3208 25.4751 42.3135 23.7306L40.2933 21.5248C38.8574 22.782 37.0044 23.4757 35.0757 23.4757C30.759 23.4757 27.248 20.0414 27.248 15.8197C27.248 15.5488 27.2617 15.2803 27.2898 15.0157H42.8177V8.34998L42.3135 7.90884C40.3208 6.16427 37.7506 5.20312 35.0757 5.20312C29.0896 5.20312 24.22 9.96598 24.22 15.8197C24.22 21.6734 29.0896 26.4363 35.0757 26.4363ZM35.076 8.16312C36.7854 8.16312 38.4371 8.70826 39.7905 9.7094V12.0545H28.2612C29.6072 9.73397 32.1579 8.16312 35.076 8.16312Z" fill="#945BA4"/>
<path fill-rule="evenodd" clip-rule="evenodd" d="M47.5757 9.70892C48.9286 8.70892 50.5802 8.16378 52.2902 8.16378C56.6064 8.16378 60.118 11.5981 60.118 15.8192V25.8872H63.146V15.8192C63.146 9.96549 58.2752 5.20264 52.2902 5.20264C49.6148 5.20264 47.0446 6.16378 45.0514 7.90835L44.5483 8.35006V25.8872H47.5757V9.70892Z" fill="#945BA4"/>
<path fill-rule="evenodd" clip-rule="evenodd" d="M85.2032 21.9304C83.8503 22.9304 82.1981 23.4755 80.4887 23.4755C76.1725 23.4755 72.6609 20.0407 72.6609 15.8195V5.92126H69.6329V15.8195C69.6329 21.6738 74.5031 26.4355 80.4887 26.4355C83.1641 26.4355 85.7343 25.4755 87.7276 23.7304L88.2306 23.2893V5.92126H85.2032V21.9304Z" fill="#945BA4"/>
<path fill-rule="evenodd" clip-rule="evenodd" d="M96.2648 12.055H93.9287C93.1109 12.055 92.9884 11.519 92.9884 11.199C92.9884 10.5915 93.4319 9.92068 94.1748 9.40353C94.9874 8.83782 96.5509 8.16411 99.3786 8.16411C101.307 8.16411 103.161 8.85668 104.597 10.1144L106.617 7.90811C104.624 6.16354 102.053 5.20239 99.3786 5.20239C96.508 5.20239 94.1015 5.82125 92.4207 6.99039C90.8567 8.07725 89.9604 9.61211 89.9604 11.199C89.9604 13.3755 91.667 15.0161 93.9287 15.0161H96.2648C100.581 15.0161 104.093 17.4258 104.093 20.3875C104.093 21.5098 103.584 22.411 103.04 23.0521H90.61V26.0132H104.323L104.765 25.5881C106.284 24.1235 107.12 22.2772 107.12 20.3875C107.12 15.7932 102.251 12.055 96.2648 12.055Z" fill="#945BA4"/>
<mask id="mask1" mask-type="alpha" maskUnits="userSpaceOnUse" x="0" y="0" width="23" height="27">
<path fill-rule="evenodd" clip-rule="evenodd" d="M0 0.634033H22.4907V26.4363H0V0.634033Z" fill="white"/>
</mask>
<g mask="url(#mask1)">
<path fill-rule="evenodd" clip-rule="evenodd" d="M13.1913 26.4363C16.4414 26.4363 19.5643 25.2689 21.9857 23.1489L22.4905 22.7066V12.0546H13.1913V15.0157H19.4625V21.3558C17.6781 22.7272 15.4748 23.4757 13.1913 23.4757C7.58749 23.4757 3.0275 19.0163 3.0275 13.5357C3.0275 8.05518 7.58749 3.59518 13.1913 3.59518C15.6951 3.59518 18.101 4.49518 19.9661 6.12832L21.9857 3.92261C19.5643 1.8026 16.4414 0.634033 13.1913 0.634033C5.91755 0.634033 -0.000480652 6.42146 -0.000480652 13.5357C-0.000480652 20.6489 5.91755 26.4363 13.1913 26.4363Z" fill="#945BA4"/>
</g>
<mask id="mask2" mask-type="alpha" maskUnits="userSpaceOnUse" x="0" y="0" width="166" height="56">
<path fill-rule="evenodd" clip-rule="evenodd" d="M0 55.786H165.914V0.000244141H0V55.786Z" fill="white"/>
</mask>
<g mask="url(#mask2)">
<path fill-rule="evenodd" clip-rule="evenodd" d="M64.8756 25.8871H67.903V5.922H64.8756V25.8871Z" fill="#945BA4"/>
<path fill-rule="evenodd" clip-rule="evenodd" d="M66.3894 0C65.1945 0 64.2267 0.946857 64.2267 2.11543C64.2267 3.28286 65.1945 4.23029 66.3894 4.23029C67.5832 4.23029 68.5515 3.28286 68.5515 2.11543C68.5515 0.946857 67.5832 0 66.3894 0Z" fill="#945BA4"/>
<path fill-rule="evenodd" clip-rule="evenodd" d="M27.9178 32.905V45.2736H30.7192C31.3333 45.2736 31.8145 45.257 32.1631 45.2233C32.5116 45.1908 32.8727 45.1073 33.2464 44.9753C33.6195 44.8427 33.9435 44.6559 34.217 44.4159C35.4537 43.3713 36.0724 41.573 36.0724 39.021C36.0724 37.2227 35.8 35.8759 35.2569 34.981C34.7132 34.0856 34.043 33.5165 33.2464 33.2719C32.4492 33.0273 31.4866 32.905 30.3581 32.905H27.9178ZM26.4865 29.9839H31.304C32.5573 29.9839 33.6321 30.0999 34.5283 30.3319C35.4251 30.5639 36.2383 30.9993 36.9685 31.637C38.8691 33.2616 39.8191 35.7307 39.8191 39.0456C39.8191 40.1393 39.7235 41.1382 39.533 42.0416C39.3418 42.945 39.0477 43.7587 38.6488 44.4839C38.251 45.2096 37.7405 45.8576 37.1179 46.429C36.628 46.869 36.0929 47.221 35.5121 47.4862C34.9306 47.7513 34.3062 47.9376 33.6384 48.0456C32.9705 48.1536 32.2168 48.2067 31.379 48.2067H26.5609C25.8885 48.2067 25.382 48.1056 25.042 47.9027C24.7015 47.6993 24.4795 47.4136 24.3765 47.045C24.2723 46.6759 24.2202 46.1976 24.2202 45.609V32.2462C24.2202 31.4507 24.3988 30.8747 24.7559 30.5182C25.1124 30.1622 25.6893 29.9839 26.4865 29.9839Z" fill="#FAB216"/>
<path fill-rule="evenodd" clip-rule="evenodd" d="M52.1443 41.6188C52.1443 40.2348 51.8392 39.1577 51.2292 38.3868C50.6191 37.6165 49.7996 37.2308 48.77 37.2308C48.1062 37.2308 47.5213 37.4028 47.0154 37.7468C46.5089 38.0908 46.1186 38.5983 45.8451 39.2697C45.571 39.9405 45.4342 40.724 45.4342 41.6188C45.4342 42.5057 45.5687 43.2805 45.8388 43.9434C46.1083 44.6062 46.4941 45.1137 46.9965 45.4662C47.4984 45.8182 48.0902 45.9942 48.77 45.9942C49.7996 45.9942 50.6191 45.6068 51.2292 44.832C51.8392 44.0571 52.1443 42.9862 52.1443 41.6188ZM55.5551 41.6188C55.5551 42.6303 55.3977 43.5623 55.0824 44.416C54.767 45.2691 54.3103 46.0028 53.7129 46.616C53.1154 47.2291 52.4012 47.6994 51.5714 48.0268C50.7416 48.3543 49.8076 48.5177 48.77 48.5177C47.741 48.5177 46.8157 48.352 45.9944 48.0205C45.1726 47.6891 44.4607 47.2148 43.8592 46.5971C43.2572 45.98 42.801 45.2503 42.4897 44.4097C42.1784 43.5685 42.0227 42.6383 42.0227 41.6188C42.0227 40.5914 42.1807 39.6508 42.496 38.7971C42.8113 37.9434 43.2635 37.2143 43.8529 36.6091C44.4424 36.0045 45.156 35.5383 45.9944 35.2108C46.8322 34.8834 47.7576 34.72 48.77 34.72C49.7996 34.72 50.733 34.8857 51.5714 35.2171C52.4098 35.5485 53.1274 36.0211 53.7255 36.6343C54.3229 37.2474 54.7773 37.9765 55.0887 38.8217C55.3994 39.6674 55.5551 40.5994 55.5551 41.6188Z" fill="#FAB216"/>
<path fill-rule="evenodd" clip-rule="evenodd" d="M70.4198 44.3163C70.4198 44.7392 70.2928 45.1906 70.0399 45.6712C69.7869 46.1518 69.4012 46.6095 68.8821 47.0449C68.3636 47.4798 67.7101 47.8301 66.9215 48.0952C66.1328 48.3603 65.2452 48.4929 64.2575 48.4929C62.1572 48.4929 60.5181 47.8821 59.3398 46.6598C58.1614 45.4369 57.572 43.7986 57.572 41.7432C57.572 40.3506 57.8415 39.1203 58.3812 38.0512C58.9209 36.982 59.7009 36.1552 60.7219 35.5712C61.7423 34.9872 62.9624 34.6952 64.3816 34.6952C65.2612 34.6952 66.0687 34.8238 66.8036 35.0803C67.5378 35.3375 68.1605 35.6689 68.6704 36.0746C69.1808 36.4809 69.5711 36.9135 69.8407 37.374C70.1102 37.8335 70.2453 38.2626 70.2453 38.6603C70.2453 39.0661 70.0936 39.4106 69.7909 39.6923C69.4882 39.9735 69.1208 40.1146 68.6893 40.1146C68.4071 40.1146 68.1725 40.0421 67.9859 39.8975C67.7993 39.7523 67.5893 39.5181 67.357 39.1946C66.9421 38.5655 66.5088 38.0929 66.0562 37.7775C65.6035 37.4626 65.0295 37.3055 64.3319 37.3055C63.3275 37.3055 62.5183 37.6969 61.9048 38.4803C61.2901 39.2632 60.9834 40.3341 60.9834 41.6935C60.9834 42.3312 61.0618 42.9175 61.2198 43.4523C61.3771 43.9866 61.6055 44.4426 61.9048 44.8198C62.2035 45.1969 62.5641 45.4832 62.9875 45.6775C63.4105 45.8723 63.8752 45.9695 64.3816 45.9695C65.0621 45.9695 65.6453 45.8123 66.1311 45.4969C66.6164 45.1821 67.0456 44.7015 67.4193 44.0552C67.6271 43.6741 67.8509 43.3758 68.0918 43.1603C68.3327 42.9449 68.6269 42.8369 68.976 42.8369C69.3909 42.8369 69.7348 42.9946 70.0089 43.3095C70.2825 43.6243 70.4198 43.9598 70.4198 44.3163Z" fill="#FAB216"/>
<path fill-rule="evenodd" clip-rule="evenodd" d="M73.5694 35.0183H73.9431V32.9795C73.9431 32.4326 73.9574 32.0035 73.9866 31.6932C74.0152 31.3823 74.0964 31.1149 74.2292 30.8915C74.362 30.6595 74.5531 30.4709 74.8021 30.3257C75.051 30.1806 75.3286 30.108 75.6359 30.108C76.0674 30.108 76.4577 30.2697 76.8062 30.5932C77.0386 30.8086 77.1857 31.0715 77.248 31.3823C77.3104 31.6932 77.3413 32.1343 77.3413 32.7063V35.0183H78.5866C79.0673 35.0183 79.4348 35.132 79.6883 35.36C79.9412 35.588 80.0677 35.88 80.0677 36.2366C80.0677 36.692 79.8874 37.0115 79.5263 37.1937C79.1652 37.376 78.6484 37.4669 77.9766 37.4669H77.3413V43.7069C77.3413 44.2377 77.3602 44.6457 77.3974 44.9315C77.4346 45.2172 77.5348 45.4492 77.6961 45.6275C77.8581 45.8057 78.1219 45.8949 78.487 45.8949C78.6856 45.8949 78.9557 45.86 79.2957 45.7892C79.6362 45.7189 79.9017 45.6835 80.0929 45.6835C80.3664 45.6835 80.6137 45.7932 80.8334 46.0132C81.0532 46.2326 81.1636 46.504 81.1636 46.8275C81.1636 47.3743 80.8649 47.7926 80.2674 48.0829C79.6694 48.3726 78.8104 48.5177 77.6904 48.5177C76.6277 48.5177 75.823 48.3395 75.2748 47.9829C74.7271 47.6269 74.3683 47.1337 74.1983 46.504C74.0278 45.8743 73.9431 45.0332 73.9431 43.9806V37.4669H73.495C73.0051 37.4669 72.6314 37.3509 72.3744 37.1189C72.1169 36.8869 71.9881 36.5926 71.9881 36.2366C71.9881 35.88 72.1232 35.588 72.3927 35.36C72.6629 35.132 73.0549 35.0183 73.5694 35.0183Z" fill="#FAB216"/>
<path fill-rule="evenodd" clip-rule="evenodd" d="M91.7205 41.6188C91.7205 40.2348 91.4154 39.1577 90.8054 38.3868C90.1953 37.6165 89.3758 37.2308 88.3468 37.2308C87.683 37.2308 87.0975 37.4028 86.5916 37.7468C86.0851 38.0908 85.6954 38.5983 85.4213 39.2697C85.1477 39.9405 85.0104 40.724 85.0104 41.6188C85.0104 42.5057 85.1454 43.2805 85.415 43.9434C85.6845 44.6062 86.0703 45.1137 86.5727 45.4662C87.0746 45.8182 87.6664 45.9942 88.3468 45.9942C89.3758 45.9942 90.1953 45.6068 90.8054 44.832C91.4154 44.0571 91.7205 42.9862 91.7205 41.6188ZM95.1319 41.6188C95.1319 42.6303 94.9739 43.5623 94.6586 44.416C94.3432 45.2691 93.8866 46.0028 93.2891 46.616C92.6916 47.2291 91.978 47.6994 91.1481 48.0268C90.3178 48.3543 89.3844 48.5177 88.3468 48.5177C87.3178 48.5177 86.3919 48.352 85.5706 48.0205C84.7488 47.6891 84.0375 47.2148 83.4354 46.5971C82.8339 45.98 82.3773 45.2503 82.0659 44.4097C81.7546 43.5685 81.5989 42.6383 81.5989 41.6188C81.5989 40.5914 81.7569 39.6508 82.0728 38.7971C82.3876 37.9434 82.8397 37.2143 83.4297 36.6091C84.0186 36.0045 84.7322 35.5383 85.5706 35.2108C86.409 34.8834 87.3338 34.72 88.3468 34.72C89.3758 34.72 90.3097 34.8857 91.1481 35.2171C91.986 35.5485 92.7042 36.0211 93.3017 36.6343C93.8991 37.2474 94.3535 37.9765 94.6649 38.8217C94.9762 39.6674 95.1319 40.5994 95.1319 41.6188Z" fill="#FAB216"/>
<path fill-rule="evenodd" clip-rule="evenodd" d="M101.182 43.6202V46.4545C101.182 47.1425 101.02 47.6579 100.696 48.0019C100.372 48.3459 99.9616 48.5179 99.4637 48.5179C98.9744 48.5179 98.5715 48.3436 98.2562 47.9956C97.9408 47.6476 97.7834 47.1339 97.7834 46.4545V37.007C97.7834 35.4825 98.3351 34.7196 99.4391 34.7196C100.003 34.7196 100.41 34.8979 100.659 35.2545C100.908 35.6105 101.045 36.1367 101.07 36.8333C101.476 36.1367 101.894 35.6105 102.321 35.2545C102.748 34.8979 103.319 34.7196 104.033 34.7196C104.746 34.7196 105.44 34.8979 106.112 35.2545C106.784 35.6105 107.12 36.083 107.12 36.6716C107.12 37.0859 106.977 37.4282 106.691 37.6967C106.404 37.9659 106.095 38.1007 105.763 38.1007C105.639 38.1007 105.338 38.0247 104.86 37.871C104.383 37.7179 103.962 37.6407 103.597 37.6407C103.099 37.6407 102.693 37.7716 102.377 38.0327C102.061 38.2933 101.816 38.6807 101.642 39.1945C101.468 39.7087 101.348 40.3202 101.281 41.0282C101.215 41.7373 101.182 42.6007 101.182 43.6202Z" fill="#FAB216"/>
<path fill-rule="evenodd" clip-rule="evenodd" d="M138.579 12.0879C129.915 12.0879 122.865 18.9822 122.865 27.4565C122.865 31.4119 124.398 35.1685 127.183 38.0376C127.898 38.7725 128.618 39.3667 129.195 39.8433C129.773 40.3222 130.272 40.7365 130.615 41.1348L131.068 41.6628H146.089L146.543 41.1353C146.887 40.7347 147.386 40.3222 147.963 39.845C148.543 39.365 149.265 38.7685 149.976 38.0365C152.76 35.1685 154.293 31.4119 154.293 27.4565C154.293 18.9822 147.244 12.0879 138.579 12.0879Z" fill="#FAB216"/>
<path fill-rule="evenodd" clip-rule="evenodd" d="M149.591 28.2192H144.874L143.103 21.6689C142.95 21.1049 142.438 20.7135 141.853 20.7135H141.853C141.267 20.7135 140.755 21.1061 140.603 21.6706L138.31 30.1918L136.017 21.6706C135.867 21.1112 135.362 20.7198 134.782 20.7135H134.767C134.193 20.7135 133.686 21.0912 133.525 21.6421L132.306 25.7929H127.567C126.852 25.7929 126.273 26.3718 126.273 27.0855C126.273 27.7998 126.852 28.3781 127.567 28.3781H133.275C133.85 28.3781 134.356 28.0004 134.518 27.4495L134.712 26.7855L137.06 35.5084C137.212 36.0735 137.725 36.4661 138.31 36.4661C138.896 36.4661 139.408 36.0735 139.56 35.5084L141.856 26.9758L142.633 29.8489C142.786 30.4124 143.298 30.8044 143.883 30.8044H149.591C150.307 30.8044 150.886 30.2255 150.886 29.5118C150.886 28.7981 150.307 28.2192 149.591 28.2192Z" fill="#945BA4"/>
</g>
</svg>
